<?xml version="1.0" encoding="UTF-8" standalone="no"?><!DOCTYPE svg PUBLIC "-//W3C//DTD SVG 1.1//EN" "http://www.w3.org/Graphics/SVG/1.1/DTD/svg11.dtd"><svg width="100%" height="100%" viewBox="0 0 358 303" version="1.1" xmlns="http://www.w3.org/2000/svg" xmlns:xlink="http://www.w3.org/1999/xlink" xml:space="preserve" xmlns:serif="http://www.serif.com/" style="fill-rule:evenodd;clip-rule:evenodd;stroke-linejoin:round;stroke-miterlimit:2;"><path d="M145.731,289.053l191.599,-110.656c2.222,-1.276 1.937,-3.544 -0.613,-5.008l-114.224,-65.969c-2.574,-1.488 -6.472,-1.653 -8.692,-0.354l-191.6,110.656c-2.22,1.276 -1.936,3.544 0.614,5.008l114.247,65.945c2.551,1.512 6.448,1.677 8.669,0.378Z" style="fill:#151cc1;fill-opacity:0.3;fill-rule:nonzero;"/><path d="M135.646,300.603l-132.906,-76.739c-1.748,-1.016 -2.74,-2.386 -2.74,-3.779c-0,-1.181 0.709,-2.268 2.031,-3l209.031,-120.742c2.74,-1.582 7.511,-1.393 10.653,0.425l132.906,76.739c1.746,1.016 2.74,2.386 2.74,3.78c0,1.18 -0.709,2.267 -2.031,2.999l-209.032,120.742c-1.252,0.709 -2.929,1.063 -4.653,1.063c-2.079,0.024 -4.275,-0.496 -5.999,-1.488Zm219.14,-121.262c0.969,-0.567 1.466,-1.275 1.466,-2.054c-0,-0.993 -0.803,-2.008 -2.197,-2.835l-132.907,-76.739c-2.835,-1.63 -7.133,-1.819 -9.566,-0.425l-209.031,120.742c-0.969,0.567 -1.465,1.275 -1.465,2.055c0,0.992 0.804,2.007 2.197,2.834l132.906,76.739c2.834,1.63 7.133,1.819 9.566,0.425l209.031,-120.742Z" style="fill:#6affff;fill-rule:nonzero;"/><path d="M12.684,189.073l7.936,1.394l187.797,-108.46c2.315,-1.347 6.378,-1.181 9.07,0.377l107.443,62.025l13.937,2.433l0,4.535c0.022,0.873 -0.496,1.7 -1.559,2.338l-194.174,112.144c-2.315,1.347 -6.378,1.181 -9.07,-0.377l-119.16,-68.804c-1.464,-0.85 -2.196,-1.913 -2.22,-2.952l-0,-4.653Z" style="fill:#1b4efe;fill-rule:nonzero;"/><path d="M12.684,189.073l7.936,1.394l187.797,-108.46c2.315,-1.347 6.378,-1.181 9.07,0.377l107.443,62.025l13.937,2.433l0,4.535c0.022,0.873 -0.496,1.7 -1.559,2.338l-194.174,112.144c-2.315,1.347 -6.378,1.181 -9.07,-0.377l-119.16,-68.804c-1.464,-0.85 -2.196,-1.913 -2.22,-2.952l-0,-4.653Z" style="fill:url(#_Radial1);fill-rule:nonzero;"/><path d="M143.109,261.206l194.174,-112.144c2.316,-1.347 2.031,-3.685 -0.659,-5.244l-119.161,-68.803c-2.693,-1.559 -6.732,-1.724 -9.07,-0.378l-194.175,112.145c-2.314,1.346 -2.031,3.684 0.662,5.243l119.159,68.803c2.693,1.535 6.755,1.724 9.07,0.378Z" style="fill:#1b4efe;fill-rule:nonzero;"/><path d="M143.109,261.206l194.174,-112.144c2.316,-1.347 2.031,-3.685 -0.659,-5.244l-119.161,-68.803c-2.693,-1.559 -6.732,-1.724 -9.07,-0.378l-194.175,112.145c-2.314,1.346 -2.031,3.684 0.662,5.243l119.159,68.803c2.693,1.535 6.755,1.724 9.07,0.378Z" style="fill:url(#_Linear2);fill-rule:nonzero;"/><g opacity="0.4"><path d="M12.684,188.128l7.936,1.393l187.797,-108.459c2.315,-1.347 6.378,-1.182 9.07,0.377l107.443,62.025l13.937,2.433l0,0.85c0.022,0.874 -0.496,1.7 -1.559,2.338l-194.174,112.145c-2.315,1.346 -6.378,1.181 -9.07,-0.378l-119.16,-68.827c-1.464,-0.85 -2.196,-1.913 -2.22,-2.953l-0,-0.944Z" style="fill:url(#_Radial3);fill-rule:nonzero;"/><path d="M143.109,260.261l194.174,-112.144c2.316,-1.347 2.031,-3.685 -0.659,-5.244l-119.161,-68.803c-2.693,-1.559 -6.732,-1.724 -9.07,-0.378l-194.175,112.145c-2.314,1.346 -2.031,3.684 0.662,5.243l119.159,68.803c2.693,1.535 6.755,1.724 9.07,0.378Z" style="fill:url(#_Radial4);fill-rule:nonzero;"/><path d="M143.109,260.261l194.174,-112.144c2.316,-1.347 2.031,-3.685 -0.659,-5.244l-119.161,-68.803c-2.693,-1.559 -6.732,-1.724 -9.07,-0.378l-194.175,112.145c-2.314,1.346 -2.031,3.684 0.662,5.243l119.159,68.803c2.693,1.535 6.755,1.724 9.07,0.378Z" style="fill:#1b4efe;fill-opacity:0.4;fill-rule:nonzero;"/></g><path d="M143.109,260.261l194.174,-112.144c2.316,-1.347 2.031,-3.685 -0.659,-5.244l-119.161,-68.803c-2.693,-1.559 -6.732,-1.724 -9.07,-0.378l-194.175,112.145c-2.314,1.346 -2.031,3.684 0.662,5.243l119.159,68.803c2.693,1.535 6.755,1.724 9.07,0.378Z" style="fill:url(#_Radial5);fill-rule:nonzero;"/><path d="M143.109,260.261l194.174,-112.144c2.316,-1.347 2.031,-3.685 -0.659,-5.244l-119.161,-68.803c-2.693,-1.559 -6.732,-1.724 -9.07,-0.378l-194.175,112.145c-2.314,1.346 -2.031,3.684 0.662,5.243l119.159,68.803c2.693,1.535 6.755,1.724 9.07,0.378Z" style="fill:url(#_Radial6);fill-rule:nonzero;"/><path d="M142.048,260.214l194.176,-112.145c2.525,-1.535 2.975,-3.141 -0.663,-5.243l-119.16,-68.804c-1.205,-0.708 -2.692,-1.11 -4.18,-1.228c1.818,-0.023 3.755,0.402 5.243,1.276l119.16,68.803c2.693,1.559 2.975,3.897 0.662,5.243l-194.175,112.145c-1.276,0.732 -3.071,1.016 -4.89,0.85c1.441,0 2.787,-0.307 3.827,-0.897Z" style="fill:url(#_Radial7);fill-rule:nonzero;"/><path d="M67.28,218.942c-0.086,0 -0.144,-0.029 -0.173,-0.086c-0.058,-0.087 -0.029,-0.202 0.087,-0.26c4.211,-2.077 7.96,-6.692 9.316,-11.509l17.219,-61.32c2.106,-7.528 8.769,-12.72 13.643,-12.864c2.509,-0.086 4.355,1.211 5.192,3.577l4.874,13.815c0.52,1.472 1.5,2.51 2.856,3c1.673,0.577 3.778,0.288 5.999,-0.808l3.49,-1.759c3.923,-1.99 7.557,-6.346 8.999,-10.845c2.308,-7.182 8.624,-11.97 13.153,-12.258c2.336,-0.173 4.182,0.836 5.191,2.797l5.394,10.47c0.606,1.183 1.586,1.991 2.827,2.366c1.615,0.461 3.634,0.144 5.711,-0.895l3.98,-2.019c4.211,-2.134 8.018,-6.951 9.259,-11.71l17.248,-66.252c1.932,-7.442 8.711,-12.893 13.556,-13.153c2.481,-0.144 4.356,1.067 5.279,3.346l26.276,66.195c0.548,1.384 1.528,2.365 2.855,2.797c1.644,0.549 3.75,0.26 5.913,-0.836l13.441,-6.807c0.115,-0.057 0.231,-0.029 0.288,0.058c0.058,0.086 0.029,0.202 -0.086,0.26l-13.441,6.806c-2.279,1.154 -4.5,1.471 -6.259,0.866c-1.442,-0.491 -2.51,-1.529 -3.115,-3.029l-26.276,-66.195c-0.837,-2.134 -2.538,-3.201 -4.846,-3.086c-4.701,0.231 -11.278,5.567 -13.152,12.835l-17.249,66.253c-1.298,4.932 -5.076,9.72 -9.46,11.941l-3.98,2.019c-2.193,1.096 -4.327,1.442 -6.058,0.923c-1.355,-0.404 -2.422,-1.269 -3.086,-2.567l-5.393,-10.47c-0.952,-1.846 -2.596,-2.711 -4.76,-2.567c-4.384,0.288 -10.498,4.961 -12.777,11.999c-1.471,4.586 -5.163,9.056 -9.201,11.075l-3.49,1.76c-2.308,1.182 -4.557,1.471 -6.346,0.836c-1.471,-0.519 -2.538,-1.644 -3.115,-3.23l-4.874,-13.816c-0.779,-2.25 -2.423,-3.375 -4.759,-3.317c-4.644,0.115 -11.22,5.307 -13.268,12.575l-17.22,61.321c-1.384,4.903 -5.191,9.605 -9.518,11.739c-0.057,0.029 -0.115,0.029 -0.144,0.029Z" style="fill:#2aedff;fill-rule:nonzero;"/><path d="M81.761,226.556c-0.087,-0 -0.144,-0.029 -0.173,-0.087c-0.058,-0.086 -0.029,-0.202 0.086,-0.259c4.211,-2.077 7.961,-6.692 9.317,-11.508l17.219,-61.321c2.106,-7.528 8.768,-12.72 13.643,-12.864c2.509,-0.087 4.355,1.211 5.191,3.576l4.875,13.816c0.519,1.471 1.5,2.51 2.856,3c1.672,0.577 3.778,0.288 5.97,-0.807l3.49,-1.76c3.923,-1.99 7.557,-6.345 8.999,-10.845c2.307,-7.182 8.624,-11.97 13.152,-12.258c2.337,-0.173 4.183,0.836 5.192,2.798l5.394,10.47c0.606,1.182 1.586,1.99 2.827,2.365c1.615,0.461 3.634,0.144 5.711,-0.895l3.98,-2.019c4.211,-2.134 8.018,-6.951 9.259,-11.71l17.248,-66.253c1.932,-7.441 8.71,-12.893 13.556,-13.152c2.481,-0.144 4.355,1.067 5.278,3.346l26.276,66.195c0.549,1.384 1.529,2.365 2.856,2.798c1.644,0.548 3.749,0.259 5.913,-0.837l13.556,-6.865c0.115,-0.057 0.231,-0.028 0.289,0.087c0.057,0.086 0.028,0.202 -0.087,0.26l-13.556,6.864c-2.279,1.154 -4.5,1.471 -6.259,0.866c-1.443,-0.491 -2.51,-1.529 -3.115,-3.029l-26.276,-66.195c-0.837,-2.134 -2.51,-3.202 -4.846,-3.086c-4.701,0.23 -11.278,5.566 -13.152,12.835l-17.249,66.253c-1.298,4.932 -5.076,9.72 -9.46,11.941l-3.981,2.019c-2.192,1.096 -4.326,1.442 -6.057,0.923c-1.356,-0.404 -2.422,-1.269 -3.086,-2.567l-5.394,-10.47c-0.952,-1.846 -2.596,-2.712 -4.759,-2.567c-4.384,0.288 -10.498,4.961 -12.777,11.998c-1.471,4.586 -5.163,9.057 -9.201,11.076l-3.49,1.759c-2.308,1.183 -4.558,1.471 -6.346,0.837c-1.471,-0.519 -2.538,-1.644 -3.115,-3.231l-4.874,-13.815c-0.779,-2.25 -2.423,-3.375 -4.76,-3.317c-4.643,0.115 -11.219,5.307 -13.267,12.575l-17.22,61.321c-1.384,4.903 -5.191,9.605 -9.518,11.739l-0.115,-0Z" style="fill:#2aedff;fill-rule:nonzero;"/><path d="M232.378,57.795c-0.029,0 -0.087,0 -0.115,-0.028l-14.595,-7.673c-0.087,-0.057 -0.144,-0.173 -0.087,-0.259c0.058,-0.087 0.203,-0.116 0.289,-0.058l14.595,7.672c0.086,0.058 0.144,0.173 0.086,0.26c-0.029,0.029 -0.086,0.086 -0.173,0.086Z" style="fill:#2aedff;fill-rule:nonzero;"/><path d="M169.703,136.392c-0.029,0 -0.087,0 -0.116,-0.028l-14.768,-7.788c-0.086,-0.058 -0.144,-0.173 -0.086,-0.259c0.058,-0.087 0.202,-0.116 0.288,-0.058l14.768,7.788c0.087,0.057 0.144,0.173 0.087,0.259c-0.029,0.029 -0.087,0.086 -0.173,0.086Z" style="fill:#2aedff;fill-rule:nonzero;"/><path d="M124.909,141.729c-0.028,0 -0.086,0 -0.115,-0.029l-15.403,-8.076c-0.115,-0.057 -0.144,-0.173 -0.086,-0.26c0.058,-0.086 0.202,-0.115 0.289,-0.057l15.402,8.076c0.115,0.058 0.144,0.173 0.086,0.259c-0.029,0.029 -0.115,0.087 -0.173,0.087Z" style="fill:#2aedff;fill-rule:nonzero;"/><path d="M67.28,218.942c-0.086,0 -0.144,-0.029 -0.173,-0.086c-0.058,-0.087 -0.029,-0.202 0.087,-0.26c4.211,-2.077 7.96,-6.692 9.316,-11.509l17.219,-61.32c2.106,-7.528 8.769,-12.72 13.643,-12.864c2.509,-0.086 4.355,1.211 5.192,3.577l4.874,13.815c0.52,1.472 1.5,2.51 2.856,3c1.673,0.577 3.778,0.288 5.999,-0.808l3.49,-1.759c3.923,-1.99 7.557,-6.346 8.999,-10.845c2.308,-7.182 8.624,-11.97 13.153,-12.258c2.336,-0.173 4.182,0.836 5.191,2.797l5.394,10.47c0.606,1.183 1.586,1.991 2.827,2.366c1.615,0.461 3.634,0.144 5.711,-0.895l3.98,-2.019c4.211,-2.134 8.018,-6.951 9.259,-11.71l17.248,-66.252c1.932,-7.442 8.711,-12.893 13.556,-13.153c2.481,-0.144 4.356,1.067 5.279,3.346l26.276,66.195c0.548,1.384 1.528,2.365 2.855,2.797c1.644,0.549 3.75,0.26 5.913,-0.836l13.441,-6.807c0.115,-0.057 0.231,-0.029 0.288,0.058c0.058,0.086 0.029,0.202 -0.086,0.26l-13.441,6.806c-2.279,1.154 -4.5,1.471 -6.259,0.866c-1.442,-0.491 -2.51,-1.529 -3.115,-3.029l-26.276,-66.195c-0.837,-2.134 -2.538,-3.201 -4.846,-3.086c-4.701,0.231 -11.278,5.567 -13.152,12.835l-17.249,66.253c-1.298,4.932 -5.076,9.72 -9.46,11.941l-3.98,2.019c-2.193,1.096 -4.327,1.442 -6.058,0.923c-1.355,-0.404 -2.422,-1.269 -3.086,-2.567l-5.393,-10.47c-0.952,-1.846 -2.596,-2.711 -4.76,-2.567c-4.384,0.288 -10.498,4.961 -12.777,11.999c-1.471,4.586 -5.163,9.056 -9.201,11.075l-3.49,1.76c-2.308,1.182 -4.557,1.471 -6.346,0.836c-1.471,-0.519 -2.538,-1.644 -3.115,-3.23l-4.874,-13.816c-0.779,-2.25 -2.423,-3.375 -4.759,-3.317c-4.644,0.115 -11.22,5.307 -13.268,12.575l-17.22,61.321c-1.384,4.903 -5.191,9.605 -9.518,11.739c-0.057,0.029 -0.115,0.029 -0.144,0.029Z" style="fill:#2aedff;fill-rule:nonzero;"/><path d="M81.761,226.556c-0.087,-0 -0.144,-0.029 -0.173,-0.087c-0.058,-0.086 -0.029,-0.202 0.086,-0.259c4.211,-2.077 7.961,-6.692 9.317,-11.508l17.219,-61.321c2.106,-7.528 8.768,-12.72 13.643,-12.864c2.509,-0.087 4.355,1.211 5.191,3.576l4.875,13.816c0.519,1.471 1.5,2.51 2.856,3c1.672,0.577 3.778,0.288 5.97,-0.807l3.49,-1.76c3.923,-1.99 7.557,-6.345 8.999,-10.845c2.307,-7.182 8.624,-11.97 13.152,-12.258c2.337,-0.173 4.183,0.836 5.192,2.798l5.394,10.47c0.606,1.182 1.586,1.99 2.827,2.365c1.615,0.461 3.634,0.144 5.711,-0.895l3.98,-2.019c4.211,-2.134 8.018,-6.951 9.259,-11.71l17.248,-66.253c1.932,-7.441 8.71,-12.893 13.556,-13.152c2.481,-0.144 4.355,1.067 5.278,3.346l26.276,66.195c0.549,1.384 1.529,2.365 2.856,2.798c1.644,0.548 3.749,0.259 5.913,-0.837l13.556,-6.865c0.115,-0.057 0.231,-0.028 0.289,0.087c0.057,0.086 0.028,0.202 -0.087,0.26l-13.556,6.864c-2.279,1.154 -4.5,1.471 -6.259,0.866c-1.443,-0.491 -2.51,-1.529 -3.115,-3.029l-26.276,-66.195c-0.837,-2.134 -2.51,-3.202 -4.846,-3.086c-4.701,0.23 -11.278,5.566 -13.152,12.835l-17.249,66.253c-1.298,4.932 -5.076,9.72 -9.46,11.941l-3.981,2.019c-2.192,1.096 -4.326,1.442 -6.057,0.923c-1.356,-0.404 -2.422,-1.269 -3.086,-2.567l-5.394,-10.47c-0.952,-1.846 -2.596,-2.712 -4.759,-2.567c-4.384,0.288 -10.498,4.961 -12.777,11.998c-1.471,4.586 -5.163,9.057 -9.201,11.076l-3.49,1.759c-2.308,1.183 -4.558,1.471 -6.346,0.837c-1.471,-0.519 -2.538,-1.644 -3.115,-3.231l-4.874,-13.815c-0.779,-2.25 -2.423,-3.375 -4.76,-3.317c-4.643,0.115 -11.219,5.307 -13.267,12.575l-17.22,61.321c-1.384,4.903 -5.191,9.605 -9.518,11.739l-0.115,-0Z" style="fill:#2aedff;fill-rule:nonzero;"/><path d="M268.925,114.041l-13.441,6.807c-4.124,2.077 -7.758,1.269 -9.057,-2.048l-26.276,-66.195c-2.999,-7.557 -15.661,-0.836 -18.401,9.778l-17.249,66.253c-1.269,4.846 -5.076,9.662 -9.345,11.826l-3.98,2.019c-3.865,1.961 -7.355,1.355 -8.826,-1.529l-5.394,-10.47c-3.346,-6.49 -14.739,-0.49 -17.94,9.431c-1.471,4.587 -5.106,8.942 -9.086,10.961l-3.49,1.759c-4.211,2.135 -7.932,1.212 -9.143,-2.278l-4.875,-13.816c-2.74,-7.788 -15.431,-1.413 -18.431,9.258l-17.219,61.321c-1.356,4.817 -5.163,9.518 -9.431,11.624l201.584,-104.701Z" style="fill:url(#_Linear8);fill-rule:nonzero;"/><path d="M283.661,121.337l-13.7,6.951c-4.125,2.077 -7.759,1.269 -9.057,-2.048l-26.276,-66.195c-3,-7.557 -15.662,-0.836 -18.402,9.778l-17.248,66.253c-1.269,4.846 -5.077,9.662 -9.345,11.826l-3.981,2.019c-3.865,1.961 -7.355,1.355 -8.826,-1.529l-5.393,-10.47c-3.346,-6.49 -14.739,-0.49 -17.941,9.431c-1.471,4.587 -5.105,8.942 -9.085,10.961l-3.491,1.759c-4.21,2.135 -7.931,1.212 -9.143,-2.278l-4.874,-13.816c-2.74,-7.788 -15.431,-1.413 -18.431,9.258l-17.219,61.321c-1.356,4.817 -5.163,9.518 -9.432,11.624l201.844,-104.845Z" style="fill:url(#_Linear9);fill-rule:nonzero;"/><path d="M129.754,130.163c2.134,-0 3.865,-1.55 3.865,-3.461c-0,-1.912 -1.731,-3.462 -3.865,-3.462c-2.135,0 -3.865,1.55 -3.865,3.462c-0,1.911 1.73,3.461 3.865,3.461Z" style="fill:#2aedff;fill-opacity:0.4;fill-rule:nonzero;"/><path d="M128.083,126.704c0,0.836 0.721,1.5 1.673,1.5c0.923,-0 1.673,-0.664 1.702,-1.5c-0,-0.837 -0.721,-1.5 -1.673,-1.5c-0.923,0 -1.673,0.663 -1.702,1.5Z" style="fill:#2aedff;fill-rule:nonzero;"/><path d="M185.018,66.794c-0.029,1.903 1.702,3.461 3.836,3.49c2.134,0.029 3.865,-1.529 3.894,-3.432c0.028,-1.904 -1.702,-3.461 -3.837,-3.49c-2.134,-0.029 -3.865,1.5 -3.893,3.432Z" style="fill:#2aedff;fill-opacity:0.4;fill-rule:nonzero;"/><path d="M187.213,66.797c-0,0.836 0.721,1.5 1.673,1.5c0.923,-0 1.673,-0.664 1.701,-1.5c0,-0.837 -0.721,-1.5 -1.673,-1.5c-0.923,-0 -1.701,0.663 -1.701,1.5Z" style="fill:#2aedff;fill-rule:nonzero;"/><path d="M74.752,138.354c-0.029,1.904 1.702,3.461 3.836,3.49c2.134,0.029 3.865,-1.529 3.894,-3.432c0.029,-1.904 -1.702,-3.461 -3.836,-3.49c-2.135,-0.029 -3.894,1.528 -3.894,3.432Z" style="fill:#2aedff;fill-opacity:0.4;fill-rule:nonzero;"/><path d="M76.914,138.354c-0,0.837 0.721,1.5 1.673,1.5c0.923,0 1.673,-0.663 1.702,-1.5c-0,-0.837 -0.721,-1.5 -1.673,-1.5c-0.923,0.029 -1.673,0.693 -1.702,1.5Z" style="fill:#2aedff;fill-rule:nonzero;"/><g opacity="0.8"><g opacity="0.8"><g opacity="0.8"><rect x="317.339" y="0" width="1.386" height="2.079" style="fill:none;"/></g></g><rect x="268.194" y="0.695" width="50.533" height="113.527" style="fill:none;"/><g opacity="0.8"><g opacity="0.8"><rect x="267.499" y="112.834" width="2.769" height="2.077" style="fill:none;"/></g></g></g><g opacity="0.8"><g opacity="0.8"><g opacity="0.8"><rect x="331.877" y="7.615" width="1.384" height="2.769" style="fill:none;"/></g></g><rect x="282.73" y="8.31" width="50.533" height="114.219" style="fill:none;"/><g opacity="0.8"><g opacity="0.8"><rect x="282.036" y="120.449" width="2.769" height="2.769" style="fill:none;"/></g></g></g><path d="M279.711,121.51c-0.029,1.903 1.701,3.461 3.836,3.49c2.134,0.028 3.865,-1.529 3.894,-3.433c0.029,-1.903 -1.702,-3.461 -3.837,-3.49c-2.134,-0.029 -3.893,1.5 -3.893,3.433Z" style="fill:#2aedff;fill-opacity:0.4;fill-rule:nonzero;"/><path d="M281.874,121.51c-0,0.836 0.721,1.5 1.673,1.5c0.923,-0 1.673,-0.664 1.702,-1.5c-0,-0.837 -0.721,-1.5 -1.673,-1.5c-0.923,-0 -1.673,0.663 -1.702,1.5Z" style="fill:#2aedff;fill-rule:nonzero;"/><path d="M265.029,113.953c-0.029,1.904 1.702,3.461 3.836,3.49c2.135,0.029 3.865,-1.529 3.894,-3.432c0.029,-1.904 -1.702,-3.461 -3.836,-3.49c-2.134,-0 -3.894,1.528 -3.894,3.432Z" style="fill:#2aedff;fill-opacity:0.4;fill-rule:nonzero;"/><path d="M267.195,113.985c-0,0.836 0.721,1.499 1.672,1.499c0.924,0 1.673,-0.663 1.702,-1.499c-0,-0.837 -0.721,-1.5 -1.673,-1.5c-0.923,-0 -1.673,0.663 -1.701,1.5Z" style="fill:#2aedff;fill-rule:nonzero;"/><defs><radialGradient id="_Radial1" cx="0" cy="0" r="1" gradientUnits="userSpaceOnUse" gradientTransform="matrix(-256.736,-1.96586e-13,1.96586e-13,-256.736,387.911,199.842)"><stop offset="0" style="stop-color:#2aedff;stop-opacity:0.5"/><stop offset="0.03" style="stop-color:#27cffb;stop-opacity:0.5"/><stop offset="0.08" style="stop-color:#24abf6;stop-opacity:0.5"/><stop offset="0.14" style="stop-color:#218bf2;stop-opacity:0.5"/><stop offset="0.2" style="stop-color:#1e6fef;stop-opacity:0.5"/><stop offset="0.27" style="stop-color:#1c59ec;stop-opacity:0.5"/><stop offset="0.36" style="stop-color:#1b48ea;stop-opacity:0.5"/><stop offset="0.46" style="stop-color:#1a3de8;stop-opacity:0.5"/><stop offset="0.6" style="stop-color:#1936e7;stop-opacity:0.5"/><stop offset="1" style="stop-color:#1934e7;stop-opacity:0.5"/></radialGradient><linearGradient id="_Linear2" x1="0" y1="0" x2="1" y2="0" gradientUnits="userSpaceOnUse" gradientTransform="matrix(-326.173,3.99447e-14,-3.99447e-14,-326.173,338.849,167.929)"><stop offset="0" style="stop-color:#172cd8;stop-opacity:0.7"/><stop offset="0.1" style="stop-color:#1835da;stop-opacity:0.7"/><stop offset="0.27" style="stop-color:#1a4cde;stop-opacity:0.7"/><stop offset="0.48" style="stop-color:#1e72e6;stop-opacity:0.7"/><stop offset="0.72" style="stop-color:#23a6f1;stop-opacity:0.7"/><stop offset="0.98" style="stop-color:#2ae9fe;stop-opacity:0.7"/><stop offset="1" style="stop-color:#2aedff;stop-opacity:0.7"/></linearGradient><radialGradient id="_Radial3" cx="0" cy="0" r="1" gradientUnits="userSpaceOnUse" gradientTransform="matrix(-131.415,-1.00627e-13,1.00627e-13,-131.415,342.086,198.942)"><stop offset="0" style="stop-color:#2aedff;stop-opacity:0.5"/><stop offset="0.02" style="stop-color:#2ae9fe;stop-opacity:0.5"/><stop offset="0.28" style="stop-color:#23a6f1;stop-opacity:0.5"/><stop offset="0.52" style="stop-color:#1e72e6;stop-opacity:0.5"/><stop offset="0.73" style="stop-color:#1a4cde;stop-opacity:0.5"/><stop offset="0.9" style="stop-color:#1835da;stop-opacity:0.5"/><stop offset="1" style="stop-color:#172cd8;stop-opacity:0.5"/></radialGradient><radialGradient id="_Radial4" cx="0" cy="0" r="1" gradientUnits="userSpaceOnUse" gradientTransform="matrix(-270.985,-2.07497e-13,2.07497e-13,-270.985,334.73,168.68)"><stop offset="0" style="stop-color:#2aedff;stop-opacity:0.7"/><stop offset="0.02" style="stop-color:#2ae9fe;stop-opacity:0.7"/><stop offset="0.28" style="stop-color:#23a6f1;stop-opacity:0.7"/><stop offset="0.52" style="stop-color:#1e72e6;stop-opacity:0.7"/><stop offset="0.73" style="stop-color:#1a4cde;stop-opacity:0.7"/><stop offset="0.9" style="stop-color:#1835da;stop-opacity:0.7"/><stop offset="1" style="stop-color:#172cd8;stop-opacity:0.7"/></radialGradient><radialGradient id="_Radial5" cx="0" cy="0" r="1" gradientUnits="userSpaceOnUse" gradientTransform="matrix(-221.766,-1.69809e-13,1.69809e-13,-221.766,313.233,181.694)"><stop offset="0" style="stop-color:#2aedff;stop-opacity:0.5"/><stop offset="0.02" style="stop-color:#2ae9fe;stop-opacity:0.5"/><stop offset="0.28" style="stop-color:#23a6f1;stop-opacity:0.5"/><stop offset="0.52" style="stop-color:#1e72e6;stop-opacity:0.5"/><stop offset="0.73" style="stop-color:#1a4cde;stop-opacity:0.5"/><stop offset="0.9" style="stop-color:#1835da;stop-opacity:0.5"/><stop offset="1" style="stop-color:#172cd8;stop-opacity:0.5"/></radialGradient><radialGradient id="_Radial6" cx="0" cy="0" r="1" gradientUnits="userSpaceOnUse" gradientTransform="matrix(-313.472,-2.4003e-13,2.4003e-13,-313.472,342.083,182.826)"><stop offset="0" style="stop-color:#2aedff;stop-opacity:0.5"/><stop offset="0.02" style="stop-color:#2ae9fe;stop-opacity:0.5"/><stop offset="0.28" style="stop-color:#23a6f1;stop-opacity:0.5"/><stop offset="0.52" style="stop-color:#1e72e6;stop-opacity:0.5"/><stop offset="0.73" style="stop-color:#1a4cde;stop-opacity:0.5"/><stop offset="0.9" style="stop-color:#1835da;stop-opacity:0.5"/><stop offset="1" style="stop-color:#172cd8;stop-opacity:0.5"/></radialGradient><radialGradient id="_Radial7" cx="0" cy="0" r="1" gradientUnits="userSpaceOnUse" gradientTransform="matrix(-397.956,-3.04721e-13,3.04721e-13,-397.956,341.905,181.693)"><stop offset="0" style="stop-color:#2aedff;stop-opacity:0.9"/><stop offset="0.02" style="stop-color:#2ae9fe;stop-opacity:0.9"/><stop offset="0.28" style="stop-color:#23a6f1;stop-opacity:0.9"/><stop offset="0.52" style="stop-color:#1e72e6;stop-opacity:0.9"/><stop offset="0.73" style="stop-color:#1a4cde;stop-opacity:0.9"/><stop offset="0.9" style="stop-color:#1835da;stop-opacity:0.9"/><stop offset="1" style="stop-color:#172cd8;stop-opacity:0.9"/></radialGradient><linearGradient id="_Linear8" x1="0" y1="0" x2="1" y2="0" gradientUnits="userSpaceOnUse" gradientTransform="matrix(90.5481,158.969,-158.969,90.5481,124.166,89.2634)"><stop offset="0" style="stop-color:#2aedff;stop-opacity:0.5"/><stop offset="0.06" style="stop-color:#27d2f8;stop-opacity:0.5"/><stop offset="0.18" style="stop-color:#23a3eb;stop-opacity:0.5"/><stop offset="0.31" style="stop-color:#1f7be1;stop-opacity:0.5"/><stop offset="0.43" style="stop-color:#1c5bd8;stop-opacity:0.5"/><stop offset="0.56" style="stop-color:#1941d2;stop-opacity:0.5"/><stop offset="0.7" style="stop-color:#172fcd;stop-opacity:0.5"/><stop offset="0.84" style="stop-color:#1624ca;stop-opacity:0.5"/><stop offset="1" style="stop-color:#1621c9;stop-opacity:0.5"/></linearGradient><linearGradient id="_Linear9" x1="0" y1="0" x2="1" y2="0" gradientUnits="userSpaceOnUse" gradientTransform="matrix(66.5797,99.7303,-99.7303,66.5797,143.876,115.59)"><stop offset="0" style="stop-color:#2aedff;stop-opacity:0.5"/><stop offset="0.06" style="stop-color:#27d2f8;stop-opacity:0.5"/><stop offset="0.18" style="stop-color:#23a3eb;stop-opacity:0.5"/><stop offset="0.31" style="stop-color:#1f7be1;stop-opacity:0.5"/><stop offset="0.43" style="stop-color:#1c5bd8;stop-opacity:0.5"/><stop offset="0.56" style="stop-color:#1941d2;stop-opacity:0.5"/><stop offset="0.7" style="stop-color:#172fcd;stop-opacity:0.5"/><stop offset="0.84" style="stop-color:#1624ca;stop-opacity:0.5"/><stop offset="1" style="stop-color:#1621c9;stop-opacity:0.5"/></linearGradient></defs></svg>