<?xml version="1.0" encoding="UTF-8" standalone="no"?><!DOCTYPE svg PUBLIC "-//W3C//DTD SVG 1.1//EN" "http://www.w3.org/Graphics/SVG/1.1/DTD/svg11.dtd"><svg width="271px" height="294px" version="1.1" xmlns="http://www.w3.org/2000/svg" xmlns:xlink="http://www.w3.org/1999/xlink" xml:space="preserve" xmlns:serif="http://www.serif.com/" style="fill-rule:evenodd;clip-rule:evenodd;stroke-linejoin:round;stroke-miterlimit:2;"><path d="M124.061,146.487c-0.709,0 -1.464,-0.236 -2.268,-0.685l-14.455,-8.337c-0.283,-0.166 -0.377,-0.52 -0.212,-0.803c0.165,-0.284 0.519,-0.378 0.803,-0.213l14.455,8.338c0.992,0.566 1.866,0.685 2.503,0.307c0.638,-0.378 0.993,-1.205 0.993,-2.339l-0,-3.472c-0,-1.582 0.567,-2.763 1.582,-3.354c1.016,-0.59 2.338,-0.472 3.685,0.307l3.023,1.748c0.283,0.166 0.378,0.52 0.212,0.803c-0.165,0.284 -0.519,0.378 -0.803,0.213l-3.023,-1.748c-0.992,-0.567 -1.866,-0.685 -2.504,-0.307c-0.637,0.378 -0.991,1.205 -0.991,2.338l-0,3.472c-0,1.583 -0.567,2.764 -1.583,3.354c-0.401,0.26 -0.897,0.378 -1.417,0.378Z" style="fill:#2aedff;fill-rule:nonzero;"/><path d="M118.439,149.723c-0.709,0 -1.464,-0.236 -2.267,-0.685l-14.455,-8.338c-0.284,-0.165 -0.379,-0.519 -0.213,-0.803c0.165,-0.283 0.519,-0.378 0.803,-0.212l14.455,8.337c0.992,0.567 1.866,0.685 2.504,0.307c0.637,-0.377 0.991,-1.204 0.991,-2.338l0,-3.496c0,-1.582 0.567,-2.763 1.583,-3.353c1.016,-0.591 2.338,-0.473 3.685,0.306l3.023,1.748c0.284,0.166 0.378,0.52 0.213,0.803c-0.166,0.284 -0.52,0.378 -0.804,0.213l-3.023,-1.748c-0.992,-0.567 -1.866,-0.685 -2.503,-0.307c-0.638,0.378 -0.992,1.205 -0.992,2.338l-0,3.496c-0,1.583 -0.567,2.764 -1.583,3.354c-0.401,0.26 -0.897,0.378 -1.417,0.378Z" style="fill:#2aedff;fill-rule:nonzero;"/><path d="M112.842,152.959c-0.708,-0 -1.464,-0.237 -2.267,-0.685l-14.455,-8.338c-0.283,-0.165 -0.378,-0.519 -0.213,-0.803c0.166,-0.283 0.52,-0.378 0.804,-0.213l14.455,8.338c0.992,0.567 1.866,0.685 2.503,0.307c0.638,-0.378 0.992,-1.204 0.992,-2.338l0,-3.472c0,-1.583 0.567,-2.764 1.583,-3.354c1.015,-0.591 2.338,-0.473 3.684,0.307l3.024,1.748c0.283,0.165 0.378,0.519 0.212,0.803c-0.165,0.283 -0.519,0.378 -0.803,0.212l-3.023,-1.748c-0.992,-0.566 -1.866,-0.685 -2.504,-0.306c-0.637,0.377 -0.992,1.204 -0.992,2.338l0,3.472c0,1.582 -0.567,2.763 -1.582,3.354c-0.425,0.26 -0.898,0.378 -1.418,0.378Z" style="fill:#2aedff;fill-rule:nonzero;"/><path d="M107.219,156.195c-0.708,-0 -1.464,-0.236 -2.267,-0.685l-14.455,-8.338c-0.284,-0.165 -0.378,-0.52 -0.213,-0.803c0.165,-0.283 0.52,-0.378 0.803,-0.212l14.455,8.337c0.992,0.567 1.866,0.685 2.504,0.307c0.638,-0.378 0.992,-1.204 0.992,-2.338l-0,-3.496c-0,-1.582 0.567,-2.763 1.582,-3.354c1.016,-0.59 2.339,-0.472 3.685,0.307l3.023,1.748c0.284,0.165 0.378,0.52 0.213,0.803c-0.165,0.284 -0.52,0.378 -0.803,0.213l-3.024,-1.748c-0.992,-0.567 -1.866,-0.685 -2.503,-0.307c-0.638,0.378 -0.992,1.204 -0.992,2.338l-0,3.496c-0,1.582 -0.567,2.764 -1.583,3.354c-0.425,0.26 -0.897,0.378 -1.417,0.378Z" style="fill:#2aedff;fill-rule:nonzero;"/><path d="M101.598,159.431c-0.708,-0 -1.464,-0.237 -2.267,-0.685l-14.455,-8.338c-0.283,-0.165 -0.378,-0.52 -0.213,-0.803c0.166,-0.283 0.52,-0.378 0.804,-0.213l14.455,8.338c0.992,0.567 1.865,0.685 2.503,0.307c0.638,-0.378 0.992,-1.205 0.992,-2.338l0,-3.472c0,-1.583 0.567,-2.764 1.583,-3.354c1.015,-0.591 2.338,-0.473 3.684,0.307l3.023,1.748c0.284,0.165 0.379,0.519 0.213,0.803c-0.165,0.283 -0.519,0.378 -0.803,0.212l-3.023,-1.747c-0.992,-0.567 -1.866,-0.685 -2.504,-0.308c-0.638,0.378 -0.992,1.205 -0.992,2.339l0,3.472c0,1.582 -0.567,2.763 -1.582,3.354c-0.425,0.236 -0.898,0.378 -1.418,0.378Z" style="fill:#2aedff;fill-rule:nonzero;"/><path d="M95.977,162.666c-0.709,0 -1.465,-0.236 -2.268,-0.685l-14.455,-8.337c-0.283,-0.166 -0.378,-0.52 -0.212,-0.803c0.165,-0.284 0.519,-0.378 0.803,-0.213l14.455,8.338c0.992,0.566 1.866,0.685 2.503,0.307c0.638,-0.378 0.992,-1.205 0.992,-2.339l0,-3.495c0,-1.583 0.567,-2.764 1.583,-3.354c1.015,-0.591 2.338,-0.473 3.684,0.307l3.024,1.748c0.283,0.165 0.378,0.519 0.212,0.803c-0.165,0.283 -0.519,0.378 -0.803,0.212l-3.023,-1.748c-0.992,-0.566 -1.866,-0.685 -2.504,-0.307c-0.637,0.378 -0.992,1.205 -0.992,2.339l0,3.495c0,1.583 -0.567,2.764 -1.582,3.354c-0.425,0.236 -0.898,0.378 -1.417,0.378Z" style="fill:#2aedff;fill-rule:nonzero;"/><path d="M90.356,165.878c-0.709,0 -1.464,-0.236 -2.268,-0.685l-14.455,-8.337c-0.283,-0.165 -0.377,-0.52 -0.212,-0.803c0.165,-0.284 0.52,-0.378 0.803,-0.213l14.455,8.338c0.992,0.567 1.866,0.685 2.503,0.307c0.638,-0.378 0.993,-1.205 0.993,-2.338l-0,-3.472c-0,-1.583 0.567,-2.764 1.582,-3.354c1.016,-0.591 2.338,-0.473 3.685,0.306l3.023,1.749c0.283,0.165 0.378,0.519 0.212,0.802c-0.165,0.284 -0.519,0.379 -0.802,0.213l-3.024,-1.748c-0.992,-0.566 -1.866,-0.685 -2.504,-0.307c-0.637,0.378 -0.991,1.205 -0.991,2.339l-0,3.472c-0,1.582 -0.567,2.763 -1.583,3.354c-0.425,0.259 -0.897,0.377 -1.417,0.377Z" style="fill:#2aedff;fill-rule:nonzero;"/><path d="M84.734,169.114c-0.709,0 -1.464,-0.236 -2.267,-0.685l-14.455,-8.337c-0.284,-0.165 -0.378,-0.52 -0.213,-0.803c0.165,-0.284 0.519,-0.378 0.803,-0.213l14.455,8.338c0.992,0.567 1.866,0.685 2.504,0.307c0.637,-0.378 0.992,-1.205 0.992,-2.339l-0,-3.495c-0,-1.583 0.567,-2.764 1.582,-3.354c1.016,-0.591 2.338,-0.472 3.685,0.307l3.023,1.748c0.284,0.165 0.378,0.519 0.213,0.803c-0.166,0.283 -0.52,0.378 -0.804,0.212l-3.023,-1.747c-0.992,-0.567 -1.866,-0.685 -2.503,-0.307c-0.638,0.378 -0.992,1.204 -0.992,2.338l-0,3.495c-0,1.583 -0.567,2.764 -1.583,3.355c-0.401,0.259 -0.897,0.377 -1.417,0.377Z" style="fill:#2aedff;fill-rule:nonzero;"/><path d="M79.113,172.35c-0.708,0 -1.464,-0.236 -2.267,-0.685l-14.455,-8.337c-0.284,-0.166 -0.378,-0.52 -0.213,-0.803c0.166,-0.284 0.52,-0.378 0.804,-0.213l14.455,8.338c0.991,0.567 1.865,0.685 2.503,0.307c0.638,-0.378 0.992,-1.205 0.992,-2.339l0,-3.472c0,-1.582 0.567,-2.763 1.583,-3.354c1.015,-0.59 2.338,-0.472 3.684,0.307l3.023,1.748c0.284,0.165 0.378,0.52 0.213,0.803c-0.165,0.284 -0.519,0.378 -0.803,0.213l-3.023,-1.748c-0.992,-0.567 -1.866,-0.685 -2.504,-0.307c-0.638,0.378 -0.992,1.204 -0.992,2.338l0,3.472c0,1.583 -0.567,2.764 -1.582,3.354c-0.402,0.26 -0.898,0.378 -1.418,0.378Z" style="fill:#2aedff;fill-rule:nonzero;"/><path d="M73.493,175.587c-0.709,-0 -1.465,-0.237 -2.268,-0.685l-14.455,-8.338c-0.283,-0.166 -0.378,-0.52 -0.212,-0.803c0.165,-0.284 0.519,-0.378 0.803,-0.213l14.455,8.338c0.992,0.567 1.866,0.685 2.504,0.307c0.637,-0.378 0.992,-1.205 0.992,-2.338l-0,-3.496c-0,-1.582 0.566,-2.764 1.582,-3.354c1.016,-0.591 2.338,-0.473 3.685,0.307l3.023,1.748c0.283,0.165 0.378,0.519 0.212,0.803c-0.165,0.283 -0.519,0.378 -0.802,0.213l-3.024,-1.748c-0.992,-0.567 -1.866,-0.685 -2.503,-0.307c-0.638,0.377 -0.993,1.204 -0.993,2.338l0,3.496c0,1.582 -0.566,2.763 -1.582,3.353c-0.402,0.26 -0.898,0.379 -1.417,0.379Z" style="fill:#2aedff;fill-rule:nonzero;"/><path d="M67.871,178.822c-0.709,-0 -1.465,-0.236 -2.268,-0.685l-14.455,-8.338c-0.283,-0.165 -0.378,-0.519 -0.212,-0.803c0.165,-0.283 0.519,-0.378 0.803,-0.212l14.455,8.337c0.992,0.567 1.866,0.685 2.503,0.307c0.638,-0.378 0.992,-1.204 0.992,-2.338l0,-3.472c0,-1.582 0.567,-2.763 1.583,-3.354c1.015,-0.591 2.338,-0.472 3.685,0.307l3.023,1.748c0.283,0.165 0.378,0.519 0.212,0.803c-0.165,0.283 -0.519,0.378 -0.803,0.213l-3.023,-1.748c-0.992,-0.567 -1.866,-0.685 -2.504,-0.307c-0.637,0.377 -0.992,1.204 -0.992,2.338l0,3.472c0,1.582 -0.567,2.763 -1.582,3.354c-0.402,0.26 -0.898,0.378 -1.417,0.378Z" style="fill:#2aedff;fill-rule:nonzero;"/><path d="M62.247,182.058c-0.708,-0 -1.464,-0.236 -2.267,-0.685l-14.455,-8.338c-0.284,-0.165 -0.378,-0.519 -0.213,-0.803c0.165,-0.283 0.52,-0.378 0.803,-0.212l14.455,8.337c0.992,0.567 1.866,0.685 2.504,0.307c0.638,-0.377 0.992,-1.204 0.992,-2.338l-0,-3.496c-0,-1.582 0.567,-2.763 1.582,-3.353c1.016,-0.591 2.339,-0.473 3.685,0.306l3.023,1.748c0.284,0.166 0.378,0.52 0.213,0.803c-0.166,0.284 -0.52,0.378 -0.803,0.213l-3.024,-1.748c-0.991,-0.567 -1.865,-0.685 -2.503,-0.307c-0.638,0.378 -0.992,1.205 -0.992,2.338l-0,3.496c-0,1.582 -0.567,2.763 -1.583,3.354c-0.401,0.236 -0.897,0.378 -1.417,0.378Z" style="fill:#2aedff;fill-rule:nonzero;"/><path d="M56.651,185.294c-0.709,-0 -1.464,-0.237 -2.267,-0.685l-14.455,-8.338c-0.284,-0.165 -0.378,-0.519 -0.213,-0.803c0.166,-0.283 0.52,-0.378 0.803,-0.212l14.455,8.337c0.992,0.567 1.866,0.685 2.504,0.307c0.638,-0.378 0.992,-1.204 0.992,-2.338l-0,-3.472c-0,-1.583 0.567,-2.764 1.582,-3.354c1.016,-0.591 2.339,-0.473 3.685,0.307l3.023,1.748c0.284,0.165 0.378,0.519 0.213,0.803c-0.166,0.283 -0.52,0.378 -0.803,0.212l-3.023,-1.748c-0.993,-0.566 -1.866,-0.684 -2.504,-0.306c-0.638,0.377 -0.992,1.204 -0.992,2.338l-0,3.472c-0,1.582 -0.567,2.763 -1.583,3.354c-0.425,0.236 -0.897,0.378 -1.417,0.378Z" style="fill:#2aedff;fill-rule:nonzero;"/><path d="M51.029,188.506c-0.709,-0 -1.464,-0.236 -2.267,-0.685l-14.455,-8.338c-0.284,-0.165 -0.378,-0.519 -0.213,-0.803c0.165,-0.283 0.52,-0.378 0.803,-0.212l14.455,8.338c0.992,0.566 1.866,0.684 2.504,0.306c0.637,-0.377 0.992,-1.204 0.992,-2.338l-0,-3.472c-0,-1.582 0.567,-2.763 1.582,-3.354c1.016,-0.59 2.338,-0.472 3.685,0.307l3.023,1.748c0.284,0.165 0.378,0.52 0.213,0.803c-0.166,0.284 -0.52,0.378 -0.804,0.213l-3.023,-1.748c-0.992,-0.567 -1.866,-0.685 -2.503,-0.307c-0.638,0.378 -0.992,1.204 -0.992,2.338l-0,3.472c-0,1.583 -0.567,2.764 -1.583,3.354c-0.425,0.26 -0.897,0.378 -1.417,0.378Z" style="fill:#2aedff;fill-rule:nonzero;"/><path d="M45.408,191.742c-0.708,-0 -1.464,-0.236 -2.267,-0.685l-14.455,-8.338c-0.283,-0.165 -0.378,-0.519 -0.213,-0.803c0.166,-0.283 0.52,-0.378 0.804,-0.212l14.455,8.337c0.991,0.567 1.865,0.685 2.503,0.307c0.638,-0.378 0.992,-1.204 0.992,-2.338l0,-3.472c0,-1.582 0.567,-2.763 1.583,-3.354c1.015,-0.591 2.338,-0.472 3.684,0.307l3.023,1.748c0.284,0.165 0.379,0.519 0.213,0.803c-0.165,0.283 -0.519,0.378 -0.803,0.213l-3.023,-1.748c-0.992,-0.567 -1.866,-0.685 -2.504,-0.307c-0.638,0.377 -0.992,1.204 -0.992,2.338l0,3.472c0,1.582 -0.567,2.763 -1.582,3.354c-0.425,0.26 -0.898,0.378 -1.418,0.378Z" style="fill:#2aedff;fill-rule:nonzero;"/><path d="M39.788,194.978c-0.709,-0 -1.465,-0.236 -2.268,-0.685l-14.455,-8.338c-0.283,-0.165 -0.378,-0.519 -0.212,-0.803c0.165,-0.283 0.519,-0.378 0.803,-0.213l14.455,8.338c0.992,0.567 1.866,0.685 2.504,0.307c0.637,-0.378 0.992,-1.204 0.992,-2.338l-0,-3.472c-0,-1.583 0.566,-2.764 1.582,-3.354c1.016,-0.591 2.338,-0.473 3.685,0.307l3.023,1.748c0.283,0.165 0.378,0.519 0.213,0.803c-0.166,0.283 -0.52,0.378 -0.803,0.212l-3.024,-1.748c-0.992,-0.566 -1.866,-0.685 -2.503,-0.306c-0.638,0.377 -0.993,1.204 -0.993,2.338l0,3.472c0,1.582 -0.566,2.763 -1.582,3.354c-0.425,0.26 -0.898,0.378 -1.417,0.378Z" style="fill:#2aedff;fill-rule:nonzero;"/><path d="M34.164,198.213c-0.708,0 -1.464,-0.236 -2.267,-0.685l-14.455,-8.337c-0.283,-0.165 -0.378,-0.52 -0.213,-0.803c0.166,-0.284 0.52,-0.378 0.803,-0.213l14.455,8.338c0.993,0.567 1.866,0.685 2.504,0.307c0.638,-0.378 0.992,-1.205 0.992,-2.338l0,-3.496c0,-1.583 0.567,-2.764 1.583,-3.354c1.015,-0.59 2.338,-0.472 3.684,0.307l3.023,1.748c0.284,0.165 0.379,0.52 0.213,0.803c-0.165,0.283 -0.519,0.378 -0.803,0.212l-3.023,-1.747c-0.992,-0.567 -1.866,-0.685 -2.504,-0.307c-0.638,0.378 -0.992,1.204 -0.992,2.338l0,3.496c0,1.582 -0.567,2.763 -1.582,3.354c-0.425,0.259 -0.898,0.377 -1.418,0.377Z" style="fill:#2aedff;fill-rule:nonzero;"/><path d="M28.542,201.449c-0.708,0 -1.464,-0.236 -2.267,-0.685l-14.455,-8.337c-0.284,-0.165 -0.378,-0.52 -0.213,-0.803c0.166,-0.284 0.52,-0.378 0.803,-0.213l14.455,8.338c0.992,0.567 1.866,0.685 2.504,0.307c0.638,-0.378 0.992,-1.205 0.992,-2.339l-0,-3.472c-0,-1.582 0.567,-2.763 1.582,-3.353c1.016,-0.591 2.339,-0.473 3.685,0.306l3.024,1.748c0.283,0.166 0.377,0.52 0.212,0.803c-0.165,0.284 -0.52,0.378 -0.803,0.213l-3.023,-1.748c-0.992,-0.567 -1.866,-0.685 -2.504,-0.307c-0.638,0.378 -0.992,1.205 -0.992,2.338l-0,3.472c-0,1.583 -0.567,2.764 -1.582,3.355c-0.402,0.259 -0.898,0.377 -1.418,0.377Z" style="fill:#2aedff;fill-rule:nonzero;"/><path d="M22.922,204.685c-0.709,-0 -1.465,-0.236 -2.268,-0.685l-14.455,-8.338c-0.283,-0.165 -0.378,-0.519 -0.212,-0.803c0.165,-0.283 0.519,-0.377 0.803,-0.212l14.455,8.338c0.992,0.567 1.866,0.684 2.503,0.307c0.638,-0.378 0.992,-1.205 0.992,-2.339l0,-3.496c0,-1.582 0.567,-2.763 1.583,-3.353c1.016,-0.591 2.338,-0.473 3.684,0.307l3.024,1.747c0.283,0.166 0.378,0.52 0.212,0.804c-0.165,0.283 -0.519,0.378 -0.803,0.212l-3.023,-1.748c-0.992,-0.567 -1.866,-0.685 -2.504,-0.307c-0.637,0.378 -0.992,1.205 -0.992,2.338l0,3.496c0,1.583 -0.566,2.764 -1.582,3.354c-0.402,0.236 -0.898,0.378 -1.417,0.378Z" style="fill:#2aedff;fill-rule:nonzero;"/><path d="M17.301,207.921c-0.708,0 -1.464,-0.236 -2.267,-0.685l-14.455,-8.338c-0.284,-0.165 -0.378,-0.519 -0.213,-0.802c0.165,-0.284 0.52,-0.379 0.803,-0.213l14.455,8.338c0.992,0.566 1.866,0.685 2.504,0.306c0.638,-0.377 0.992,-1.204 0.992,-2.338l-0,-3.472c-0,-1.582 0.567,-2.763 1.582,-3.354c1.016,-0.59 2.339,-0.472 3.685,0.307l3.023,1.748c0.284,0.165 0.378,0.52 0.213,0.803c-0.166,0.284 -0.52,0.378 -0.803,0.213l-3.024,-1.748c-0.992,-0.567 -1.865,-0.685 -2.503,-0.307c-0.638,0.378 -0.992,1.204 -0.992,2.338l-0,3.472c-0,1.583 -0.567,2.764 -1.583,3.354c-0.401,0.236 -0.897,0.378 -1.417,0.378Z" style="fill:#2aedff;fill-rule:nonzero;"/><path d="M147.088,146.747c-0.519,-0 -1.015,-0.118 -1.441,-0.378c-1.015,-0.591 -1.582,-1.772 -1.582,-3.354l-0,-3.496c-0,-1.133 -0.354,-1.96 -0.992,-2.338c-0.638,-0.378 -1.535,-0.26 -2.504,0.307l-3.023,1.748c-0.283,0.165 -0.638,0.071 -0.803,-0.213c-0.165,-0.283 -0.071,-0.637 0.213,-0.803l3.023,-1.748c1.37,-0.779 2.669,-0.897 3.684,-0.307c1.016,0.591 1.583,1.772 1.583,3.354l0,3.496c0,1.134 0.354,1.96 0.992,2.338c0.638,0.378 1.535,0.26 2.504,-0.307l14.455,-8.338c0.283,-0.165 0.637,-0.07 0.803,0.213c0.165,0.284 0.071,0.638 -0.213,0.803l-14.455,8.338c-0.756,0.472 -1.535,0.685 -2.244,0.685Z" style="fill:#2aedff;fill-rule:nonzero;"/><path d="M152.708,149.983c-0.519,0 -0.991,-0.118 -1.44,-0.378c-1.016,-0.59 -1.583,-1.771 -1.583,-3.354l0,-3.472c0,-1.134 -0.354,-1.96 -0.992,-2.338c-0.637,-0.378 -1.535,-0.26 -2.503,0.307l-3.024,1.748c-0.283,0.165 -0.637,0.071 -0.803,-0.213c-0.165,-0.283 -0.071,-0.638 0.213,-0.803l3.023,-1.748c1.37,-0.779 2.669,-0.897 3.685,-0.307c1.015,0.591 1.582,1.772 1.582,3.354l0,3.472c0,1.134 0.355,1.961 0.992,2.338c0.638,0.378 1.535,0.26 2.504,-0.307l14.455,-8.337c0.283,-0.166 0.638,-0.071 0.803,0.212c0.165,0.284 0.071,0.638 -0.213,0.803l-14.455,8.338c-0.779,0.472 -1.535,0.685 -2.244,0.685Z" style="fill:#2aedff;fill-rule:nonzero;"/><path d="M158.332,153.219c-0.52,-0 -0.992,-0.118 -1.441,-0.378c-1.015,-0.591 -1.582,-1.772 -1.582,-3.354l-0,-3.496c-0,-1.134 -0.355,-1.96 -0.992,-2.338c-0.638,-0.378 -1.535,-0.26 -2.504,0.307l-3.023,1.748c-0.284,0.165 -0.638,0.071 -0.803,-0.213c-0.165,-0.283 -0.071,-0.638 0.212,-0.803l3.023,-1.748c1.37,-0.779 2.67,-0.897 3.685,-0.307c1.016,0.591 1.583,1.772 1.583,3.354l-0,3.496c-0,1.134 0.354,1.96 0.992,2.338c0.637,0.378 1.535,0.26 2.503,-0.307l14.455,-8.337c0.284,-0.166 0.638,-0.071 0.803,0.212c0.166,0.284 0.071,0.638 -0.212,0.803l-14.455,8.338c-0.78,0.472 -1.535,0.685 -2.244,0.685Z" style="fill:#2aedff;fill-rule:nonzero;"/><path d="M163.952,156.454c-0.519,0 -1.015,-0.118 -1.44,-0.377c-1.016,-0.591 -1.583,-1.772 -1.583,-3.355l0,-3.471c0,-1.134 -0.354,-1.961 -0.992,-2.339c-0.637,-0.378 -1.535,-0.26 -2.503,0.307l-3.024,1.748c-0.283,0.165 -0.637,0.071 -0.803,-0.213c-0.165,-0.283 -0.07,-0.637 0.213,-0.802l3.023,-1.748c1.37,-0.78 2.669,-0.898 3.685,-0.307c1.015,0.59 1.582,1.771 1.582,3.354l0,3.471c0,1.134 0.355,1.961 0.992,2.339c0.638,0.378 1.535,0.26 2.504,-0.307l14.455,-8.338c0.283,-0.165 0.638,-0.071 0.803,0.213c0.165,0.283 0.071,0.638 -0.212,0.803l-14.456,8.337c-0.779,0.449 -1.535,0.685 -2.244,0.685Z" style="fill:#2aedff;fill-rule:nonzero;"/><path d="M169.575,159.69c-0.52,0 -1.016,-0.118 -1.441,-0.378c-1.016,-0.59 -1.582,-1.771 -1.582,-3.354l-0,-3.495c-0,-1.134 -0.355,-1.961 -0.993,-2.339c-0.637,-0.377 -1.535,-0.259 -2.503,0.308l-3.024,1.747c-0.283,0.166 -0.637,0.071 -0.803,-0.212c-0.165,-0.284 -0.07,-0.638 0.213,-0.803l3.023,-1.748c1.37,-0.78 2.669,-0.898 3.685,-0.307c1.016,0.59 1.582,1.771 1.582,3.354l0,3.495c0,1.134 0.355,1.961 0.992,2.339c0.638,0.378 1.536,0.26 2.504,-0.307l14.455,-8.338c0.284,-0.165 0.638,-0.071 0.803,0.213c0.166,0.283 0.071,0.637 -0.213,0.802l-14.455,8.338c-0.779,0.449 -1.535,0.685 -2.243,0.685Z" style="fill:#2aedff;fill-rule:nonzero;"/><path d="M175.195,162.926c-0.519,-0 -0.992,-0.118 -1.44,-0.378c-1.016,-0.59 -1.583,-1.771 -1.583,-3.354l-0,-3.472c-0,-1.134 -0.354,-1.96 -0.992,-2.338c-0.638,-0.378 -1.535,-0.26 -2.504,0.307l-3.023,1.748c-0.283,0.165 -0.638,0.071 -0.803,-0.213c-0.165,-0.283 -0.071,-0.638 0.212,-0.803l3.024,-1.748c1.37,-0.779 2.669,-0.897 3.684,-0.307c1.016,0.591 1.583,1.772 1.583,3.354l0,3.472c0,1.134 0.354,1.961 0.992,2.338c0.638,0.378 1.535,0.26 2.504,-0.306l14.455,-8.338c0.283,-0.166 0.637,-0.071 0.803,0.212c0.165,0.284 0.07,0.638 -0.213,0.803l-14.455,8.338c-0.779,0.449 -1.535,0.685 -2.244,0.685Z" style="fill:#2aedff;fill-rule:nonzero;"/><path d="M180.816,166.162c-0.52,0 -1.016,-0.118 -1.441,-0.378c-1.016,-0.59 -1.583,-1.771 -1.583,-3.354l0,-3.472c0,-1.134 -0.354,-1.96 -0.991,-2.338c-0.638,-0.378 -1.536,-0.26 -2.504,0.307l-3.023,1.748c-0.284,0.165 -0.638,0.071 -0.803,-0.213c-0.166,-0.283 -0.071,-0.638 0.212,-0.803l3.024,-1.748c1.369,-0.779 2.668,-0.897 3.684,-0.307c1.016,0.591 1.582,1.772 1.582,3.354l0,3.472c0,1.134 0.355,1.961 0.993,2.338c0.637,0.379 1.535,0.26 2.503,-0.306l14.455,-8.338c0.284,-0.166 0.638,-0.071 0.803,0.213c0.165,0.283 0.071,0.637 -0.212,0.802l-14.455,8.338c-0.78,0.449 -1.559,0.685 -2.244,0.685Z" style="fill:#2aedff;fill-rule:nonzero;"/><path d="M186.413,169.374c-0.519,0 -0.991,-0.118 -1.44,-0.378c-1.016,-0.59 -1.583,-1.771 -1.583,-3.354l0,-3.472c0,-1.133 -0.354,-1.96 -0.992,-2.338c-0.637,-0.378 -1.535,-0.26 -2.503,0.307l-3.024,1.748c-0.283,0.165 -0.637,0.071 -0.803,-0.213c-0.165,-0.283 -0.071,-0.637 0.213,-0.803l3.023,-1.748c1.37,-0.779 2.669,-0.897 3.685,-0.307c1.015,0.591 1.582,1.772 1.582,3.354l0,3.472c0,1.134 0.355,1.961 0.992,2.339c0.638,0.378 1.535,0.26 2.504,-0.307l14.455,-8.338c0.283,-0.165 0.638,-0.071 0.803,0.213c0.165,0.283 0.071,0.637 -0.213,0.803l-14.455,8.337c-0.755,0.473 -1.535,0.685 -2.244,0.685Z" style="fill:#2aedff;fill-rule:nonzero;"/><path d="M192.034,172.61c-0.52,-0 -1.016,-0.118 -1.441,-0.378c-1.015,-0.59 -1.582,-1.771 -1.582,-3.354l-0,-3.472c-0,-1.134 -0.354,-1.96 -0.992,-2.338c-0.638,-0.378 -1.536,-0.26 -2.504,0.307l-3.023,1.748c-0.284,0.165 -0.638,0.07 -0.803,-0.213c-0.166,-0.283 -0.071,-0.638 0.213,-0.803l3.023,-1.748c1.37,-0.779 2.669,-0.897 3.684,-0.307c1.016,0.591 1.583,1.772 1.583,3.354l-0,3.472c-0,1.134 0.354,1.961 0.992,2.339c0.638,0.377 1.535,0.259 2.503,-0.308l14.455,-8.337c0.284,-0.165 0.638,-0.071 0.804,0.212c0.165,0.284 0.071,0.638 -0.213,0.803l-14.455,8.338c-0.756,0.472 -1.535,0.685 -2.244,0.685Z" style="fill:#2aedff;fill-rule:nonzero;"/><path d="M203.28,179.082c-0.52,-0 -1.016,-0.118 -1.441,-0.378c-1.016,-0.591 -1.583,-1.772 -1.583,-3.354l0,-3.472c0,-1.134 -0.354,-1.961 -0.992,-2.339c-0.637,-0.377 -1.535,-0.259 -2.503,0.308l-3.024,1.747c-0.283,0.166 -0.637,0.071 -0.803,-0.212c-0.165,-0.284 -0.071,-0.638 0.213,-0.803l3.023,-1.748c1.37,-0.779 2.669,-0.898 3.685,-0.307c1.015,0.59 1.582,1.771 1.582,3.354l0,3.472c0,1.133 0.355,1.96 0.992,2.338c0.638,0.378 1.536,0.26 2.504,-0.307l14.455,-8.338c0.284,-0.165 0.638,-0.071 0.803,0.213c0.165,0.283 0.071,0.638 -0.213,0.803l-14.455,8.338c-0.756,0.449 -1.535,0.685 -2.243,0.685Z" style="fill:#2aedff;fill-rule:nonzero;"/><path d="M208.9,182.318c-0.519,-0 -1.015,-0.118 -1.441,-0.378c-1.015,-0.591 -1.582,-1.772 -1.582,-3.354l-0,-3.496c-0,-1.133 -0.355,-1.96 -0.992,-2.338c-0.638,-0.378 -1.535,-0.26 -2.504,0.307l-3.023,1.748c-0.283,0.165 -0.638,0.071 -0.803,-0.213c-0.165,-0.283 -0.071,-0.637 0.212,-0.803l3.024,-1.748c1.37,-0.779 2.669,-0.897 3.684,-0.307c1.016,0.591 1.583,1.772 1.583,3.354l-0,3.496c-0,1.134 0.354,1.96 0.992,2.338c0.637,0.378 1.535,0.26 2.503,-0.307l14.455,-8.337c0.284,-0.166 0.638,-0.071 0.804,0.212c0.165,0.284 0.07,0.638 -0.213,0.803l-14.455,8.338c-0.779,0.449 -1.535,0.685 -2.244,0.685Z" style="fill:#2aedff;fill-rule:nonzero;"/><path d="M214.521,185.554c-0.52,-0 -1.016,-0.118 -1.441,-0.378c-1.016,-0.591 -1.583,-1.772 -1.583,-3.354l0,-3.496c0,-1.134 -0.354,-1.96 -0.991,-2.338c-0.638,-0.378 -1.536,-0.26 -2.504,0.307l-3.023,1.748c-0.284,0.165 -0.638,0.07 -0.803,-0.213c-0.166,-0.283 -0.071,-0.638 0.212,-0.803l3.024,-1.748c1.369,-0.779 2.668,-0.897 3.684,-0.307c1.016,0.591 1.582,1.772 1.582,3.354l0,3.472c0,1.134 0.355,1.961 0.993,2.339c0.637,0.377 1.535,0.259 2.503,-0.308l14.455,-8.337c0.283,-0.165 0.638,-0.071 0.803,0.212c0.165,0.284 0.071,0.638 -0.212,0.803l-14.455,8.338c-0.78,0.472 -1.536,0.709 -2.244,0.709Z" style="fill:#2aedff;fill-rule:nonzero;"/><path d="M220.143,188.789c-0.52,0 -1.016,-0.118 -1.441,-0.377c-1.016,-0.591 -1.583,-1.772 -1.583,-3.355l0,-3.495c0,-1.134 -0.354,-1.96 -0.992,-2.338c-0.637,-0.378 -1.535,-0.26 -2.503,0.307l-3.023,1.747c-0.284,0.166 -0.638,0.071 -0.804,-0.212c-0.165,-0.284 -0.07,-0.638 0.213,-0.803l3.023,-1.748c1.37,-0.779 2.669,-0.898 3.685,-0.307c1.015,0.59 1.582,1.771 1.582,3.354l0,3.495c0,1.134 0.355,1.961 0.992,2.339c0.638,0.378 1.536,0.26 2.504,-0.307l14.455,-8.338c0.284,-0.165 0.638,-0.071 0.803,0.213c0.165,0.283 0.071,0.638 -0.212,0.803l-14.455,8.337c-0.78,0.449 -1.536,0.685 -2.244,0.685Z" style="fill:#2aedff;fill-rule:nonzero;"/><path d="M225.763,192.002c-0.519,-0 -1.015,-0.118 -1.44,-0.378c-1.016,-0.591 -1.583,-1.772 -1.583,-3.354l0,-3.472c0,-1.134 -0.354,-1.961 -0.992,-2.339c-0.638,-0.377 -1.535,-0.259 -2.504,0.308l-3.023,1.747c-0.283,0.166 -0.638,0.071 -0.803,-0.212c-0.165,-0.284 -0.071,-0.638 0.213,-0.803l3.023,-1.748c1.37,-0.779 2.669,-0.898 3.685,-0.307c1.015,0.59 1.582,1.771 1.582,3.354l0,3.472c0,1.133 0.354,1.96 0.992,2.338c0.638,0.378 1.535,0.26 2.504,-0.307l14.455,-8.338c0.283,-0.165 0.638,-0.071 0.803,0.213c0.165,0.283 0.071,0.638 -0.213,0.803l-14.455,8.338c-0.779,0.472 -1.535,0.685 -2.244,0.685Z" style="fill:#2aedff;fill-rule:nonzero;"/><path d="M231.387,195.237c-0.52,0 -0.992,-0.118 -1.441,-0.378c-1.016,-0.59 -1.582,-1.771 -1.582,-3.354l-0,-3.495c-0,-1.134 -0.355,-1.961 -0.992,-2.338c-0.638,-0.379 -1.536,-0.26 -2.504,0.306l-3.023,1.748c-0.284,0.166 -0.638,0.071 -0.803,-0.212c-0.166,-0.284 -0.071,-0.638 0.212,-0.803l3.023,-1.748c1.37,-0.78 2.67,-0.898 3.685,-0.307c1.016,0.59 1.583,1.771 1.583,3.354l-0,3.495c-0,1.134 0.354,1.961 0.992,2.339c0.637,0.378 1.535,0.259 2.503,-0.307l14.455,-8.338c0.284,-0.165 0.638,-0.071 0.803,0.213c0.166,0.283 0.071,0.637 -0.212,0.803l-14.455,8.337c-0.78,0.473 -1.535,0.685 -2.244,0.685Z" style="fill:#2aedff;fill-rule:nonzero;"/><path d="M237.007,198.473c-0.519,0 -1.015,-0.118 -1.44,-0.378c-1.016,-0.59 -1.583,-1.771 -1.583,-3.353l0,-3.473c0,-1.133 -0.354,-1.96 -0.992,-2.338c-0.638,-0.378 -1.535,-0.26 -2.504,0.307l-3.023,1.748c-0.283,0.165 -0.638,0.071 -0.803,-0.213c-0.165,-0.283 -0.071,-0.637 0.213,-0.803l3.023,-1.748c1.37,-0.779 2.669,-0.897 3.685,-0.306c1.015,0.59 1.582,1.771 1.582,3.353l0,3.473c0,1.133 0.354,1.96 0.992,2.338c0.638,0.378 1.535,0.26 2.504,-0.307l14.455,-8.338c0.283,-0.165 0.638,-0.071 0.803,0.213c0.165,0.283 0.071,0.637 -0.213,0.803l-14.455,8.337c-0.779,0.449 -1.559,0.685 -2.244,0.685Z" style="fill:#2aedff;fill-rule:nonzero;"/><path d="M242.629,201.709c-0.519,0 -1.015,-0.118 -1.441,-0.378c-1.015,-0.59 -1.582,-1.771 -1.582,-3.354l-0,-3.495c-0,-1.134 -0.354,-1.961 -0.992,-2.339c-0.638,-0.377 -1.535,-0.259 -2.504,0.308l-3.023,1.747c-0.283,0.166 -0.638,0.071 -0.803,-0.212c-0.165,-0.284 -0.071,-0.638 0.213,-0.803l3.023,-1.748c1.37,-0.78 2.669,-0.898 3.685,-0.307c1.015,0.59 1.582,1.771 1.582,3.354l-0,3.495c-0,1.134 0.354,1.961 0.992,2.339c0.638,0.378 1.535,0.26 2.504,-0.307l14.455,-8.338c0.283,-0.165 0.637,-0.071 0.803,0.213c0.165,0.283 0.071,0.637 -0.213,0.803l-14.455,8.337c-0.779,0.449 -1.559,0.685 -2.244,0.685Z" style="fill:#2aedff;fill-rule:nonzero;"/><path d="M248.226,204.945c-0.52,-0 -0.992,-0.118 -1.441,-0.378c-1.016,-0.59 -1.583,-1.771 -1.583,-3.354l0,-3.472c0,-1.134 -0.354,-1.96 -0.992,-2.338c-0.637,-0.378 -1.535,-0.26 -2.503,0.307l-3.024,1.747c-0.283,0.166 -0.637,0.071 -0.802,-0.212c-0.166,-0.283 -0.071,-0.638 0.212,-0.803l3.023,-1.748c1.37,-0.779 2.669,-0.897 3.685,-0.307c1.016,0.59 1.582,1.771 1.582,3.354l0,3.472c0,1.134 0.355,1.96 0.992,2.339c0.638,0.377 1.536,0.259 2.504,-0.308l14.455,-8.337c0.283,-0.165 0.638,-0.071 0.803,0.212c0.165,0.284 0.071,0.638 -0.212,0.803l-14.455,8.338c-0.756,0.449 -1.536,0.685 -2.244,0.685Z" style="fill:#2aedff;fill-rule:nonzero;"/><path d="M253.847,208.181c-0.519,-0 -1.015,-0.119 -1.44,-0.378c-1.016,-0.591 -1.583,-1.772 -1.583,-3.354l0,-3.496c0,-1.134 -0.354,-1.96 -0.992,-2.338c-0.637,-0.378 -1.535,-0.26 -2.503,0.307l-3.024,1.748c-0.283,0.165 -0.637,0.071 -0.803,-0.213c-0.165,-0.283 -0.07,-0.638 0.213,-0.803l3.023,-1.748c1.37,-0.779 2.669,-0.897 3.685,-0.307c1.015,0.591 1.582,1.772 1.582,3.354l0,3.496c0,1.133 0.355,1.96 0.992,2.338c0.638,0.378 1.535,0.26 2.504,-0.307l14.455,-8.338c0.283,-0.165 0.638,-0.07 0.803,0.213c0.165,0.283 0.071,0.638 -0.212,0.803l-14.455,8.338c-0.756,0.449 -1.536,0.685 -2.245,0.685Z" style="fill:#2aedff;fill-rule:nonzero;"/><path d="M246.644,201.426l0,12.825l-111.011,64.103l-111.011,-64.103l0,-12.825l222.022,-0Z" style="fill:url(#_Linear1);fill-rule:nonzero;"/><path d="M135.637,265.528l-111.011,-64.102l111.011,-64.104l111.011,64.104l-111.011,64.102Z" style="fill:#97c9ff;fill-rule:nonzero;"/><path d="M135.633,264.016l-109.735,-63.347l-1.276,0.756l111.011,64.103l111.011,-64.103l-1.299,-0.756l-109.712,63.347Z" style="fill:#d2ffff;fill-rule:nonzero;"/><path d="M135.633,250.743l-85.383,-49.317l85.383,-49.294l85.384,49.294l-85.384,49.317Z" style="fill:#1621c9;fill-rule:nonzero;"/><path d="M135.633,250.743l-85.383,-49.317l85.383,-49.294l85.384,49.317l-85.384,49.294Z" style="fill:url(#_Linear2);fill-rule:nonzero;"/><path d="M135.632,139.708l85.384,49.294l-0,12.447l-85.384,-49.317l0,-12.424Z" style="fill:url(#_Linear3);fill-rule:nonzero;"/><path d="M135.633,152.132l-85.383,49.293l-0,-12.423l85.383,-49.294l0,12.424Z" style="fill:url(#_Linear4);fill-rule:nonzero;"/><path d="M135.633,238.295l-85.383,-49.293l85.383,-49.294l85.384,49.294l-85.384,49.293Z" style="fill:url(#_Linear5);fill-rule:nonzero;"/><path d="M135.634,208.701l-34.13,-19.699l34.13,-19.698l34.107,19.698l-34.107,19.699Z" style="fill:#2aedff;fill-opacity:0.5;fill-rule:nonzero;"/><path d="M135.634,171.122l32.548,18.801l1.559,-0.921l-34.107,-19.698l-34.13,19.698l1.583,0.921l32.547,-18.801Z" style="fill:#2aedff;fill-opacity:0.5;fill-rule:nonzero;"/><path d="M135.632,238.296l0,12.447l85.384,-49.294l-0,-12.447l-85.384,49.294Z" style="fill:url(#_Linear6);fill-rule:nonzero;"/><path d="M50.25,189.002l-0,12.424l85.383,49.317l0,-12.447l-85.383,-49.294Z" style="fill:url(#_Linear7);fill-rule:nonzero;"/><path d="M135.633,236.949l-84.226,-48.632l-1.157,0.685l85.383,49.294l85.384,-49.294l-1.18,-0.685l-84.204,48.632Z" style="fill:#2aedff;fill-opacity:0.8;fill-rule:nonzero;"/><path d="M163.503,293.825c-0.095,-0 -0.189,-0.024 -0.284,-0.071l-14.455,-8.338c-2.621,-1.511 -4.676,-5.078 -4.676,-8.101l-0,-3.496c-0,-2.598 -1.842,-5.787 -4.086,-7.086l-3.024,-1.747c-0.283,-0.166 -0.377,-0.52 -0.212,-0.804c0.165,-0.283 0.519,-0.377 0.803,-0.212l3.023,1.748c2.622,1.511 4.677,5.078 4.677,8.101l-0,3.472c-0,2.598 1.842,5.787 4.086,7.086l14.455,8.338c0.283,0.165 0.378,0.519 0.212,0.803c-0.118,0.189 -0.33,0.307 -0.519,0.307Z" style="fill:#2aedff;fill-rule:nonzero;"/><path d="M169.123,290.589c-0.094,-0 -0.189,-0.024 -0.283,-0.071l-14.455,-8.338c-2.622,-1.511 -4.677,-5.078 -4.677,-8.101l0,-3.496c0,-2.598 -1.842,-5.786 -4.086,-7.086l-3.023,-1.747c-0.283,-0.166 -0.378,-0.52 -0.213,-0.803c0.166,-0.284 0.52,-0.379 0.803,-0.213l3.024,1.748c2.621,1.511 4.676,5.078 4.676,8.101l0,3.496c0,2.598 1.843,5.787 4.086,7.086l14.456,8.337c0.283,0.165 0.377,0.52 0.212,0.803c-0.118,0.166 -0.331,0.284 -0.52,0.284Z" style="fill:#2aedff;fill-rule:nonzero;"/><path d="M174.744,287.353c-0.094,-0 -0.189,-0.024 -0.283,-0.071l-14.455,-8.338c-2.622,-1.511 -4.677,-5.078 -4.677,-8.101l0,-3.472c0,-2.598 -1.842,-5.787 -4.086,-7.086l-3.023,-1.748c-0.284,-0.165 -0.378,-0.519 -0.213,-0.803c0.165,-0.283 0.52,-0.377 0.803,-0.212l3.023,1.748c2.622,1.511 4.677,5.078 4.677,8.125l-0,3.472c-0,2.598 1.842,5.786 4.086,7.085l14.455,8.338c0.284,0.165 0.378,0.52 0.213,0.803c-0.118,0.142 -0.331,0.26 -0.52,0.26Z" style="fill:#2aedff;fill-rule:nonzero;"/><path d="M180.366,284.117c-0.094,-0 -0.189,-0.024 -0.283,-0.071l-14.455,-8.338c-2.622,-1.511 -4.677,-5.078 -4.677,-8.101l-0,-3.496c-0,-2.598 -1.842,-5.786 -4.086,-7.085l-3.023,-1.748c-0.284,-0.166 -0.378,-0.52 -0.213,-0.803c0.165,-0.284 0.52,-0.378 0.803,-0.213l3.023,1.748c2.622,1.512 4.677,5.078 4.677,8.101l0,3.496c0,2.598 1.842,5.787 4.086,7.086l14.455,8.337c0.284,0.166 0.378,0.52 0.213,0.803c-0.118,0.166 -0.331,0.284 -0.52,0.284Z" style="fill:#2aedff;fill-rule:nonzero;"/><path d="M185.965,280.857c-0.094,0 -0.189,-0.023 -0.283,-0.07l-14.455,-8.338c-2.622,-1.512 -4.677,-5.078 -4.677,-8.101l-0,-3.496c-0,-2.598 -1.842,-5.787 -4.086,-7.086l-3.023,-1.748c-0.284,-0.165 -0.378,-0.519 -0.213,-0.803c0.165,-0.283 0.52,-0.378 0.803,-0.212l3.023,1.748c2.622,1.511 4.677,5.078 4.677,8.101l-0,3.496c-0,2.598 1.842,5.786 4.086,7.085l14.455,8.338c0.284,0.166 0.378,0.52 0.213,0.803c-0.118,0.189 -0.307,0.283 -0.52,0.283Z" style="fill:#2aedff;fill-rule:nonzero;"/><path d="M191.469,278.448c-0.094,0 -0.189,-0.023 -0.283,-0.07l-14.337,-9.165c-2.622,-1.511 -4.677,-5.078 -4.677,-8.125l0,-3.472c0,-2.598 -1.842,-5.787 -4.086,-7.086l-3.023,-1.748c-0.284,-0.165 -0.378,-0.519 -0.213,-0.802c0.166,-0.284 0.52,-0.378 0.803,-0.213l3.024,1.748c2.621,1.512 4.676,5.078 4.676,8.101l0,3.472c0,2.599 1.843,5.787 4.086,7.086l14.313,9.164c0.284,0.166 0.379,0.52 0.213,0.804c-0.094,0.212 -0.283,0.306 -0.496,0.306Z" style="fill:#2aedff;fill-rule:nonzero;"/><path d="M197.208,274.386c-0.095,-0 -0.189,-0.024 -0.284,-0.071l-14.455,-8.338c-2.621,-1.511 -4.676,-5.078 -4.676,-8.101l-0,-3.496c-0,-2.598 -1.843,-5.787 -4.086,-7.086l-3.024,-1.747c-0.283,-0.166 -0.378,-0.52 -0.212,-0.804c0.165,-0.283 0.519,-0.377 0.803,-0.212l3.023,1.748c2.622,1.512 4.677,5.078 4.677,8.101l-0,3.496c-0,2.598 1.842,5.786 4.086,7.086l14.455,8.337c0.283,0.166 0.378,0.52 0.212,0.803c-0.118,0.189 -0.307,0.284 -0.519,0.284Z" style="fill:#2aedff;fill-rule:nonzero;"/><path d="M202.828,271.15c-0.094,-0 -0.189,-0.024 -0.283,-0.071l-14.455,-8.337c-2.622,-1.512 -4.677,-5.079 -4.677,-8.102l0,-3.472c0,-2.598 -1.842,-5.787 -4.086,-7.086l-3.023,-1.748c-0.283,-0.165 -0.378,-0.519 -0.213,-0.802c0.166,-0.284 0.52,-0.379 0.803,-0.213l3.024,1.748c2.621,1.511 4.676,5.078 4.676,8.125l0,3.472c0,2.598 1.843,5.787 4.086,7.086l14.456,8.337c0.283,0.165 0.377,0.52 0.212,0.803c-0.118,0.166 -0.307,0.26 -0.52,0.26Z" style="fill:#2aedff;fill-rule:nonzero;"/><path d="M207.552,268.387c-0.095,-0 -0.19,-0.024 -0.284,-0.071l-13.557,-8.81c-2.622,-1.512 -4.677,-5.079 -4.677,-8.125l0,-3.472c0,-2.598 -1.842,-5.787 -4.086,-7.086l-3.024,-1.748c-0.283,-0.165 -0.377,-0.52 -0.212,-0.803c0.165,-0.284 0.52,-0.378 0.803,-0.213l3.023,1.748c2.622,1.512 4.677,5.078 4.677,8.102l-0,3.472c-0,2.598 1.842,5.786 4.086,7.086l13.557,8.81c0.284,0.165 0.379,0.519 0.213,0.803c-0.118,0.188 -0.307,0.307 -0.519,0.307Z" style="fill:#2aedff;fill-rule:nonzero;"/><path d="M213.504,265.482c-0.094,-0 -0.189,-0.024 -0.283,-0.071l-13.889,-9.141c-2.621,-1.512 -4.676,-5.078 -4.676,-8.101l-0,-3.496c-0,-2.598 -1.842,-5.787 -4.086,-7.086l-3.023,-1.748c-0.284,-0.165 -0.378,-0.519 -0.213,-0.803c0.165,-0.283 0.52,-0.378 0.803,-0.212l3.023,1.748c2.622,1.511 4.677,5.078 4.677,8.101l-0,3.496c-0,2.598 1.842,5.786 4.086,7.085l13.888,9.141c0.284,0.165 0.378,0.52 0.213,0.803c-0.118,0.165 -0.307,0.284 -0.52,0.284Z" style="fill:#2aedff;fill-rule:nonzero;"/><path d="M219.693,261.442c-0.095,0 -0.189,-0.023 -0.283,-0.07l-14.455,-8.338c-2.622,-1.512 -4.677,-5.078 -4.677,-8.101l-0,-3.472c-0,-2.599 -1.842,-5.787 -4.086,-7.086l-3.024,-1.748c-0.283,-0.165 -0.377,-0.52 -0.212,-0.803c0.165,-0.283 0.52,-0.378 0.803,-0.213l3.023,1.748c2.622,1.512 4.677,5.078 4.677,8.125l-0,3.472c-0,2.598 1.842,5.787 4.086,7.086l14.455,8.338c0.283,0.165 0.378,0.519 0.212,0.803c-0.117,0.141 -0.33,0.259 -0.519,0.259Z" style="fill:#2aedff;fill-rule:nonzero;"/><path d="M225.315,258.207c-0.094,-0 -0.189,-0.024 -0.283,-0.071l-14.455,-8.338c-2.622,-1.511 -4.677,-5.078 -4.677,-8.125l-0,-3.472c-0,-2.598 -1.842,-5.787 -4.086,-7.086l-3.023,-1.748c-0.284,-0.165 -0.378,-0.519 -0.213,-0.803c0.165,-0.283 0.519,-0.377 0.803,-0.212l3.023,1.748c2.622,1.511 4.677,5.078 4.677,8.101l-0,3.472c-0,2.598 1.842,5.787 4.086,7.086l14.455,8.338c0.284,0.165 0.378,0.519 0.213,0.803c-0.118,0.189 -0.331,0.307 -0.52,0.307Z" style="fill:#2aedff;fill-rule:nonzero;"/><path d="M230.936,254.971c-0.095,-0 -0.189,-0.024 -0.284,-0.071l-14.455,-8.338c-2.621,-1.511 -4.676,-5.078 -4.676,-8.101l-0,-3.496c-0,-2.598 -1.843,-5.786 -4.087,-7.085l-3.023,-1.748c-0.283,-0.166 -0.378,-0.52 -0.212,-0.803c0.165,-0.284 0.519,-0.378 0.803,-0.213l3.023,1.748c2.622,1.512 4.677,5.078 4.677,8.101l-0,3.496c-0,2.598 1.842,5.787 4.086,7.086l14.455,8.337c0.283,0.166 0.378,0.52 0.212,0.803c-0.118,0.166 -0.33,0.284 -0.519,0.284Z" style="fill:#2aedff;fill-rule:nonzero;"/><path d="M236.344,251.806c-0.094,-0 -0.189,-0.024 -0.283,-0.071l-14.266,-8.432c-2.622,-1.512 -4.677,-5.078 -4.677,-8.102l0,-3.472c0,-2.598 -1.842,-5.787 -4.086,-7.086l-3.023,-1.747c-0.284,-0.166 -0.378,-0.52 -0.213,-0.804c0.166,-0.283 0.52,-0.377 0.803,-0.212l3.023,1.748c2.622,1.512 4.677,5.078 4.677,8.125l0,3.472c0,2.598 1.843,5.787 4.086,7.086l14.267,8.432c0.283,0.165 0.377,0.519 0.212,0.803c-0.094,0.165 -0.307,0.26 -0.52,0.26Z" style="fill:#2aedff;fill-rule:nonzero;"/><path d="M242.627,248.972c-0.095,-0 -0.189,-0.024 -0.283,-0.071l-14.904,-8.81c-2.622,-1.512 -4.677,-5.079 -4.677,-8.125l0,-3.473c0,-2.598 -1.842,-5.786 -4.086,-7.085l-3.023,-1.748c-0.284,-0.165 -0.378,-0.52 -0.213,-0.803c0.166,-0.284 0.52,-0.378 0.803,-0.213l3.023,1.748c2.622,1.512 4.677,5.078 4.677,8.101l0,3.473c0,2.598 1.843,5.786 4.086,7.085l14.904,8.81c0.283,0.166 0.378,0.52 0.213,0.803c-0.118,0.189 -0.307,0.308 -0.52,0.308Z" style="fill:#2aedff;fill-rule:nonzero;"/><path d="M247.776,245.24c-0.095,-0 -0.189,-0.024 -0.284,-0.071l-14.455,-8.338c-2.621,-1.512 -4.676,-5.078 -4.676,-8.101l-0,-3.496c-0,-2.598 -1.843,-5.787 -4.086,-7.086l-3.024,-1.748c-0.283,-0.165 -0.378,-0.519 -0.212,-0.803c0.165,-0.283 0.519,-0.378 0.803,-0.212l3.023,1.747c2.622,1.512 4.677,5.079 4.677,8.102l-0,3.496c-0,2.598 1.842,5.787 4.086,7.086l14.455,8.337c0.283,0.165 0.378,0.52 0.213,0.803c-0.119,0.189 -0.308,0.284 -0.52,0.284Z" style="fill:#2aedff;fill-rule:nonzero;"/><path d="M253.398,242.004c-0.095,-0 -0.189,-0.024 -0.284,-0.071l-14.455,-8.338c-2.621,-1.511 -4.676,-5.078 -4.676,-8.101l-0,-3.472c-0,-2.598 -1.842,-5.787 -4.086,-7.086l-3.024,-1.748c-0.283,-0.165 -0.377,-0.519 -0.212,-0.803c0.165,-0.283 0.52,-0.378 0.803,-0.213l3.023,1.748c2.622,1.512 4.677,5.079 4.677,8.126l-0,3.471c-0,2.599 1.842,5.787 4.086,7.086l14.455,8.338c0.283,0.165 0.378,0.52 0.212,0.803c-0.118,0.165 -0.306,0.26 -0.519,0.26Z" style="fill:#2aedff;fill-rule:nonzero;"/><path d="M259.02,238.768c-0.094,-0 -0.189,-0.024 -0.283,-0.071l-14.455,-8.338c-2.622,-1.511 -4.677,-5.078 -4.677,-8.125l-0,-3.472c-0,-2.598 -1.843,-5.786 -4.086,-7.085l-3.023,-1.748c-0.284,-0.166 -0.379,-0.52 -0.213,-0.803c0.165,-0.284 0.519,-0.379 0.803,-0.213l3.023,1.748c2.622,1.511 4.677,5.078 4.677,8.101l-0,3.472c-0,2.598 1.842,5.787 4.086,7.086l14.455,8.338c0.284,0.165 0.378,0.519 0.213,0.803c-0.118,0.212 -0.308,0.307 -0.52,0.307Z" style="fill:#2aedff;fill-rule:nonzero;"/><path d="M264.641,235.532c-0.095,-0 -0.189,-0.024 -0.284,-0.071l-14.455,-8.338c-2.622,-1.511 -4.676,-5.078 -4.676,-8.101l-0,-3.495c-0,-2.599 -1.843,-5.787 -4.087,-7.086l-3.023,-1.748c-0.283,-0.166 -0.378,-0.52 -0.213,-0.803c0.166,-0.284 0.52,-0.378 0.804,-0.213l3.023,1.748c2.622,1.512 4.677,5.078 4.677,8.102l-0,3.495c-0,2.598 1.842,5.787 4.086,7.086l14.455,8.338c0.283,0.165 0.378,0.519 0.212,0.802c-0.118,0.189 -0.307,0.284 -0.519,0.284Z" style="fill:#2aedff;fill-rule:nonzero;"/><path d="M270.262,232.296c-0.094,0 -0.188,-0.024 -0.283,-0.071l-14.455,-8.337c-2.622,-1.512 -4.677,-5.078 -4.677,-8.102l0,-3.472c0,-2.598 -1.842,-5.787 -4.086,-7.086l-3.023,-1.747c-0.283,-0.166 -0.378,-0.52 -0.213,-0.804c0.166,-0.283 0.52,-0.377 0.803,-0.212l3.024,1.748c2.621,1.511 4.676,5.078 4.676,8.125l0,3.472c0,2.598 1.843,5.787 4.087,7.086l14.455,8.337c0.283,0.166 0.377,0.52 0.212,0.803c-0.118,0.166 -0.307,0.26 -0.52,0.26Z" style="fill:#2aedff;fill-rule:nonzero;"/><path d="M107.362,293.825c-0.212,-0 -0.401,-0.095 -0.519,-0.308c-0.166,-0.283 -0.071,-0.637 0.212,-0.802l14.455,-8.338c2.268,-1.299 4.087,-4.488 4.087,-7.086l-0,-3.495c-0,-3.024 2.055,-6.59 4.676,-8.102l3.024,-1.748c0.283,-0.165 0.637,-0.071 0.802,0.213c0.166,0.283 0.071,0.638 -0.212,0.803l-3.023,1.748c-2.268,1.299 -4.087,4.487 -4.087,7.086l0,3.495c0,3.023 -2.055,6.59 -4.676,8.101l-14.455,8.338c-0.095,0.071 -0.189,0.095 -0.284,0.095Z" style="fill:#2aedff;fill-rule:nonzero;"/><path d="M101.741,290.588c-0.213,0 -0.402,-0.094 -0.52,-0.283c-0.165,-0.283 -0.071,-0.638 0.212,-0.803l14.455,-8.338c2.268,-1.299 4.087,-4.487 4.087,-7.085l-0,-3.496c-0,-3.023 2.054,-6.59 4.676,-8.101l3.023,-1.748c0.284,-0.166 0.638,-0.071 0.803,0.212c0.166,0.284 0.071,0.638 -0.212,0.803l-3.023,1.748c-2.268,1.299 -4.086,4.488 -4.086,7.086l-0,3.496c-0,3.023 -2.055,6.589 -4.677,8.101l-14.455,8.338c-0.071,0.047 -0.189,0.07 -0.283,0.07Z" style="fill:#2aedff;fill-rule:nonzero;"/><path d="M96.118,287.353c-0.212,-0 -0.401,-0.095 -0.519,-0.284c-0.166,-0.283 -0.071,-0.637 0.212,-0.803l14.455,-8.337c2.268,-1.299 4.086,-4.488 4.086,-7.086l0,-3.472c0,-3.024 2.055,-6.59 4.677,-8.102l3.023,-1.747c0.284,-0.166 0.638,-0.071 0.803,0.212c0.166,0.283 0.071,0.638 -0.212,0.803l-3.023,1.748c-2.268,1.299 -4.087,4.488 -4.087,7.086l0,3.472c0,3.023 -2.054,6.589 -4.676,8.101l-14.455,8.338c-0.071,0.047 -0.189,0.071 -0.284,0.071Z" style="fill:#2aedff;fill-rule:nonzero;"/><path d="M90.498,284.117c-0.213,-0 -0.402,-0.095 -0.52,-0.284c-0.165,-0.283 -0.071,-0.637 0.213,-0.803l14.455,-8.337c2.267,-1.299 4.086,-4.488 4.086,-7.086l-0,-3.496c-0,-3.023 2.055,-6.589 4.676,-8.101l3.024,-1.748c0.283,-0.165 0.637,-0.071 0.803,0.213c0.165,0.283 0.071,0.637 -0.213,0.803l-3.023,1.748c-2.267,1.299 -4.086,4.487 -4.086,7.085l-0,3.496c-0,3.023 -2.055,6.59 -4.677,8.101l-14.455,8.338c-0.071,0.024 -0.189,0.071 -0.283,0.071Z" style="fill:#2aedff;fill-rule:nonzero;"/><path d="M84.877,280.857c-0.212,0 -0.401,-0.094 -0.52,-0.283c-0.165,-0.283 -0.07,-0.638 0.213,-0.803l14.455,-8.338c2.267,-1.299 4.086,-4.487 4.086,-7.086l0,-3.495c0,-3.024 2.055,-6.59 4.677,-8.102l3.023,-1.748c0.284,-0.165 0.638,-0.07 0.803,0.213c0.166,0.284 0.071,0.638 -0.212,0.803l-3.024,1.748c-2.267,1.299 -4.086,4.488 -4.086,7.086l0,3.495c0,3.024 -2.055,6.59 -4.676,8.102l-14.455,8.338c-0.071,0.047 -0.166,0.07 -0.284,0.07Z" style="fill:#2aedff;fill-rule:nonzero;"/><path d="M79.254,277.622c-0.213,-0 -0.402,-0.095 -0.52,-0.307c-0.165,-0.284 -0.071,-0.638 0.213,-0.803l14.455,-8.338c2.267,-1.299 4.086,-4.487 4.086,-7.086l-0,-3.472c-0,-3.023 2.055,-6.589 4.677,-8.101l3.023,-1.748c0.283,-0.165 0.638,-0.071 0.803,0.213c0.165,0.283 0.071,0.637 -0.213,0.802l-3.023,1.748c-2.268,1.299 -4.086,4.488 -4.086,7.086l-0,3.472c-0,3.024 -2.055,6.59 -4.677,8.102l-14.455,8.337c-0.071,0.071 -0.165,0.095 -0.283,0.095Z" style="fill:#2aedff;fill-rule:nonzero;"/><path d="M73.657,274.386c-0.212,-0 -0.401,-0.095 -0.519,-0.284c-0.166,-0.283 -0.071,-0.638 0.212,-0.803l14.455,-8.337c2.268,-1.3 4.087,-4.488 4.087,-7.086l-0,-3.496c-0,-3.023 2.054,-6.59 4.676,-8.101l3.024,-1.748c0.283,-0.166 0.637,-0.071 0.803,0.212c0.165,0.284 0.07,0.638 -0.213,0.804l-3.023,1.747c-2.268,1.299 -4.087,4.488 -4.087,7.086l0,3.496c0,3.023 -2.055,6.59 -4.676,8.101l-14.455,8.338c-0.095,0.047 -0.189,0.071 -0.284,0.071Z" style="fill:#2aedff;fill-rule:nonzero;"/><path d="M68.036,271.15c-0.213,-0 -0.402,-0.095 -0.52,-0.283c-0.165,-0.284 -0.071,-0.638 0.212,-0.804l14.455,-8.337c2.268,-1.299 4.087,-4.488 4.087,-7.086l-0,-3.472c-0,-3.023 2.055,-6.59 4.676,-8.101l3.024,-1.748c0.283,-0.166 0.637,-0.071 0.802,0.212c0.166,0.284 0.071,0.638 -0.212,0.803l-3.023,1.748c-2.268,1.299 -4.086,4.488 -4.086,7.086l-0,3.472c-0,3.023 -2.055,6.59 -4.677,8.101l-14.455,8.338c-0.095,0.047 -0.189,0.071 -0.283,0.071Z" style="fill:#2aedff;fill-rule:nonzero;"/><path d="M62.413,267.914c-0.212,0 -0.401,-0.094 -0.519,-0.283c-0.166,-0.284 -0.071,-0.638 0.212,-0.803l14.455,-8.338c2.268,-1.299 4.086,-4.488 4.086,-7.086l0,-3.472c0,-3.023 2.055,-6.59 4.677,-8.101l3.023,-1.748c0.284,-0.165 0.638,-0.071 0.804,0.213c0.165,0.283 0.07,0.637 -0.213,0.803l-3.023,1.748c-2.268,1.299 -4.087,4.487 -4.087,7.085l0,3.472c0,3.023 -2.054,6.59 -4.676,8.102l-14.455,8.337c-0.095,0.048 -0.189,0.071 -0.284,0.071Z" style="fill:#2aedff;fill-rule:nonzero;"/><path d="M56.793,264.678c-0.213,0 -0.402,-0.094 -0.52,-0.283c-0.165,-0.283 -0.071,-0.638 0.213,-0.803l14.455,-8.338c2.267,-1.299 4.086,-4.487 4.086,-7.086l-0,-3.495c-0,-3.023 2.055,-6.59 4.677,-8.102l3.023,-1.748c0.283,-0.165 0.638,-0.07 0.803,0.213c0.165,0.284 0.071,0.638 -0.213,0.803l-3.023,1.748c-2.267,1.299 -4.086,4.488 -4.086,7.086l-0,3.495c-0,3.024 -2.055,6.59 -4.677,8.102l-14.455,8.337c-0.094,0.048 -0.189,0.071 -0.283,0.071Z" style="fill:#2aedff;fill-rule:nonzero;"/><path d="M51.172,261.442c-0.212,0 -0.401,-0.094 -0.52,-0.283c-0.165,-0.283 -0.07,-0.638 0.213,-0.803l14.455,-8.338c2.268,-1.299 4.086,-4.487 4.086,-7.086l0,-3.472c0,-3.023 2.055,-6.589 4.677,-8.101l3.023,-1.748c0.284,-0.165 0.638,-0.071 0.803,0.213c0.166,0.283 0.071,0.638 -0.212,0.803l-3.024,1.748c-2.267,1.299 -4.086,4.487 -4.086,7.085l0,3.472c0,3.024 -2.055,6.59 -4.676,8.102l-14.455,8.338c-0.095,0.047 -0.189,0.07 -0.284,0.07Z" style="fill:#2aedff;fill-rule:nonzero;"/><path d="M45.549,258.207c-0.213,-0 -0.402,-0.095 -0.52,-0.308c-0.165,-0.283 -0.071,-0.637 0.213,-0.802l14.455,-8.338c2.267,-1.299 4.086,-4.488 4.086,-7.086l0,-3.472c0,-3.023 2.055,-6.59 4.677,-8.101l3.023,-1.748c0.283,-0.166 0.638,-0.071 0.803,0.212c0.165,0.284 0.071,0.638 -0.213,0.803l-3.023,1.748c-2.268,1.299 -4.086,4.488 -4.086,7.086l0,3.472c0,3.023 -2.055,6.59 -4.677,8.101l-14.455,8.338c-0.07,0.071 -0.189,0.095 -0.283,0.095Z" style="fill:#2aedff;fill-rule:nonzero;"/><path d="M39.928,254.971c-0.212,-0 -0.401,-0.095 -0.519,-0.284c-0.166,-0.283 -0.071,-0.637 0.212,-0.803l14.455,-8.337c2.268,-1.3 4.086,-4.488 4.086,-7.086l0,-3.496c0,-3.023 2.055,-6.59 4.677,-8.101l3.023,-1.748c0.284,-0.165 0.638,-0.071 0.803,0.212c0.166,0.284 0.071,0.638 -0.212,0.804l-3.024,1.747c-2.267,1.299 -4.086,4.488 -4.086,7.086l0,3.496c0,3.023 -2.055,6.59 -4.676,8.101l-14.455,8.338c-0.071,0.047 -0.189,0.071 -0.284,0.071Z" style="fill:#2aedff;fill-rule:nonzero;"/><path d="M34.306,251.735c-0.212,-0 -0.401,-0.095 -0.519,-0.284c-0.166,-0.283 -0.071,-0.638 0.212,-0.803l14.455,-8.337c2.268,-1.299 4.086,-4.488 4.086,-7.086l0,-3.472c0,-3.024 2.055,-6.59 4.677,-8.102l3.023,-1.748c0.284,-0.165 0.638,-0.07 0.803,0.213c0.166,0.284 0.071,0.638 -0.212,0.803l-3.024,1.748c-2.267,1.299 -4.086,4.488 -4.086,7.086l0,3.472c0,3.023 -2.055,6.59 -4.676,8.101l-14.455,8.338c-0.071,0.023 -0.189,0.071 -0.284,0.071Z" style="fill:#2aedff;fill-rule:nonzero;"/><path d="M28.686,248.476c-0.213,-0 -0.402,-0.095 -0.52,-0.284c-0.165,-0.283 -0.071,-0.638 0.212,-0.803l14.455,-8.338c2.268,-1.299 4.087,-4.487 4.087,-7.085l-0,-3.473c-0,-3.023 2.055,-6.589 4.676,-8.101l3.024,-1.748c0.283,-0.165 0.637,-0.071 0.803,0.213c0.165,0.283 0.07,0.638 -0.213,0.803l-3.023,1.748c-2.268,1.299 -4.086,4.487 -4.086,7.085l-0,3.473c-0,3.023 -2.055,6.589 -4.677,8.101l-14.455,8.338c-0.071,0.047 -0.165,0.071 -0.283,0.071Z" style="fill:#2aedff;fill-rule:nonzero;"/><path d="M23.064,245.239c-0.213,0 -0.402,-0.094 -0.52,-0.283c-0.165,-0.284 -0.071,-0.638 0.213,-0.803l14.455,-8.338c2.267,-1.299 4.086,-4.487 4.086,-7.085l-0,-3.496c-0,-3.023 2.055,-6.59 4.676,-8.102l3.024,-1.747c0.283,-0.166 0.637,-0.071 0.803,0.212c0.165,0.284 0.071,0.638 -0.213,0.803l-3.023,1.748c-2.268,1.299 -4.086,4.488 -4.086,7.086l-0,3.496c-0,3.023 -2.055,6.589 -4.677,8.101l-14.455,8.337c-0.071,0.048 -0.165,0.071 -0.283,0.071Z" style="fill:#2aedff;fill-rule:nonzero;"/><path d="M17.443,242.004c-0.213,-0 -0.402,-0.095 -0.52,-0.284c-0.165,-0.283 -0.071,-0.638 0.213,-0.803l14.455,-8.337c2.267,-1.299 4.086,-4.488 4.086,-7.086l-0,-3.472c-0,-3.024 2.055,-6.59 4.677,-8.102l3.023,-1.748c0.283,-0.165 0.638,-0.07 0.803,0.213c0.165,0.283 0.071,0.638 -0.213,0.803l-3.023,1.748c-2.267,1.299 -4.086,4.487 -4.086,7.086l0,3.472c0,3.023 -2.055,6.589 -4.676,8.101l-14.456,8.338c-0.071,0.047 -0.165,0.071 -0.283,0.071Z" style="fill:#2aedff;fill-rule:nonzero;"/><path d="M11.845,238.768c-0.212,-0 -0.401,-0.095 -0.519,-0.307c-0.166,-0.284 -0.071,-0.638 0.212,-0.803l14.455,-8.338c2.268,-1.299 4.087,-4.488 4.087,-7.086l-0,-3.472c-0,-3.023 2.054,-6.59 4.676,-8.101l3.023,-1.748c0.284,-0.166 0.638,-0.071 0.803,0.213c0.166,0.283 0.071,0.637 -0.212,0.803l-3.023,1.748c-2.268,1.299 -4.086,4.487 -4.086,7.085l-0,3.472c-0,3.023 -2.055,6.59 -4.677,8.102l-14.455,8.337c-0.095,0.071 -0.189,0.095 -0.284,0.095Z" style="fill:#2aedff;fill-rule:nonzero;"/><path d="M6.223,235.532c-0.212,-0 -0.401,-0.095 -0.519,-0.284c-0.166,-0.283 -0.071,-0.637 0.212,-0.803l14.455,-8.337c2.268,-1.299 4.086,-4.488 4.086,-7.086l0,-3.496c0,-3.023 2.055,-6.589 4.677,-8.101l3.023,-1.748c0.284,-0.165 0.638,-0.071 0.803,0.213c0.166,0.283 0.071,0.637 -0.212,0.802l-3.023,1.748c-2.268,1.299 -4.087,4.488 -4.087,7.086l0,3.496c0,3.023 -2.054,6.59 -4.676,8.101l-14.455,8.338c-0.095,0.047 -0.189,0.071 -0.284,0.071Z" style="fill:#2aedff;fill-rule:nonzero;"/><path d="M0.601,232.296c-0.213,0 -0.402,-0.094 -0.52,-0.283c-0.165,-0.284 -0.071,-0.638 0.213,-0.803l14.455,-8.338c2.267,-1.299 4.086,-4.488 4.086,-7.086l0,-3.472c0,-3.023 2.055,-6.59 4.677,-8.101l3.023,-1.748c0.283,-0.165 0.638,-0.071 0.803,0.212c0.165,0.284 0.071,0.638 -0.213,0.804l-3.023,1.747c-2.267,1.299 -4.086,4.488 -4.086,7.086l0,3.472c0,3.024 -2.055,6.59 -4.677,8.102l-14.455,8.337c-0.094,0.047 -0.189,0.071 -0.283,0.071Z" style="fill:#2aedff;fill-rule:nonzero;"/><path d="M73.929,118.812l-19.611,48.454l5.671,2.295l19.611,-48.454l-5.671,-2.295Z" style="fill:#2aedff;fill-rule:nonzero;"/><path d="M181.713,115.309c10.501,0 19.014,-8.512 19.014,-19.013c-0,-10.501 -8.513,-19.014 -19.014,-19.014c-10.501,0 -19.013,8.513 -19.013,19.014c-0,10.501 8.512,19.013 19.013,19.013Z" style="fill:url(#_Radial8);fill-rule:nonzero;"/><path d="M83.481,124.427c0,36.916 21.99,66.866 49.105,66.866c27.115,-0 49.104,-29.926 49.104,-66.866c0,-36.941 -21.989,-47.995 -49.104,-47.995c-27.115,0 -49.105,11.054 -49.105,47.995Z" style="fill:url(#_Radial9);fill-rule:nonzero;"/><path d="M83.481,124.427c0,36.916 21.99,66.866 49.105,66.866c27.115,-0 49.104,-29.926 49.104,-66.866c0,-36.941 -21.989,-47.995 -49.104,-47.995c-27.115,0 -49.105,11.054 -49.105,47.995Z" style="fill:url(#_Linear10);fill-rule:nonzero;"/><path d="M132.586,115.64c18.51,-0 33.516,-8.661 33.516,-19.344c-0,-10.684 -15.006,-19.344 -33.516,-19.344c-18.51,-0 -33.516,8.66 -33.516,19.344c-0,10.683 15.006,19.344 33.516,19.344Z" style="fill:#2355fe;fill-rule:nonzero;"/><path d="M156.3,87.746c-13.085,-7.559 -34.319,-7.559 -47.404,-0c-5.409,3.117 -8.574,7.038 -9.519,11.101c-1.346,-5.764 1.842,-11.834 9.519,-16.274c13.085,-7.558 34.319,-7.558 47.404,-0c7.676,4.44 10.841,10.487 9.518,16.25c-0.945,-4.015 -4.11,-7.936 -9.518,-11.077Z" style="fill:#3160fe;fill-rule:nonzero;"/><path d="M171.274,50.285l-6.07,-10.439c-3.567,-3.709 -6.425,-8.621 -7.865,-13.558l-6.141,-10.581l8.833,-5.078c0.284,-0.189 0.567,-0.355 0.898,-0.52c2.503,-1.181 5.858,-0.874 9.518,1.252c7.818,4.511 14.148,15.47 14.148,24.493c0,4.511 -1.582,7.676 -4.133,9.141l-9.188,5.29Z" style="fill:url(#_Radial11);fill-rule:nonzero;"/><path d="M171.345,50.296c5.524,-3.189 5.523,-13.532 -0.001,-23.1c-5.524,-9.568 -14.481,-14.739 -20.005,-11.55c-5.524,3.19 -5.524,13.532 0.001,23.1c5.524,9.568 14.481,14.739 20.005,11.55Z" style="fill:#97c9ff;fill-rule:nonzero;"/><path d="M130.649,100.193c27.668,0 50.097,-22.429 50.097,-50.096c-0,-27.668 -22.429,-50.097 -50.097,-50.097c-27.667,0 -50.097,22.429 -50.097,50.097c0,27.667 22.43,50.096 50.097,50.096Z" style="fill:url(#_Radial12);fill-rule:nonzero;"/><path d="M130.649,100.193c27.668,0 50.097,-22.429 50.097,-50.096c-0,-27.668 -22.429,-50.097 -50.097,-50.097c-27.667,0 -50.097,22.429 -50.097,50.097c0,27.667 22.43,50.096 50.097,50.096Z" style="fill:url(#_Linear13);fill-rule:nonzero;"/><path d="M102.613,83.967l-6.07,-10.44c-3.567,-3.708 -6.425,-8.621 -7.866,-13.558l-6.14,-10.581l8.833,-5.078c0.284,-0.189 0.567,-0.354 0.898,-0.52c2.504,-1.181 5.857,-0.874 9.518,1.252c7.818,4.511 14.148,15.471 14.148,24.493c0,4.512 -1.582,7.677 -4.133,9.141l-9.188,5.291Z" style="fill:url(#_Radial14);fill-rule:nonzero;"/><path d="M102.673,83.947c5.524,-3.189 5.524,-13.531 -0,-23.099c-5.525,-9.568 -14.481,-14.74 -20.005,-11.55c-5.524,3.189 -5.524,13.531 0,23.099c5.525,9.569 14.481,14.74 20.005,11.55Z" style="fill:#97c9ff;fill-rule:nonzero;"/><path d="M106.18,74.897c0,-9.023 -6.33,-19.982 -14.148,-24.493c-2.716,-1.559 -5.243,-2.15 -7.393,-1.866c2.292,-0.496 5.055,0.023 8.031,1.748c7.818,4.511 14.148,15.47 14.148,24.493c-0,5.881 -2.693,9.495 -6.755,10.014c3.684,-0.803 6.117,-4.322 6.117,-9.896Z" style="fill:#d2ffff;fill-rule:nonzero;"/><path d="M99.818,79c3.942,-2.276 3.939,-9.662 -0.006,-16.496c-3.946,-6.835 -10.341,-10.53 -14.284,-8.254c-3.942,2.277 -3.94,9.662 0.006,16.497c3.946,6.834 10.341,10.53 14.284,8.253Z" style="fill:#2355fe;fill-rule:nonzero;"/><path d="M86.882,53.711c-1.039,1.228 -1.653,3.07 -1.653,5.432c0,6.448 4.535,14.29 10.109,17.502c2.173,1.252 4.157,1.606 5.811,1.228c-1.796,2.126 -4.913,2.433 -8.456,0.402c-5.574,-3.213 -10.109,-11.054 -10.109,-17.502c-0,-3.945 1.7,-6.448 4.298,-7.062Z" style="fill:#3160fe;fill-rule:nonzero;"/><path d="M172.299,67.801c4.678,-11.236 3.217,-22.531 -3.262,-25.228c-6.479,-2.697 -15.523,4.225 -20.2,15.461c-4.677,11.236 -3.217,22.531 3.262,25.228c6.479,2.697 15.523,-4.225 20.2,-15.461Z" style="fill:#2355fe;fill-rule:nonzero;"/><path d="M152.781,65.284c0.472,3.59 3.165,4.7 6.046,2.503c2.858,-2.196 4.818,-6.873 4.346,-10.463c-0.472,-3.59 -3.165,-4.7 -6.046,-2.503c-2.859,2.22 -4.795,6.896 -4.346,10.463Z" style="fill:#2aedff;fill-rule:nonzero;"/><path d="M159.087,79.291c7.888,-6.024 13.25,-18.919 11.975,-28.769c-0.52,-4.015 -2.079,-6.897 -4.252,-8.526c4.133,0.377 7.251,3.897 8.031,9.943c1.275,9.85 -4.087,22.722 -11.975,28.769c-4.677,3.566 -9.188,3.944 -12.353,1.606c2.574,0.26 5.55,-0.709 8.574,-3.023Z" style="fill:#3160fe;fill-rule:nonzero;"/><path d="M162.206,80.401c7.888,-6.023 13.25,-18.919 11.975,-28.769c-0.591,-4.558 -2.504,-7.676 -5.173,-9.093c3.023,1.252 5.22,4.488 5.858,9.424c1.275,9.849 -4.087,22.722 -11.975,28.769c-4.228,3.235 -8.338,3.85 -11.432,2.172c2.999,1.252 6.802,0.52 10.747,-2.503Z" style="fill:#2aedff;fill-rule:nonzero;"/><path d="M76.702,139.023c10.501,0 19.014,-8.512 19.014,-19.013c-0,-10.501 -8.513,-19.014 -19.014,-19.014c-10.5,-0 -19.013,8.513 -19.013,19.014c0,10.501 8.513,19.013 19.013,19.013Z" style="fill:url(#_Radial15);fill-rule:nonzero;"/><path d="M76.702,139.023c10.501,0 19.014,-8.512 19.014,-19.013c-0,-10.501 -8.513,-19.014 -19.014,-19.014c-10.5,-0 -19.013,8.513 -19.013,19.014c0,10.501 8.513,19.013 19.013,19.013Z" style="fill:url(#_Linear16);fill-rule:nonzero;"/><path d="M46.373,183.026c1.087,9.046 9.07,26.171 16.298,25.296c7.227,-0.873 10.959,-19.391 9.873,-28.414c-1.087,-9.046 -7.818,-15.659 -15.046,-14.809c-7.227,0.874 -12.211,8.881 -11.125,17.927Z" style="fill:url(#_Radial17);fill-rule:nonzero;"/><path d="M46.373,183.026c1.087,9.046 9.07,26.171 16.298,25.296c7.227,-0.873 10.959,-19.391 9.873,-28.414c-1.087,-9.046 -7.818,-15.659 -15.046,-14.809c-7.227,0.874 -12.211,8.881 -11.125,17.927Z" style="fill:url(#_Linear18);fill-rule:nonzero;"/><path d="M232.045,124.875c1.11,0 2.173,-0.59 2.716,-1.653c0.78,-1.488 0.213,-3.354 -1.299,-4.134l-39.279,-20.548c-1.488,-0.78 -3.354,-0.213 -4.133,1.299c-0.78,1.488 -0.213,3.354 1.299,4.133l39.279,20.549c0.449,0.236 0.944,0.354 1.417,0.354Z" style="fill:#2aedff;fill-rule:nonzero;"/><path d="M231.361,136.283c7.983,4.37 26.548,7.819 30.043,1.441c3.496,-6.377 -9.4,-20.171 -17.383,-24.564c-7.984,-4.369 -17.29,-2.74 -20.785,3.637c-3.496,6.378 0.141,15.117 8.125,19.486Z" style="fill:url(#_Radial19);fill-rule:nonzero;"/><path d="M231.361,136.283c7.983,4.37 26.548,7.819 30.043,1.441c3.496,-6.377 -9.4,-20.171 -17.383,-24.564c-7.984,-4.369 -17.29,-2.74 -20.785,3.637c-3.496,6.378 0.141,15.117 8.125,19.486Z" style="fill:url(#_Linear20);fill-rule:nonzero;"/><path d="M167.094,117.081l-0,81.723c-0,1.795 0.614,3.047 1.559,3.567l4.299,2.48l-0.662,-3.189l2.079,-1.205c0.118,0.331 0.236,0.591 0.33,0.591l2.079,0l48.726,-27.162l15.943,-9.141l4.654,-4.488l0.094,-83.848l-1.559,-0.662l0,-2.243l2.764,-2.008l-4.252,-2.456c-0.779,-0.473 -1.795,-0.449 -2.929,0.188l-68.708,39.374c-2.433,1.464 -4.417,5.244 -4.417,8.479Zm6.212,36.752l0.826,-36.539l1.488,-2.315l50.947,-30.044l14.054,-9.022l-0,80.66c-0,0.732 -0.449,1.606 -1.016,1.913l-66.205,37.933l-0.094,-42.586Z" style="fill:url(#_Linear21);fill-rule:nonzero;"/><path d="M168.511,112.003l6.59,3.803l-0.969,1.512l-0.826,36.539l0.094,42.585l1.228,-0.708c0,1.323 -1.653,7.818 -1.653,9.164l-3.496,-2.031l-0.803,-0.472c-0.945,-0.52 -1.559,-1.795 -1.559,-3.567l0,-81.723c-0.023,-1.7 0.52,-3.543 1.394,-5.102Z" style="fill:#2355fe;fill-opacity:0.6;fill-rule:nonzero;"/><path d="M171.533,119.656l0,81.723c0,3.236 1.984,4.747 4.417,3.33l68.708,-39.373c2.433,-1.418 4.417,-5.173 4.417,-8.432l0,-81.723c0,-3.236 -1.984,-4.748 -4.417,-3.331l-68.708,39.374c-2.433,1.417 -4.417,5.196 -4.417,8.432Zm4.039,-2.22c-0,-0.733 0.449,-1.606 1.015,-1.914l67.457,-38.664c0.567,-0.331 1.016,0.023 1.016,0.755l-0,81.487c-0,0.732 -0.449,1.606 -1.016,1.913l-67.457,38.665c-0.566,0.331 -1.015,-0.023 -1.015,-0.756l-0,-81.486Z" style="fill:url(#_Linear22);fill-rule:nonzero;"/><path d="M171.533,119.656l0,81.723c0,3.236 1.984,4.747 4.417,3.33l68.708,-39.373c2.433,-1.418 4.417,-5.173 4.417,-8.432l0,-81.723c0,-3.236 -1.984,-4.748 -4.417,-3.331l-68.708,39.374c-2.433,1.417 -4.417,5.196 -4.417,8.432Zm4.039,-2.22c-0,-0.733 0.449,-1.606 1.015,-1.914l67.457,-38.664c0.567,-0.331 1.016,0.023 1.016,0.755l-0,81.487c-0,0.732 -0.449,1.606 -1.016,1.913l-67.457,38.665c-0.566,0.331 -1.015,-0.023 -1.015,-0.756l-0,-81.486Z" style="fill:url(#_Linear23);fill-rule:nonzero;"/><path d="M239.605,158.486c0.567,-0.331 1.015,-1.181 1.015,-1.913l0,-77.708l3.425,-1.984c0.567,-0.33 1.016,0.024 1.016,0.756l-0,81.487c-0,0.732 -0.449,1.606 -1.016,1.913l-67.457,38.665c-0.567,0.33 -1.016,-0.024 -1.016,-0.756l0,-3.779l64.033,-36.681Z" style="fill:#3160fe;fill-rule:nonzero;"/><path d="M175.572,198.946c0,0.732 0.449,1.086 1.016,0.756l67.457,-38.665c0.567,-0.331 1.016,-1.181 1.016,-1.913l-0,-81.487c-0,-0.732 -0.449,-1.086 -1.016,-0.756l-67.457,38.665c-0.567,0.331 -1.016,1.181 -1.016,1.913l0,81.487Z" style="fill:#d2ffff;fill-opacity:0.4;fill-rule:nonzero;"/><g opacity="0.9"><path d="M224.227,107.184l6.566,-3.779l-0,-1.653l-6.566,3.779l-0,1.653Z" style="fill:#3160fe;fill-opacity:0.9;fill-rule:nonzero;"/><path d="M218.629,110.42l3.283,-1.89l-0,-1.653l-3.283,1.89l0,1.653Z" style="fill:#3160fe;fill-opacity:0.9;fill-rule:nonzero;"/><path d="M222.29,112.191l2.787,-1.629l0,-1.654l-2.787,1.63l-0,1.653Z" style="fill:#3160fe;fill-opacity:0.9;fill-rule:nonzero;"/><path d="M217.614,114.884l3.283,-1.89l0,-1.653l-3.283,1.89l0,1.653Z" style="fill:#3160fe;fill-opacity:0.9;fill-rule:nonzero;"/><path d="M212.206,121.899l12.872,-7.464l0,-1.653l-12.872,7.464l-0,1.653Z" style="fill:#3160fe;fill-opacity:0.9;fill-rule:nonzero;"/><path d="M222.29,119.938l2.787,-1.629l0,-1.63l-2.787,1.606l-0,1.653Z" style="fill:#3160fe;fill-opacity:0.9;fill-rule:nonzero;"/><path d="M217.614,122.631l3.283,-1.889l0,-1.654l-3.283,1.89l0,1.653Z" style="fill:#3160fe;fill-opacity:0.9;fill-rule:nonzero;"/><path d="M217.992,126.292l7.086,-4.11l0,-1.629l-7.086,4.086l0,1.653Z" style="fill:#3160fe;fill-opacity:0.9;fill-rule:nonzero;"/><path d="M213.268,129.032l3.259,-1.889l0,-1.654l-3.259,1.89l-0,1.653Z" style="fill:#3160fe;fill-opacity:0.9;fill-rule:nonzero;"/><path d="M208.497,131.772l3.26,-1.89l-0,-1.653l-3.26,1.889l0,1.654Z" style="fill:#3160fe;fill-opacity:0.9;fill-rule:nonzero;"/><path d="M200.797,136.212l6.212,-3.566l-0,-1.654l-6.212,3.567l-0,1.653Z" style="fill:#3160fe;fill-opacity:0.9;fill-rule:nonzero;"/><path d="M204.505,141.81l3.283,-1.889l0,-1.654l-3.283,1.913l0,1.63Z" style="fill:#3160fe;fill-opacity:0.9;fill-rule:nonzero;"/><path d="M196.805,146.274l6.212,-3.59l-0,-1.653l-6.212,3.59l-0,1.653Z" style="fill:#3160fe;fill-opacity:0.9;fill-rule:nonzero;"/><path d="M221.818,131.842l3.26,-1.913l-0,-1.629l-3.26,1.889l0,1.653Z" style="fill:#3160fe;fill-opacity:0.9;fill-rule:nonzero;"/><path d="M217.046,134.583l3.283,-1.89l0,-1.653l-3.283,1.889l0,1.654Z" style="fill:#3160fe;fill-opacity:0.9;fill-rule:nonzero;"/><path d="M209.346,139.023l6.212,-3.566l-0,-1.654l-6.212,3.567l-0,1.653Z" style="fill:#3160fe;fill-opacity:0.9;fill-rule:nonzero;"/><path d="M199.851,140.629l3.283,-1.89l-0,-1.653l-3.283,1.89l-0,1.653Z" style="fill:#3160fe;fill-opacity:0.9;fill-rule:nonzero;"/><path d="M195.082,143.392l3.283,-1.889l-0,-1.653l-3.283,1.889l-0,1.653Z" style="fill:#3160fe;fill-opacity:0.9;fill-rule:nonzero;"/><path d="M187.381,147.833l6.212,-3.59l-0,-1.653l-6.212,3.59l-0,1.653Z" style="fill:#3160fe;fill-opacity:0.9;fill-rule:nonzero;"/><path d="M221.818,139.59l3.26,-1.89l-0,-1.653l-3.26,1.89l0,1.653Z" style="fill:#3160fe;fill-opacity:0.9;fill-rule:nonzero;"/><path d="M214.118,144.03l6.212,-3.59l-0,-1.653l-6.212,3.59l-0,1.653Z" style="fill:#3160fe;fill-opacity:0.9;fill-rule:nonzero;"/><path d="M202.379,127.544l3.283,-1.89l0,-1.653l-3.283,1.89l0,1.653Z" style="fill:#3160fe;fill-opacity:0.9;fill-rule:nonzero;"/><path d="M207.341,124.686l3.282,-1.889l0,-1.654l-3.282,1.89l-0,1.653Z" style="fill:#3160fe;fill-opacity:0.9;fill-rule:nonzero;"/><path d="M194.679,131.984l6.212,-3.566l-0,-1.654l-6.212,3.591l-0,1.629Z" style="fill:#3160fe;fill-opacity:0.9;fill-rule:nonzero;"/><path d="M222.125,127.78l2.953,-1.724l-0,-1.63l-2.953,1.701l0,1.653Z" style="fill:#3160fe;fill-opacity:0.9;fill-rule:nonzero;"/><path d="M213.362,132.835l7.181,-4.134l-0,-1.653l-7.181,4.133l0,1.654Z" style="fill:#3160fe;fill-opacity:0.9;fill-rule:nonzero;"/><path d="M204.575,137.913l7.181,-4.157l-0,-1.654l-7.181,4.157l0,1.654Z" style="fill:#3160fe;fill-opacity:0.9;fill-rule:nonzero;"/><path d="M190.122,134.63l2.976,-1.701l-0,-1.653l-2.976,1.701l-0,1.653Z" style="fill:#3160fe;fill-opacity:0.9;fill-rule:nonzero;"/><path d="M217.827,138.007l7.205,-4.156l-0,-1.654l-7.205,4.157l0,1.653Z" style="fill:#3160fe;fill-opacity:0.9;fill-rule:nonzero;"/><path d="M214.048,140.204l2.196,-1.275l0,-1.654l-2.196,1.276l-0,1.653Z" style="fill:#3160fe;fill-opacity:0.9;fill-rule:nonzero;"/><path d="M210.245,142.401l2.196,-1.276l0,-1.653l-2.196,1.275l-0,1.654Z" style="fill:#3160fe;fill-opacity:0.9;fill-rule:nonzero;"/><path d="M203.207,146.439l5.432,-3.141l0,-1.63l-5.432,3.118l-0,1.653Z" style="fill:#3160fe;fill-opacity:0.9;fill-rule:nonzero;"/><path d="M201.743,147.29l5.432,-3.118l0,-1.653l-5.432,3.117l-0,1.654Z" style="fill:#3160fe;fill-opacity:0.9;fill-rule:nonzero;"/><path d="M197.113,138.338l2.22,-1.275l-0,-1.654l-2.22,1.276l-0,1.653Z" style="fill:#3160fe;fill-opacity:0.9;fill-rule:nonzero;"/><path d="M190.097,142.401l5.433,-3.142l-0,-1.653l-5.433,3.141l0,1.654Z" style="fill:#3160fe;fill-opacity:0.9;fill-rule:nonzero;"/><path d="M228.526,139.59l2.196,-1.275l0,-1.654l-2.196,1.276l-0,1.653Z" style="fill:#3160fe;fill-opacity:0.9;fill-rule:nonzero;"/><path d="M221.487,143.629l5.433,-3.118l-0,-1.653l-5.433,3.141l0,1.63Z" style="fill:#3160fe;fill-opacity:0.9;fill-rule:nonzero;"/><path d="M214.307,147.786l5.433,-3.142l-0,-1.653l-5.433,3.141l0,1.654Z" style="fill:#3160fe;fill-opacity:0.9;fill-rule:nonzero;"/></g><defs><linearGradient id="_Linear1" x1="0" y1="0" x2="1" y2="0" gradientUnits="userSpaceOnUse" gradientTransform="matrix(284.517,0,0,284.517,-30.2796,239.884)"><stop offset="0" style="stop-color:#3e77ff;stop-opacity:1"/><stop offset="0.18" style="stop-color:#457dff;stop-opacity:1"/><stop offset="0.44" style="stop-color:#5990ff;stop-opacity:1"/><stop offset="0.75" style="stop-color:#79adff;stop-opacity:1"/><stop offset="1" style="stop-color:#97c9ff;stop-opacity:1"/></linearGradient><linearGradient id="_Linear2" x1="0" y1="0" x2="1" y2="0" gradientUnits="userSpaceOnUse" gradientTransform="matrix(170.775,0,0,170.775,50.2396,201.437)"><stop offset="0" style="stop-color:#2aedff;stop-opacity:0.5"/><stop offset="0.16" style="stop-color:#2be8ff;stop-opacity:0.5"/><stop offset="0.35" style="stop-color:#2ddaff;stop-opacity:0.5"/><stop offset="0.56" style="stop-color:#31c2ff;stop-opacity:0.5"/><stop offset="0.78" style="stop-color:#37a1ff;stop-opacity:0.5"/><stop offset="1" style="stop-color:#3e77ff;stop-opacity:0.5"/></linearGradient><linearGradient id="_Linear3" x1="0" y1="0" x2="1" y2="0" gradientUnits="userSpaceOnUse" gradientTransform="matrix(85.3884,0,0,85.3884,135.625,170.573)"><stop offset="0" style="stop-color:#2aedff;stop-opacity:0.5"/><stop offset="0.16" style="stop-color:#2be8ff;stop-opacity:0.5"/><stop offset="0.35" style="stop-color:#2ddaff;stop-opacity:0.5"/><stop offset="0.56" style="stop-color:#31c2ff;stop-opacity:0.5"/><stop offset="0.78" style="stop-color:#37a1ff;stop-opacity:0.5"/><stop offset="1" style="stop-color:#3e77ff;stop-opacity:0.5"/></linearGradient><linearGradient id="_Linear4" x1="0" y1="0" x2="1" y2="0" gradientUnits="userSpaceOnUse" gradientTransform="matrix(85.3891,0,0,85.3891,50.2396,170.572)"><stop offset="0" style="stop-color:#2aedff;stop-opacity:0.5"/><stop offset="0.16" style="stop-color:#2be8ff;stop-opacity:0.5"/><stop offset="0.35" style="stop-color:#2ddaff;stop-opacity:0.5"/><stop offset="0.56" style="stop-color:#31c2ff;stop-opacity:0.5"/><stop offset="0.78" style="stop-color:#37a1ff;stop-opacity:0.5"/><stop offset="1" style="stop-color:#3e77ff;stop-opacity:0.5"/></linearGradient><linearGradient id="_Linear5" x1="0" y1="0" x2="1" y2="0" gradientUnits="userSpaceOnUse" gradientTransform="matrix(170.775,0,0,170.775,50.2396,189.006)"><stop offset="0" style="stop-color:#2aedff;stop-opacity:0.5"/><stop offset="0.16" style="stop-color:#2be8ff;stop-opacity:0.5"/><stop offset="0.35" style="stop-color:#2ddaff;stop-opacity:0.5"/><stop offset="0.56" style="stop-color:#31c2ff;stop-opacity:0.5"/><stop offset="0.78" style="stop-color:#37a1ff;stop-opacity:0.5"/><stop offset="1" style="stop-color:#3e77ff;stop-opacity:0.5"/></linearGradient><linearGradient id="_Linear6" x1="0" y1="0" x2="1" y2="0" gradientUnits="userSpaceOnUse" gradientTransform="matrix(85.3859,0,0,85.3859,135.627,219.871)"><stop offset="0" style="stop-color:#2aedff;stop-opacity:0.5"/><stop offset="0.16" style="stop-color:#2be8ff;stop-opacity:0.5"/><stop offset="0.35" style="stop-color:#2ddaff;stop-opacity:0.5"/><stop offset="0.56" style="stop-color:#31c2ff;stop-opacity:0.5"/><stop offset="0.78" style="stop-color:#37a1ff;stop-opacity:0.5"/><stop offset="1" style="stop-color:#3e77ff;stop-opacity:0.5"/></linearGradient><linearGradient id="_Linear7" x1="0" y1="0" x2="1" y2="0" gradientUnits="userSpaceOnUse" gradientTransform="matrix(85.3891,0,0,85.3891,50.2396,219.87)"><stop offset="0" style="stop-color:#2aedff;stop-opacity:0.5"/><stop offset="0.16" style="stop-color:#2be8ff;stop-opacity:0.5"/><stop offset="0.35" style="stop-color:#2ddaff;stop-opacity:0.5"/><stop offset="0.56" style="stop-color:#31c2ff;stop-opacity:0.5"/><stop offset="0.78" style="stop-color:#37a1ff;stop-opacity:0.5"/><stop offset="1" style="stop-color:#3e77ff;stop-opacity:0.5"/></linearGradient><radialGradient id="_Radial8" cx="0" cy="0" r="1" gradientUnits="userSpaceOnUse" gradientTransform="matrix(-107.719,21.3249,-21.3249,-107.719,90.7203,35.509)"><stop offset="0" style="stop-color:#9bc9ff;stop-opacity:1"/><stop offset="1" style="stop-color:#2355fe;stop-opacity:1"/></radialGradient><radialGradient id="_Radial9" cx="0" cy="0" r="1" gradientUnits="userSpaceOnUse" gradientTransform="matrix(-84.4072,-6.46317e-14,8.7981e-14,-114.901,103.614,114.404)"><stop offset="0" style="stop-color:#9bc9ff;stop-opacity:1"/><stop offset="1" style="stop-color:#2355fe;stop-opacity:1"/></radialGradient><linearGradient id="_Linear10" x1="0" y1="0" x2="1" y2="0" gradientUnits="userSpaceOnUse" gradientTransform="matrix(7.03271e-15,-114.853,114.853,7.03271e-15,132.593,191.284)"><stop offset="0" style="stop-color:#2aedff;stop-opacity:1"/><stop offset="0.06" style="stop-color:#29dbff;stop-opacity:1"/><stop offset="0.2" style="stop-color:#27b2ff;stop-opacity:1"/><stop offset="0.35" style="stop-color:#2690fe;stop-opacity:1"/><stop offset="0.5" style="stop-color:#2576fe;stop-opacity:1"/><stop offset="0.66" style="stop-color:#2464fe;stop-opacity:1"/><stop offset="0.82" style="stop-color:#2359fe;stop-opacity:1"/><stop offset="1" style="stop-color:#2355fe;stop-opacity:1"/></linearGradient><radialGradient id="_Radial11" cx="0" cy="0" r="1" gradientUnits="userSpaceOnUse" gradientTransform="matrix(-59.4403,-4.55143e-14,4.55143e-14,-59.4403,182.046,-27.6638)"><stop offset="0" style="stop-color:#9bc9ff;stop-opacity:1"/><stop offset="1" style="stop-color:#2355fe;stop-opacity:1"/></radialGradient><radialGradient id="_Radial12" cx="0" cy="0" r="1" gradientUnits="userSpaceOnUse" gradientTransform="matrix(-84.6663,-6.48301e-14,6.48301e-14,-84.6663,99.384,42.6712)"><stop offset="0" style="stop-color:#9bc9ff;stop-opacity:1"/><stop offset="1" style="stop-color:#2355fe;stop-opacity:1"/></radialGradient><linearGradient id="_Linear13" x1="0" y1="0" x2="1" y2="0" gradientUnits="userSpaceOnUse" gradientTransform="matrix(-13.9444,-99.2225,99.2225,-13.9444,137.618,99.7034)"><stop offset="0" style="stop-color:#2aedff;stop-opacity:1"/><stop offset="0.06" style="stop-color:#29dbff;stop-opacity:1"/><stop offset="0.2" style="stop-color:#27b2ff;stop-opacity:1"/><stop offset="0.35" style="stop-color:#2690fe;stop-opacity:1"/><stop offset="0.5" style="stop-color:#2576fe;stop-opacity:1"/><stop offset="0.66" style="stop-color:#2464fe;stop-opacity:1"/><stop offset="0.82" style="stop-color:#2359fe;stop-opacity:1"/><stop offset="1" style="stop-color:#2355fe;stop-opacity:1"/></linearGradient><radialGradient id="_Radial14" cx="0" cy="0" r="1" gradientUnits="userSpaceOnUse" gradientTransform="matrix(-40.2084,-3.07882e-14,3.07882e-14,-40.2084,100.062,41.7706)"><stop offset="0" style="stop-color:#9bc9ff;stop-opacity:1"/><stop offset="1" style="stop-color:#2355fe;stop-opacity:1"/></radialGradient><radialGradient id="_Radial15" cx="0" cy="0" r="1" gradientUnits="userSpaceOnUse" gradientTransform="matrix(-38.9319,7.70732,-7.70732,-38.9319,65.4359,107.585)"><stop offset="0" style="stop-color:#9bc9ff;stop-opacity:1"/><stop offset="1" style="stop-color:#2355fe;stop-opacity:1"/></radialGradient><linearGradient id="_Linear16" x1="0" y1="0" x2="1" y2="0" gradientUnits="userSpaceOnUse" gradientTransform="matrix(-30.7794,-22.3634,22.3634,-30.7794,92.0978,131.182)"><stop offset="0" style="stop-color:#2aedff;stop-opacity:1"/><stop offset="0.06" style="stop-color:#29dbff;stop-opacity:1"/><stop offset="0.2" style="stop-color:#27b2ff;stop-opacity:1"/><stop offset="0.35" style="stop-color:#2690fe;stop-opacity:1"/><stop offset="0.5" style="stop-color:#2576fe;stop-opacity:1"/><stop offset="0.66" style="stop-color:#2464fe;stop-opacity:1"/><stop offset="0.82" style="stop-color:#2359fe;stop-opacity:1"/><stop offset="1" style="stop-color:#2355fe;stop-opacity:1"/></linearGradient><radialGradient id="_Radial17" cx="0" cy="0" r="1" gradientUnits="userSpaceOnUse" gradientTransform="matrix(-33.5015,3.99659,-6.58352,-55.1865,40.7796,167.807)"><stop offset="0" style="stop-color:#9bc9ff;stop-opacity:1"/><stop offset="1" style="stop-color:#2355fe;stop-opacity:1"/></radialGradient><linearGradient id="_Linear18" x1="0" y1="0" x2="1" y2="0" gradientUnits="userSpaceOnUse" gradientTransform="matrix(-26.1647,3.12156,-3.12156,-26.1647,73.1584,185.152)"><stop offset="0" style="stop-color:#2aedff;stop-opacity:1"/><stop offset="0.06" style="stop-color:#29dbff;stop-opacity:1"/><stop offset="0.2" style="stop-color:#27b2ff;stop-opacity:1"/><stop offset="0.35" style="stop-color:#2690fe;stop-opacity:1"/><stop offset="0.5" style="stop-color:#2576fe;stop-opacity:1"/><stop offset="0.66" style="stop-color:#2464fe;stop-opacity:1"/><stop offset="0.82" style="stop-color:#2359fe;stop-opacity:1"/><stop offset="1" style="stop-color:#2355fe;stop-opacity:1"/></linearGradient><radialGradient id="_Radial19" cx="0" cy="0" r="1" gradientUnits="userSpaceOnUse" gradientTransform="matrix(-16.2178,29.5856,-48.7367,-26.7157,207.622,114.358)"><stop offset="0" style="stop-color:#9bc9ff;stop-opacity:1"/><stop offset="1" style="stop-color:#2355fe;stop-opacity:1"/></radialGradient><linearGradient id="_Linear20" x1="0" y1="0" x2="1" y2="0" gradientUnits="userSpaceOnUse" gradientTransform="matrix(29.1119,-7.47375,7.47375,29.1119,223.515,126.73)"><stop offset="0" style="stop-color:#2aedff;stop-opacity:1"/><stop offset="0.06" style="stop-color:#29dbff;stop-opacity:1"/><stop offset="0.2" style="stop-color:#27b2ff;stop-opacity:1"/><stop offset="0.35" style="stop-color:#2690fe;stop-opacity:1"/><stop offset="0.5" style="stop-color:#2576fe;stop-opacity:1"/><stop offset="0.66" style="stop-color:#2464fe;stop-opacity:1"/><stop offset="0.82" style="stop-color:#2359fe;stop-opacity:1"/><stop offset="1" style="stop-color:#2355fe;stop-opacity:1"/></linearGradient><linearGradient id="_Linear21" x1="0" y1="0" x2="1" y2="0" gradientUnits="userSpaceOnUse" gradientTransform="matrix(-65.1031,7.97283e-15,-7.97283e-15,-65.1031,231.583,136.822)"><stop offset="0" style="stop-color:#97c9ff;stop-opacity:1"/><stop offset="0.16" style="stop-color:#91cbff;stop-opacity:1"/><stop offset="0.38" style="stop-color:#7fd1ff;stop-opacity:1"/><stop offset="0.63" style="stop-color:#61dbff;stop-opacity:1"/><stop offset="0.91" style="stop-color:#39e8ff;stop-opacity:1"/><stop offset="1" style="stop-color:#2aedff;stop-opacity:1"/></linearGradient><linearGradient id="_Linear22" x1="0" y1="0" x2="1" y2="0" gradientUnits="userSpaceOnUse" gradientTransform="matrix(-77.5247,9.49404e-15,-9.49404e-15,-77.5247,249.064,138.283)"><stop offset="0" style="stop-color:#97c9ff;stop-opacity:1"/><stop offset="0.16" style="stop-color:#91cbff;stop-opacity:1"/><stop offset="0.38" style="stop-color:#7fd1ff;stop-opacity:1"/><stop offset="0.63" style="stop-color:#61dbff;stop-opacity:1"/><stop offset="0.91" style="stop-color:#39e8ff;stop-opacity:1"/><stop offset="1" style="stop-color:#2aedff;stop-opacity:1"/></linearGradient><linearGradient id="_Linear23" x1="0" y1="0" x2="1" y2="0" gradientUnits="userSpaceOnUse" gradientTransform="matrix(-139.867,1.71288e-14,-1.71288e-14,-139.867,259.772,138.283)"><stop offset="0" style="stop-color:#9bc9ff;stop-opacity:1"/><stop offset="0" style="stop-color:#9ac8ff;stop-opacity:1"/><stop offset="0.19" style="stop-color:#79abff;stop-opacity:1"/><stop offset="0.38" style="stop-color:#5f94ff;stop-opacity:1"/><stop offset="0.57" style="stop-color:#4d84ff;stop-opacity:1"/><stop offset="0.78" style="stop-color:#427aff;stop-opacity:1"/><stop offset="1" style="stop-color:#3e77ff;stop-opacity:1"/></linearGradient></defs></svg>