<?xml version="1.0" encoding="UTF-8" standalone="no"?><!DOCTYPE svg PUBLIC "-//W3C//DTD SVG 1.1//EN" "http://www.w3.org/Graphics/SVG/1.1/DTD/svg11.dtd"><svg width="100%" height="100%" viewBox="0 0 356 229" version="1.1" xmlns="http://www.w3.org/2000/svg" xmlns:xlink="http://www.w3.org/1999/xlink" xml:space="preserve" xmlns:serif="http://www.serif.com/" style="fill-rule:evenodd;clip-rule:evenodd;stroke-linejoin:round;stroke-miterlimit:2;"><path d="M145.164,215.362l190.822,-110.208c2.219,-1.275 1.935,-3.519 -0.615,-5.007l-113.775,-65.685c-2.55,-1.488 -6.448,-1.63 -8.645,-0.355l-190.82,110.208c-2.22,1.275 -1.937,3.519 0.614,5.007l113.775,65.686c2.551,1.464 6.424,1.629 8.644,0.354Z" style="fill:#151cc1;fill-opacity:0.3;fill-rule:nonzero;"/><path d="M135.103,226.864l-132.363,-76.432c-1.748,-1.015 -2.74,-2.385 -2.74,-3.755c-0,-1.181 0.709,-2.244 2.008,-3l208.157,-120.246c2.716,-1.582 7.487,-1.393 10.605,0.425l132.363,76.433c1.747,1.015 2.741,2.385 2.741,3.755c-0,1.181 -0.71,2.244 -2.01,3l-208.156,120.245c-1.252,0.709 -2.906,1.064 -4.653,1.064c-2.055,-0 -4.252,-0.497 -5.952,-1.489Zm218.243,-120.765c0.968,-0.567 1.462,-1.275 1.462,-2.055c0,-0.992 -0.803,-2.008 -2.194,-2.811l-132.364,-76.432c-2.834,-1.63 -7.109,-1.819 -9.519,-0.425l-208.157,120.246c-0.968,0.567 -1.464,1.275 -1.464,2.055c0,0.992 0.803,2.007 2.197,2.811l132.362,76.432c2.835,1.629 7.086,1.819 9.519,0.425l208.158,-120.246Z" style="fill:#6affff;fill-rule:nonzero;"/><path d="M12.638,115.783l7.889,1.393l187.042,-108.011c2.314,-1.346 6.353,-1.157 9.022,0.378l106.995,61.765l13.866,2.432l-0,4.512c0.022,0.874 -0.472,1.7 -1.56,2.315l-193.371,111.672c-2.315,1.346 -6.353,1.157 -9.022,-0.378l-118.664,-68.496c-1.464,-0.851 -2.197,-1.913 -2.197,-2.929l0,-4.653Z" style="fill:#1b4efe;fill-rule:nonzero;"/><path d="M12.638,115.783l7.889,1.393l187.042,-108.011c2.314,-1.346 6.353,-1.157 9.022,0.378l106.995,61.765l13.866,2.432l-0,4.512c0.022,0.874 -0.472,1.7 -1.56,2.315l-193.371,111.672c-2.315,1.346 -6.353,1.157 -9.022,-0.378l-118.664,-68.496c-1.464,-0.851 -2.197,-1.913 -2.197,-2.929l0,-4.653Z" style="fill:url(#_Radial1);fill-rule:nonzero;"/><path d="M142.545,187.61l193.372,-111.672c2.313,-1.347 2.032,-3.662 -0.637,-5.22l-118.665,-68.496c-2.669,-1.536 -6.708,-1.701 -9.023,-0.378l-193.371,111.672c-2.315,1.346 -2.031,3.661 0.638,5.22l118.663,68.496c2.669,1.559 6.708,1.724 9.023,0.378Z" style="fill:#1b4efe;fill-rule:nonzero;"/><path d="M142.545,187.61l193.372,-111.672c2.313,-1.347 2.032,-3.662 -0.637,-5.22l-118.665,-68.496c-2.669,-1.536 -6.708,-1.701 -9.023,-0.378l-193.371,111.672c-2.315,1.346 -2.031,3.661 0.638,5.22l118.663,68.496c2.669,1.559 6.708,1.724 9.023,0.378Z" style="fill:url(#_Linear2);fill-rule:nonzero;"/><g opacity="0.4"><path d="M12.638,114.839l7.889,1.393l187.042,-108.011c2.314,-1.347 6.353,-1.158 9.022,0.378l106.995,61.764l13.866,2.433l-0,0.85c0.022,0.874 -0.472,1.701 -1.56,2.315l-193.371,111.672c-2.315,1.346 -6.353,1.157 -9.022,-0.378l-118.664,-68.496c-1.464,-0.85 -2.197,-1.913 -2.197,-2.929l0,-0.991Z" style="fill:url(#_Radial3);fill-rule:nonzero;"/><path d="M142.545,186.664l193.372,-111.672c2.313,-1.346 2.032,-3.661 -0.637,-5.219l-118.665,-68.497c-2.669,-1.535 -6.708,-1.7 -9.023,-0.377l-193.371,111.672c-2.315,1.346 -2.031,3.661 0.638,5.22l118.663,68.496c2.669,1.558 6.708,1.724 9.023,0.377Z" style="fill:url(#_Radial4);fill-rule:nonzero;"/><path d="M142.545,186.664l193.372,-111.672c2.313,-1.346 2.032,-3.661 -0.637,-5.219l-118.665,-68.497c-2.669,-1.535 -6.708,-1.7 -9.023,-0.377l-193.371,111.672c-2.315,1.346 -2.031,3.661 0.638,5.22l118.663,68.496c2.669,1.558 6.708,1.724 9.023,0.377Z" style="fill:#1b4efe;fill-opacity:0.4;fill-rule:nonzero;"/></g><path d="M142.543,186.664l193.371,-111.672c2.316,-1.346 2.032,-3.661 -0.637,-5.219l-118.664,-68.497c-2.669,-1.535 -6.708,-1.7 -9.022,-0.377l-193.372,111.672c-2.315,1.346 -2.031,3.661 0.638,5.22l118.663,68.496c2.669,1.558 6.708,1.724 9.023,0.377Z" style="fill:url(#_Radial5);fill-rule:nonzero;"/><path d="M142.543,186.664l193.371,-111.672c2.316,-1.346 2.032,-3.661 -0.637,-5.219l-118.664,-68.497c-2.669,-1.535 -6.708,-1.7 -9.022,-0.377l-193.372,111.672c-2.315,1.346 -2.031,3.661 0.638,5.22l118.663,68.496c2.669,1.558 6.708,1.724 9.023,0.377Z" style="fill:url(#_Radial6);fill-rule:nonzero;"/><path d="M141.455,186.617l193.372,-111.672c2.503,-1.511 2.953,-3.118 -0.638,-5.22l-118.664,-68.496c-1.204,-0.685 -2.692,-1.11 -4.157,-1.228c1.819,-0.024 3.732,0.401 5.22,1.275l118.664,68.497c2.669,1.535 2.953,3.873 0.637,5.219l-193.371,111.672c-1.276,0.733 -3.071,1.016 -4.866,0.851c1.441,-0 2.787,-0.307 3.803,-0.898Z" style="fill:url(#_Radial7);fill-rule:nonzero;"/><path d="M135.858,66.371l-21.399,12.353l6.944,4.039l21.399,-12.353l8.645,5.031l-21.399,12.353l6.944,4.039l21.399,-12.353l8.456,4.913l-0.071,12.707l-16.959,9.802c-0.449,0.26 -0.449,0.662 0,0.921l15.849,9.212l-6.921,3.991l8.054,4.677l17.667,-10.204l-8.054,-4.676l-9.187,5.291l-15.07,-8.763l16.18,-9.33l23.288,0l0.071,-13.51l16.368,-9.448l15.069,8.763l-8.03,4.629l8.054,4.677l8.031,-4.629l11.786,6.849l-8.031,4.63l8.054,4.676l17.667,-10.203l-8.054,-4.677l-8.03,4.63l-11.786,-6.85l8.03,-4.629l-8.054,-4.677l-8.031,4.629l-15.848,-9.211c-0.449,-0.26 -1.157,-0.26 -1.606,-0l-17.148,9.896l-21.54,0l-8.645,-5.031l21.163,-12.235l-6.944,-4.038l-21.163,12.234l-8.645,-5.031l21.163,-12.234l-6.944,-4.039l-21.163,12.235" style="fill:#2aedff;fill-rule:nonzero;"/><defs><radialGradient id="_Radial1" cx="0" cy="0" r="1" gradientUnits="userSpaceOnUse" gradientTransform="matrix(-255.676,-1.95775e-13,1.95775e-13,-255.676,386.324,126.507)"><stop offset="0" style="stop-color:#2aedff;stop-opacity:0.5"/><stop offset="0.03" style="stop-color:#27cffb;stop-opacity:0.5"/><stop offset="0.08" style="stop-color:#24abf6;stop-opacity:0.5"/><stop offset="0.14" style="stop-color:#218bf2;stop-opacity:0.5"/><stop offset="0.2" style="stop-color:#1e6fef;stop-opacity:0.5"/><stop offset="0.27" style="stop-color:#1c59ec;stop-opacity:0.5"/><stop offset="0.36" style="stop-color:#1b48ea;stop-opacity:0.5"/><stop offset="0.46" style="stop-color:#1a3de8;stop-opacity:0.5"/><stop offset="0.6" style="stop-color:#1936e7;stop-opacity:0.5"/><stop offset="1" style="stop-color:#1934e7;stop-opacity:0.5"/></radialGradient><linearGradient id="_Linear2" x1="0" y1="0" x2="1" y2="0" gradientUnits="userSpaceOnUse" gradientTransform="matrix(-324.826,3.97797e-14,-3.97797e-14,-324.826,337.467,94.7263)"><stop offset="0" style="stop-color:#172cd8;stop-opacity:0.7"/><stop offset="0.1" style="stop-color:#1835da;stop-opacity:0.7"/><stop offset="0.27" style="stop-color:#1a4cde;stop-opacity:0.7"/><stop offset="0.48" style="stop-color:#1e72e6;stop-opacity:0.7"/><stop offset="0.72" style="stop-color:#23a6f1;stop-opacity:0.7"/><stop offset="0.98" style="stop-color:#2ae9fe;stop-opacity:0.7"/><stop offset="1" style="stop-color:#2aedff;stop-opacity:0.7"/></linearGradient><radialGradient id="_Radial3" cx="0" cy="0" r="1" gradientUnits="userSpaceOnUse" gradientTransform="matrix(-130.873,-1.00211e-13,1.00211e-13,-130.873,340.692,125.611)"><stop offset="0" style="stop-color:#2aedff;stop-opacity:0.5"/><stop offset="0.02" style="stop-color:#2ae9fe;stop-opacity:0.5"/><stop offset="0.28" style="stop-color:#23a6f1;stop-opacity:0.5"/><stop offset="0.52" style="stop-color:#1e72e6;stop-opacity:0.5"/><stop offset="0.73" style="stop-color:#1a4cde;stop-opacity:0.5"/><stop offset="0.9" style="stop-color:#1835da;stop-opacity:0.5"/><stop offset="1" style="stop-color:#172cd8;stop-opacity:0.5"/></radialGradient><radialGradient id="_Radial4" cx="0" cy="0" r="1" gradientUnits="userSpaceOnUse" gradientTransform="matrix(-269.866,-2.0664e-13,2.0664e-13,-269.866,333.367,95.4741)"><stop offset="0" style="stop-color:#2aedff;stop-opacity:0.7"/><stop offset="0.02" style="stop-color:#2ae9fe;stop-opacity:0.7"/><stop offset="0.28" style="stop-color:#23a6f1;stop-opacity:0.7"/><stop offset="0.52" style="stop-color:#1e72e6;stop-opacity:0.7"/><stop offset="0.73" style="stop-color:#1a4cde;stop-opacity:0.7"/><stop offset="0.9" style="stop-color:#1835da;stop-opacity:0.7"/><stop offset="1" style="stop-color:#172cd8;stop-opacity:0.7"/></radialGradient><radialGradient id="_Radial5" cx="0" cy="0" r="1" gradientUnits="userSpaceOnUse" gradientTransform="matrix(-220.851,-1.69109e-13,1.69109e-13,-220.851,311.955,108.435)"><stop offset="0" style="stop-color:#2aedff;stop-opacity:0.5"/><stop offset="0.02" style="stop-color:#2ae9fe;stop-opacity:0.5"/><stop offset="0.28" style="stop-color:#23a6f1;stop-opacity:0.5"/><stop offset="0.52" style="stop-color:#1e72e6;stop-opacity:0.5"/><stop offset="0.73" style="stop-color:#1a4cde;stop-opacity:0.5"/><stop offset="0.9" style="stop-color:#1835da;stop-opacity:0.5"/><stop offset="1" style="stop-color:#172cd8;stop-opacity:0.5"/></radialGradient><radialGradient id="_Radial6" cx="0" cy="0" r="1" gradientUnits="userSpaceOnUse" gradientTransform="matrix(-312.178,-2.39039e-13,2.39039e-13,-312.178,340.689,109.562)"><stop offset="0" style="stop-color:#2aedff;stop-opacity:0.5"/><stop offset="0.02" style="stop-color:#2ae9fe;stop-opacity:0.5"/><stop offset="0.28" style="stop-color:#23a6f1;stop-opacity:0.5"/><stop offset="0.52" style="stop-color:#1e72e6;stop-opacity:0.5"/><stop offset="0.73" style="stop-color:#1a4cde;stop-opacity:0.5"/><stop offset="0.9" style="stop-color:#1835da;stop-opacity:0.5"/><stop offset="1" style="stop-color:#172cd8;stop-opacity:0.5"/></radialGradient><radialGradient id="_Radial7" cx="0" cy="0" r="1" gradientUnits="userSpaceOnUse" gradientTransform="matrix(-396.312,-3.03462e-13,3.03462e-13,-396.312,340.505,108.434)"><stop offset="0" style="stop-color:#2aedff;stop-opacity:0.9"/><stop offset="0.02" style="stop-color:#2ae9fe;stop-opacity:0.9"/><stop offset="0.28" style="stop-color:#23a6f1;stop-opacity:0.9"/><stop offset="0.52" style="stop-color:#1e72e6;stop-opacity:0.9"/><stop offset="0.73" style="stop-color:#1a4cde;stop-opacity:0.9"/><stop offset="0.9" style="stop-color:#1835da;stop-opacity:0.9"/><stop offset="1" style="stop-color:#172cd8;stop-opacity:0.9"/></radialGradient></defs></svg>