<?xml version="1.0" encoding="UTF-8" standalone="no"?><!DOCTYPE svg PUBLIC "-//W3C//DTD SVG 1.1//EN" "http://www.w3.org/Graphics/SVG/1.1/DTD/svg11.dtd"><svg width="100%" height="100%" viewBox="0 0 350 225" version="1.1" xmlns="http://www.w3.org/2000/svg" xmlns:xlink="http://www.w3.org/1999/xlink" xml:space="preserve" xmlns:serif="http://www.serif.com/" style="fill-rule:evenodd;clip-rule:evenodd;stroke-linejoin:round;stroke-miterlimit:2;"><path d="M142.543,211.535l187.418,-108.247c2.175,-1.252 1.915,-3.448 -0.613,-4.913l-111.743,-64.504c-2.527,-1.441 -6.33,-1.606 -8.503,-0.354l-187.419,108.247c-2.173,1.252 -1.914,3.448 0.614,4.913l111.743,64.504c2.527,1.441 6.33,1.606 8.503,0.354Z" style="fill:#151cc1;fill-opacity:0.3;fill-rule:nonzero;"/><path d="M132.693,222.826l-130,-75.063c-1.701,-0.992 -2.693,-2.338 -2.693,-3.684c-0,-1.158 0.709,-2.197 1.984,-2.953l204.449,-118.096c2.669,-1.559 7.369,-1.37 10.416,0.401l129.999,75.062c1.703,0.992 2.694,2.339 2.694,3.685c0,1.157 -0.709,2.197 -1.984,2.952l-204.448,118.097c-1.229,0.709 -2.859,1.039 -4.559,1.039c-2.055,0.024 -4.204,-0.472 -5.858,-1.44Zm214.321,-118.617c0.947,-0.543 1.441,-1.252 1.441,-2.007c-0,-0.969 -0.779,-1.985 -2.147,-2.764l-130.002,-75.062c-2.787,-1.606 -6.968,-1.795 -9.354,-0.402l-204.448,118.097c-0.945,0.543 -1.441,1.252 -1.441,2.008c-0,0.968 0.779,1.984 2.149,2.763l130.001,75.062c2.763,1.606 6.968,1.795 9.353,0.402l204.448,-118.097Z" style="fill:#6affff;fill-rule:nonzero;"/><path d="M12.403,113.728l7.747,1.37l183.687,-106.098c2.268,-1.322 6.236,-1.157 8.858,0.378l105.081,60.678l13.629,2.386l-0,4.44c0.025,0.85 -0.472,1.677 -1.535,2.268l-189.923,109.688c-2.267,1.323 -6.236,1.157 -8.857,-0.378l-116.538,-67.292c-1.441,-0.826 -2.149,-1.889 -2.173,-2.881l0,-4.559l0.024,0Z" style="fill:#1b4efe;fill-rule:nonzero;"/><path d="M12.403,113.728l7.747,1.37l183.687,-106.098c2.268,-1.322 6.236,-1.157 8.858,0.378l105.081,60.678l13.629,2.386l-0,4.44c0.025,0.85 -0.472,1.677 -1.535,2.268l-189.923,109.688c-2.267,1.323 -6.236,1.157 -8.857,-0.378l-116.538,-67.292c-1.441,-0.826 -2.149,-1.889 -2.173,-2.881l0,-4.559l0.024,0Z" style="fill:url(#_Radial1);fill-rule:nonzero;"/><path d="M139.997,184.279l189.923,-109.688c2.266,-1.323 1.985,-3.614 -0.637,-5.126l-116.538,-67.291c-2.622,-1.512 -6.59,-1.677 -8.858,-0.378l-189.946,109.712c-2.268,1.322 -1.984,3.614 0.637,5.125l116.538,67.292c2.622,1.511 6.59,1.677 8.881,0.354Z" style="fill:#1b4efe;fill-rule:nonzero;"/><path d="M139.997,184.279l189.923,-109.688c2.266,-1.323 1.985,-3.614 -0.637,-5.126l-116.538,-67.291c-2.622,-1.512 -6.59,-1.677 -8.858,-0.378l-189.946,109.712c-2.268,1.322 -1.984,3.614 0.637,5.125l116.538,67.292c2.622,1.511 6.59,1.677 8.881,0.354Z" style="fill:url(#_Linear2);fill-rule:nonzero;"/><g opacity="0.4"><path d="M12.403,112.783l7.747,1.37l183.687,-106.098c2.268,-1.323 6.236,-1.157 8.858,0.378l105.081,60.678l13.629,2.386l-0,0.826c0.025,0.851 -0.472,1.677 -1.535,2.268l-189.923,109.688c-2.267,1.323 -6.236,1.157 -8.857,-0.378l-116.538,-67.291c-1.441,-0.827 -2.149,-1.89 -2.173,-2.882l0,-0.945l0.024,0Z" style="fill:url(#_Radial3);fill-rule:nonzero;"/><path d="M139.997,183.358l189.923,-109.688c2.269,-1.323 1.985,-3.614 -0.637,-5.126l-116.538,-67.291c-2.622,-1.512 -6.59,-1.677 -8.857,-0.378l-189.923,109.688c-2.268,1.323 -1.984,3.614 0.637,5.125l116.538,67.292c2.598,1.512 6.566,1.677 8.857,0.378Z" style="fill:url(#_Radial4);fill-rule:nonzero;"/><path d="M139.997,183.358l189.923,-109.688c2.269,-1.323 1.985,-3.614 -0.637,-5.126l-116.538,-67.291c-2.622,-1.512 -6.59,-1.677 -8.857,-0.378l-189.923,109.688c-2.268,1.323 -1.984,3.614 0.637,5.125l116.538,67.292c2.598,1.512 6.566,1.677 8.857,0.378Z" style="fill:#1b4efe;fill-opacity:0.4;fill-rule:nonzero;"/></g><path d="M139.992,183.358l189.922,-109.688c2.269,-1.323 1.984,-3.614 -0.638,-5.126l-116.537,-67.291c-2.622,-1.512 -6.59,-1.677 -8.857,-0.378l-189.923,109.688c-2.268,1.323 -1.984,3.614 0.638,5.125l116.537,67.292c2.598,1.512 6.567,1.677 8.858,0.378Z" style="fill:url(#_Radial5);fill-rule:nonzero;"/><path d="M139.992,183.358l189.922,-109.688c2.269,-1.323 1.984,-3.614 -0.638,-5.126l-116.537,-67.291c-2.622,-1.512 -6.59,-1.677 -8.857,-0.378l-189.923,109.688c-2.268,1.323 -1.984,3.614 0.638,5.125l116.537,67.292c2.598,1.512 6.567,1.677 8.858,0.378Z" style="fill:url(#_Radial6);fill-rule:nonzero;"/><path d="M138.928,183.311l189.923,-109.689c2.457,-1.488 2.904,-3.07 -0.637,-5.125l-116.539,-67.291c-1.181,-0.685 -2.645,-1.087 -4.086,-1.205c1.772,-0.024 3.661,0.401 5.126,1.252l116.536,67.291c2.622,1.512 2.907,3.803 0.638,5.126l-189.922,109.688c-1.252,0.732 -3.023,0.992 -4.795,0.85c1.418,-0.024 2.764,-0.307 3.756,-0.897Z" style="fill:url(#_Radial7);fill-rule:nonzero;"/><path d="M112.829,69.796l12.235,-7.062l-2.669,-1.535l-12.211,7.062l2.645,1.535Z" style="fill:#2aedff;fill-rule:nonzero;"/><path d="M102.413,75.819l6.094,-3.543l-2.646,-1.535l-6.117,3.543l2.669,1.535Z" style="fill:#2aedff;fill-rule:nonzero;"/><path d="M115.475,75.488l5.22,-3.023l-2.669,-1.535l-5.22,3.023l2.669,1.535Z" style="fill:#2aedff;fill-rule:nonzero;"/><path d="M106.759,80.519l6.118,-3.519l-2.669,-1.535l-6.118,3.519l2.669,1.535Z" style="fill:#2aedff;fill-rule:nonzero;"/><path d="M102.909,89.967l24.044,-13.888l-2.669,-1.535l-24.044,13.864l2.669,1.559Z" style="fill:#2aedff;fill-rule:nonzero;"/><path d="M171.476,117.412l24.02,-13.864l-2.669,-1.559l-24.02,13.888l2.669,1.535Z" style="fill:#2aedff;fill-rule:nonzero;"/><path d="M162.241,122.751l6.118,-3.544l-2.669,-1.535l-6.118,3.543l2.669,1.536Z" style="fill:#2aedff;fill-rule:nonzero;"/><path d="M127.993,82.692l5.196,-2.999l-2.669,-1.536l-5.196,3l2.669,1.535Z" style="fill:#2aedff;fill-rule:nonzero;"/><path d="M119.253,87.747l6.118,-3.543l-2.669,-1.535l-6.118,3.543l2.669,1.535Z" style="fill:#2aedff;fill-rule:nonzero;"/><path d="M126.246,90.935l13.203,-7.629l-2.669,-1.535l-13.203,7.629l2.669,1.535Z" style="fill:#2aedff;fill-rule:nonzero;"/><path d="M117.387,96.037l6.117,-3.543l-2.669,-1.535l-6.117,3.543l2.669,1.535Z" style="fill:#2aedff;fill-rule:nonzero;"/><path d="M108.507,101.162l6.117,-3.519l-2.669,-1.535l-6.117,3.519l2.669,1.535Z" style="fill:#2aedff;fill-rule:nonzero;"/><path d="M94.169,109.453l11.574,-6.685l-2.669,-1.535l-11.574,6.684l2.669,1.536Z" style="fill:#2aedff;fill-rule:nonzero;"/><path d="M113.608,112.665l6.118,-3.543l-2.669,-1.535l-6.118,3.543l2.669,1.535Z" style="fill:#2aedff;fill-rule:nonzero;"/><path d="M99.272,120.932l11.55,-6.661l-2.669,-1.559l-11.55,6.685l2.669,1.535Z" style="fill:#2aedff;fill-rule:nonzero;"/><path d="M145.826,94.053l6.117,-3.519l-2.668,-1.559l-6.094,3.543l2.645,1.535Z" style="fill:#2aedff;fill-rule:nonzero;"/><path d="M136.943,99.178l6.118,-3.519l-2.669,-1.535l-6.117,3.519l2.668,1.535Z" style="fill:#2aedff;fill-rule:nonzero;"/><path d="M122.607,107.469l11.574,-6.684l-2.669,-1.536l-11.574,6.684l2.669,1.536Z" style="fill:#2aedff;fill-rule:nonzero;"/><path d="M98.681,114.058l6.093,-3.519l-2.645,-1.535l-6.118,3.519l2.67,1.535Z" style="fill:#2aedff;fill-rule:nonzero;"/><path d="M89.776,119.184l6.117,-3.519l-2.669,-1.536l-6.117,3.52l2.669,1.535Z" style="fill:#2aedff;fill-rule:nonzero;"/><path d="M152.674,128.277l6.118,-3.542l-2.669,-1.536l-6.118,3.519l2.669,1.559Z" style="fill:#2aedff;fill-rule:nonzero;"/><path d="M138.338,136.544l11.574,-6.684l-2.669,-1.535l-11.574,6.684l2.669,1.535Z" style="fill:#2aedff;fill-rule:nonzero;"/><path d="M158.342,101.28l6.118,-3.543l-2.669,-1.535l-6.118,3.52l2.669,1.558Z" style="fill:#2aedff;fill-rule:nonzero;"/><path d="M144.006,109.547l11.55,-6.684l-2.669,-1.535l-11.55,6.684l2.669,1.535Z" style="fill:#2aedff;fill-rule:nonzero;"/><path d="M151.164,136.355l6.117,-3.519l-2.669,-1.535l-6.117,3.519l2.669,1.535Z" style="fill:#2aedff;fill-rule:nonzero;"/><path d="M136.802,144.646l11.574,-6.684l-2.669,-1.536l-11.55,6.684l2.645,1.536Z" style="fill:#2aedff;fill-rule:nonzero;"/><path d="M84.652,100.501l6.094,-3.519l-2.645,-1.535l-6.118,3.519l2.669,1.535Z" style="fill:#2aedff;fill-rule:nonzero;"/><path d="M93.887,95.163l6.117,-3.519l-2.669,-1.535l-6.117,3.519l2.669,1.535Z" style="fill:#2aedff;fill-rule:nonzero;"/><path d="M70.291,108.792l11.573,-6.685l-2.669,-1.535l-11.573,6.685l2.669,1.535Z" style="fill:#2aedff;fill-rule:nonzero;"/><path d="M140.18,90.109l5.527,-3.189l-2.669,-1.535l-5.527,3.165l2.669,1.559Z" style="fill:#2aedff;fill-rule:nonzero;"/><path d="M123.836,99.533l13.392,-7.724l-2.669,-1.535l-13.392,7.724l2.669,1.535Z" style="fill:#2aedff;fill-rule:nonzero;"/><path d="M107.469,108.981l13.416,-7.748l-2.669,-1.535l-13.416,7.747l2.669,1.536Z" style="fill:#2aedff;fill-rule:nonzero;"/><path d="M144.668,101.942l13.416,-7.747l-2.669,-1.536l-13.415,7.748l2.668,1.535Z" style="fill:#2aedff;fill-rule:nonzero;"/><path d="M137.606,106.028l4.11,-2.386l-2.669,-1.535l-4.11,2.386l2.669,1.535Z" style="fill:#2aedff;fill-rule:nonzero;"/><path d="M130.52,110.114l4.11,-2.385l-2.645,-1.536l-4.134,2.386l2.669,1.535Z" style="fill:#2aedff;fill-rule:nonzero;"/><path d="M117.434,117.672l10.133,-5.857l-2.669,-1.535l-10.133,5.857l2.669,1.535Z" style="fill:#2aedff;fill-rule:nonzero;"/><path d="M114.672,119.255l10.133,-5.834l-2.669,-1.559l-10.133,5.857l2.669,1.536Z" style="fill:#2aedff;fill-rule:nonzero;"/><path d="M87.321,113.397l4.133,-2.385l-2.669,-1.535l-4.109,2.385l2.645,1.535Z" style="fill:#2aedff;fill-rule:nonzero;"/><path d="M184.185,124.522l13.203,-7.629l-2.669,-1.535l-13.203,7.629l2.669,1.535Z" style="fill:#2aedff;fill-rule:nonzero;"/><path d="M175.326,129.624l6.117,-3.543l-2.669,-1.535l-6.117,3.543l2.669,1.535Z" style="fill:#2aedff;fill-rule:nonzero;"/><path d="M166.444,134.749l6.117,-3.519l-2.669,-1.535l-6.117,3.519l2.669,1.535Z" style="fill:#2aedff;fill-rule:nonzero;"/><path d="M152.108,143.04l11.573,-6.685l-2.669,-1.535l-11.573,6.684l2.669,1.536Z" style="fill:#2aedff;fill-rule:nonzero;"/><path d="M171.83,146.087l6.117,-3.543l-2.669,-1.536l-6.117,3.52l2.669,1.559Z" style="fill:#2aedff;fill-rule:nonzero;"/><path d="M157.494,154.353l11.573,-6.684l-2.669,-1.535l-11.573,6.684l2.669,1.535Z" style="fill:#2aedff;fill-rule:nonzero;"/><path d="M203.763,127.64l6.117,-3.519l-2.669,-1.559l-6.117,3.543l2.669,1.535Z" style="fill:#2aedff;fill-rule:nonzero;"/><path d="M194.882,132.765l6.118,-3.519l-2.669,-1.535l-6.118,3.519l2.669,1.535Z" style="fill:#2aedff;fill-rule:nonzero;"/><path d="M180.546,141.056l11.574,-6.685l-2.669,-1.535l-11.574,6.684l2.669,1.536Z" style="fill:#2aedff;fill-rule:nonzero;"/><path d="M198.119,123.695l5.503,-3.188l-2.645,-1.536l-5.527,3.165l2.669,1.559Z" style="fill:#2aedff;fill-rule:nonzero;"/><path d="M181.751,133.119l13.416,-7.723l-2.669,-1.535l-13.392,7.723l2.645,1.535Z" style="fill:#2aedff;fill-rule:nonzero;"/><path d="M165.406,142.567l13.416,-7.723l-2.669,-1.559l-13.416,7.747l2.669,1.535Z" style="fill:#2aedff;fill-rule:nonzero;"/><path d="M213.423,129.293l13.416,-7.747l-2.669,-1.535l-13.416,7.723l2.669,1.559Z" style="fill:#2aedff;fill-rule:nonzero;"/><path d="M206.361,133.356l4.11,-2.362l-2.669,-1.535l-4.109,2.362l2.668,1.535Z" style="fill:#2aedff;fill-rule:nonzero;"/><path d="M199.276,137.465l4.11,-2.385l-2.669,-1.535l-4.11,2.362l2.669,1.558Z" style="fill:#2aedff;fill-rule:nonzero;"/><path d="M186.166,145.023l10.133,-5.857l-2.645,-1.535l-10.133,5.834l2.645,1.558Z" style="fill:#2aedff;fill-rule:nonzero;"/><path d="M183.426,146.606l10.133,-5.857l-2.669,-1.536l-10.133,5.858l2.669,1.535Z" style="fill:#2aedff;fill-rule:nonzero;"/><path d="M186.828,115.759l4.11,-2.362l-2.669,-1.535l-4.11,2.362l2.669,1.535Z" style="fill:#2aedff;fill-rule:nonzero;"/><path d="M173.72,123.317l10.132,-5.834l-2.669,-1.535l-10.109,5.834l2.646,1.535Z" style="fill:#2aedff;fill-rule:nonzero;"/><path d="M160.351,131.041l10.132,-5.834l-2.669,-1.535l-10.133,5.834l2.67,1.535Z" style="fill:#2aedff;fill-rule:nonzero;"/><path d="M177.097,97.667l4.11,-2.386l-2.669,-1.535l-4.109,2.386l2.668,1.535Z" style="fill:#2aedff;fill-rule:nonzero;"/><path d="M163.989,105.225l10.132,-5.858l-2.669,-1.535l-10.132,5.858l2.669,1.535Z" style="fill:#2aedff;fill-rule:nonzero;"/><path d="M150.62,112.949l10.133,-5.858l-2.669,-1.535l-10.133,5.857l2.669,1.536Z" style="fill:#2aedff;fill-rule:nonzero;"/><path d="M239.617,110.539l-12.235,7.062l2.669,1.535l12.211,-7.062l-2.645,-1.535Z" style="fill:#2aedff;fill-rule:nonzero;"/><path d="M250.033,104.516l-6.117,3.543l2.668,1.535l6.118,-3.543l-2.669,-1.535Z" style="fill:#2aedff;fill-rule:nonzero;"/><path d="M236.971,104.847l-5.22,2.999l2.669,1.559l5.196,-3.023l-2.645,-1.535Z" style="fill:#2aedff;fill-rule:nonzero;"/><path d="M245.688,99.816l-6.117,3.519l2.669,1.535l6.117,-3.519l-2.669,-1.535Z" style="fill:#2aedff;fill-rule:nonzero;"/><path d="M249.537,90.368l-24.044,13.888l2.669,1.536l24.02,-13.865l-2.645,-1.559Z" style="fill:#2aedff;fill-rule:nonzero;"/><path d="M180.97,62.922l-24.021,13.865l2.645,1.559l24.045,-13.889l-2.669,-1.535Z" style="fill:#2aedff;fill-rule:nonzero;"/><path d="M190.206,57.584l-6.117,3.543l2.668,1.535l6.118,-3.542l-2.669,-1.536Z" style="fill:#2aedff;fill-rule:nonzero;"/><path d="M224.453,97.619l-5.196,3.023l2.669,1.535l5.196,-2.999l-2.669,-1.559Z" style="fill:#2aedff;fill-rule:nonzero;"/><path d="M233.191,92.588l-6.117,3.543l2.669,1.535l6.117,-3.543l-2.669,-1.535Z" style="fill:#2aedff;fill-rule:nonzero;"/><path d="M226.202,89.4l-13.203,7.629l2.669,1.535l13.203,-7.629l-2.669,-1.535Z" style="fill:#2aedff;fill-rule:nonzero;"/><path d="M235.059,84.298l-6.118,3.543l2.67,1.535l6.093,-3.543l-2.645,-1.535Z" style="fill:#2aedff;fill-rule:nonzero;"/><path d="M243.939,79.172l-6.117,3.52l2.669,1.535l6.117,-3.519l-2.669,-1.536Z" style="fill:#2aedff;fill-rule:nonzero;"/><path d="M258.276,70.882l-11.574,6.684l2.669,1.536l11.574,-6.685l-2.669,-1.535Z" style="fill:#2aedff;fill-rule:nonzero;"/><path d="M238.839,67.67l-6.118,3.543l2.67,1.535l6.117,-3.543l-2.669,-1.535Z" style="fill:#2aedff;fill-rule:nonzero;"/><path d="M253.175,59.403l-11.55,6.661l2.645,1.535l11.574,-6.661l-2.669,-1.535Z" style="fill:#2aedff;fill-rule:nonzero;"/><path d="M206.621,86.282l-6.118,3.519l2.669,1.559l6.094,-3.543l-2.645,-1.535Z" style="fill:#2aedff;fill-rule:nonzero;"/><path d="M215.502,81.156l-6.117,3.52l2.669,1.535l6.117,-3.519l-2.669,-1.536Z" style="fill:#2aedff;fill-rule:nonzero;"/><path d="M229.839,72.866l-11.574,6.684l2.669,1.536l11.574,-6.685l-2.669,-1.535Z" style="fill:#2aedff;fill-rule:nonzero;"/><path d="M253.766,66.276l-6.118,3.52l2.669,1.535l6.118,-3.519l-2.669,-1.536Z" style="fill:#2aedff;fill-rule:nonzero;"/><path d="M262.669,61.151l-6.118,3.519l2.67,1.536l6.093,-3.52l-2.645,-1.535Z" style="fill:#2aedff;fill-rule:nonzero;"/><path d="M199.771,52.057l-6.117,3.543l2.669,1.536l6.118,-3.52l-2.67,-1.559Z" style="fill:#2aedff;fill-rule:nonzero;"/><path d="M214.108,43.791l-11.574,6.684l2.669,1.536l11.574,-6.685l-2.669,-1.535Z" style="fill:#2aedff;fill-rule:nonzero;"/><path d="M194.102,79.054l-6.117,3.543l2.669,1.535l6.117,-3.519l-2.669,-1.559Z" style="fill:#2aedff;fill-rule:nonzero;"/><path d="M208.439,70.787l-11.55,6.685l2.646,1.535l11.573,-6.684l-2.669,-1.536Z" style="fill:#2aedff;fill-rule:nonzero;"/><path d="M201.284,43.979l-6.118,3.52l2.67,1.535l6.117,-3.519l-2.669,-1.536Z" style="fill:#2aedff;fill-rule:nonzero;"/><path d="M215.619,35.689l-11.549,6.684l2.669,1.536l11.549,-6.685l-2.669,-1.535Z" style="fill:#2aedff;fill-rule:nonzero;"/><path d="M267.796,79.834l-6.094,3.519l2.645,1.535l6.118,-3.519l-2.669,-1.535Z" style="fill:#2aedff;fill-rule:nonzero;"/><path d="M258.561,85.172l-6.118,3.519l2.669,1.535l6.118,-3.519l-2.669,-1.535Z" style="fill:#2aedff;fill-rule:nonzero;"/><path d="M282.156,71.543l-11.574,6.685l2.669,1.535l11.55,-6.684l-2.645,-1.536Z" style="fill:#2aedff;fill-rule:nonzero;"/><path d="M212.266,90.226l-5.527,3.189l2.669,1.535l5.527,-3.165l-2.669,-1.559Z" style="fill:#2aedff;fill-rule:nonzero;"/><path d="M228.611,80.802l-13.392,7.724l2.669,1.535l13.392,-7.724l-2.669,-1.535Z" style="fill:#2aedff;fill-rule:nonzero;"/><path d="M244.979,71.354l-13.416,7.724l2.669,1.559l13.416,-7.747l-2.669,-1.536Z" style="fill:#2aedff;fill-rule:nonzero;"/><path d="M207.778,78.393l-13.416,7.747l2.669,1.536l13.416,-7.748l-2.669,-1.535Z" style="fill:#2aedff;fill-rule:nonzero;"/><path d="M214.841,74.307l-4.11,2.385l2.645,1.535l4.134,-2.385l-2.669,-1.535Z" style="fill:#2aedff;fill-rule:nonzero;"/><path d="M221.926,70.221l-4.134,2.385l2.669,1.536l4.134,-2.386l-2.669,-1.535Z" style="fill:#2aedff;fill-rule:nonzero;"/><path d="M235.011,62.663l-10.133,5.857l2.669,1.536l10.133,-5.858l-2.669,-1.535Z" style="fill:#2aedff;fill-rule:nonzero;"/><path d="M237.776,61.08l-10.133,5.834l2.669,1.535l10.133,-5.834l-2.669,-1.535Z" style="fill:#2aedff;fill-rule:nonzero;"/><path d="M265.126,66.937l-4.134,2.386l2.669,1.535l4.11,-2.385l-2.645,-1.536Z" style="fill:#2aedff;fill-rule:nonzero;"/><path d="M168.264,55.813l-13.203,7.629l2.669,1.535l13.203,-7.629l-2.669,-1.535Z" style="fill:#2aedff;fill-rule:nonzero;"/><path d="M177.121,50.711l-6.117,3.519l2.669,1.559l6.094,-3.543l-2.646,-1.535Z" style="fill:#2aedff;fill-rule:nonzero;"/><path d="M186,45.586l-6.117,3.519l2.669,1.535l6.117,-3.519l-2.669,-1.535Z" style="fill:#2aedff;fill-rule:nonzero;"/><path d="M200.338,37.295l-11.573,6.685l2.669,1.535l11.573,-6.684l-2.669,-1.536Z" style="fill:#2aedff;fill-rule:nonzero;"/><path d="M180.616,34.248l-6.117,3.544l2.669,1.535l6.093,-3.52l-2.645,-1.559Z" style="fill:#2aedff;fill-rule:nonzero;"/><path d="M194.952,25.982l-11.573,6.684l2.669,1.535l11.573,-6.684l-2.669,-1.535Z" style="fill:#2aedff;fill-rule:nonzero;"/><path d="M148.683,52.695l-6.117,3.52l2.669,1.558l6.093,-3.542l-2.645,-1.536Z" style="fill:#2aedff;fill-rule:nonzero;"/><path d="M157.563,47.57l-6.117,3.519l2.669,1.535l6.117,-3.519l-2.669,-1.535Z" style="fill:#2aedff;fill-rule:nonzero;"/><path d="M171.901,39.28l-11.574,6.684l2.669,1.535l11.574,-6.684l-2.669,-1.535Z" style="fill:#2aedff;fill-rule:nonzero;"/><path d="M154.327,56.639l-5.527,3.189l2.669,1.535l5.527,-3.165l-2.669,-1.559Z" style="fill:#2aedff;fill-rule:nonzero;"/><path d="M170.672,47.216l-13.392,7.723l2.669,1.535l13.392,-7.723l-2.669,-1.535Z" style="fill:#2aedff;fill-rule:nonzero;"/><path d="M187.041,37.767l-13.415,7.724l2.669,1.559l13.416,-7.747l-2.67,-1.536Z" style="fill:#2aedff;fill-rule:nonzero;"/><path d="M139.022,51.042l-13.416,7.747l2.669,1.535l13.416,-7.747l-2.669,-1.535Z" style="fill:#2aedff;fill-rule:nonzero;"/><path d="M146.085,46.979l-4.11,2.362l2.669,1.536l4.11,-2.362l-2.669,-1.536Z" style="fill:#2aedff;fill-rule:nonzero;"/><path d="M153.171,42.87l-4.11,2.385l2.669,1.535l4.109,-2.362l-2.668,-1.558Z" style="fill:#2aedff;fill-rule:nonzero;"/><path d="M166.257,35.311l-10.109,5.858l2.645,1.535l10.133,-5.857l-2.669,-1.536Z" style="fill:#2aedff;fill-rule:nonzero;"/><path d="M169.018,33.729l-10.132,5.858l2.669,1.535l10.132,-5.858l-2.669,-1.535Z" style="fill:#2aedff;fill-rule:nonzero;"/><path d="M165.619,64.575l-4.11,2.362l2.669,1.535l4.109,-2.361l-2.668,-1.536Z" style="fill:#2aedff;fill-rule:nonzero;"/><path d="M178.703,56.994l-10.109,5.858l2.646,1.535l10.132,-5.834l-2.669,-1.559Z" style="fill:#2aedff;fill-rule:nonzero;"/><path d="M192.094,49.271l-10.133,5.857l2.669,1.535l10.133,-5.834l-2.669,-1.558Z" style="fill:#2aedff;fill-rule:nonzero;"/><path d="M175.349,82.668l-4.11,2.386l2.669,1.535l4.11,-2.386l-2.669,-1.535Z" style="fill:#2aedff;fill-rule:nonzero;"/><path d="M188.456,75.11l-10.133,5.858l2.669,1.535l10.109,-5.858l-2.645,-1.535Z" style="fill:#2aedff;fill-rule:nonzero;"/><path d="M201.826,67.387l-10.133,5.857l2.669,1.535l10.133,-5.857l-2.669,-1.535Z" style="fill:#2aedff;fill-rule:nonzero;"/><defs><radialGradient id="_Radial1" cx="0" cy="0" r="1" gradientUnits="userSpaceOnUse" gradientTransform="matrix(-251.12,-1.92286e-13,1.92286e-13,-251.12,379.426,124.262)"><stop offset="0" style="stop-color:#2aedff;stop-opacity:0.5"/><stop offset="0.03" style="stop-color:#27cffb;stop-opacity:0.5"/><stop offset="0.08" style="stop-color:#24abf6;stop-opacity:0.5"/><stop offset="0.14" style="stop-color:#218bf2;stop-opacity:0.5"/><stop offset="0.2" style="stop-color:#1e6fef;stop-opacity:0.5"/><stop offset="0.27" style="stop-color:#1c59ec;stop-opacity:0.5"/><stop offset="0.36" style="stop-color:#1b48ea;stop-opacity:0.5"/><stop offset="0.46" style="stop-color:#1a3de8;stop-opacity:0.5"/><stop offset="0.6" style="stop-color:#1936e7;stop-opacity:0.5"/><stop offset="1" style="stop-color:#1934e7;stop-opacity:0.5"/></radialGradient><linearGradient id="_Linear2" x1="0" y1="0" x2="1" y2="0" gradientUnits="userSpaceOnUse" gradientTransform="matrix(-319.037,3.90707e-14,-3.90707e-14,-319.037,331.439,93.0472)"><stop offset="0" style="stop-color:#172cd8;stop-opacity:0.7"/><stop offset="0.1" style="stop-color:#1835da;stop-opacity:0.7"/><stop offset="0.27" style="stop-color:#1a4cde;stop-opacity:0.7"/><stop offset="0.48" style="stop-color:#1e72e6;stop-opacity:0.7"/><stop offset="0.72" style="stop-color:#23a6f1;stop-opacity:0.7"/><stop offset="0.98" style="stop-color:#2ae9fe;stop-opacity:0.7"/><stop offset="1" style="stop-color:#2aedff;stop-opacity:0.7"/></linearGradient><radialGradient id="_Radial3" cx="0" cy="0" r="1" gradientUnits="userSpaceOnUse" gradientTransform="matrix(-128.54,-9.84251e-14,9.84251e-14,-128.54,334.605,123.382)"><stop offset="0" style="stop-color:#2aedff;stop-opacity:0.5"/><stop offset="0.02" style="stop-color:#2ae9fe;stop-opacity:0.5"/><stop offset="0.28" style="stop-color:#23a6f1;stop-opacity:0.5"/><stop offset="0.52" style="stop-color:#1e72e6;stop-opacity:0.5"/><stop offset="0.73" style="stop-color:#1a4cde;stop-opacity:0.5"/><stop offset="0.9" style="stop-color:#1835da;stop-opacity:0.5"/><stop offset="1" style="stop-color:#172cd8;stop-opacity:0.5"/></radialGradient><radialGradient id="_Radial4" cx="0" cy="0" r="1" gradientUnits="userSpaceOnUse" gradientTransform="matrix(-265.057,-2.02957e-13,2.02957e-13,-265.057,327.411,93.7818)"><stop offset="0" style="stop-color:#2aedff;stop-opacity:0.7"/><stop offset="0.02" style="stop-color:#2ae9fe;stop-opacity:0.7"/><stop offset="0.28" style="stop-color:#23a6f1;stop-opacity:0.7"/><stop offset="0.52" style="stop-color:#1e72e6;stop-opacity:0.7"/><stop offset="0.73" style="stop-color:#1a4cde;stop-opacity:0.7"/><stop offset="0.9" style="stop-color:#1835da;stop-opacity:0.7"/><stop offset="1" style="stop-color:#172cd8;stop-opacity:0.7"/></radialGradient><radialGradient id="_Radial5" cx="0" cy="0" r="1" gradientUnits="userSpaceOnUse" gradientTransform="matrix(-216.915,-1.66095e-13,1.66095e-13,-216.915,306.379,106.512)"><stop offset="0" style="stop-color:#2aedff;stop-opacity:0.5"/><stop offset="0.02" style="stop-color:#2ae9fe;stop-opacity:0.5"/><stop offset="0.28" style="stop-color:#23a6f1;stop-opacity:0.5"/><stop offset="0.52" style="stop-color:#1e72e6;stop-opacity:0.5"/><stop offset="0.73" style="stop-color:#1a4cde;stop-opacity:0.5"/><stop offset="0.9" style="stop-color:#1835da;stop-opacity:0.5"/><stop offset="1" style="stop-color:#172cd8;stop-opacity:0.5"/></radialGradient><radialGradient id="_Radial6" cx="0" cy="0" r="1" gradientUnits="userSpaceOnUse" gradientTransform="matrix(-306.614,-2.34779e-13,2.34779e-13,-306.614,334.598,107.618)"><stop offset="0" style="stop-color:#2aedff;stop-opacity:0.5"/><stop offset="0.02" style="stop-color:#2ae9fe;stop-opacity:0.5"/><stop offset="0.28" style="stop-color:#23a6f1;stop-opacity:0.5"/><stop offset="0.52" style="stop-color:#1e72e6;stop-opacity:0.5"/><stop offset="0.73" style="stop-color:#1a4cde;stop-opacity:0.5"/><stop offset="0.9" style="stop-color:#1835da;stop-opacity:0.5"/><stop offset="1" style="stop-color:#172cd8;stop-opacity:0.5"/></radialGradient><radialGradient id="_Radial7" cx="0" cy="0" r="1" gradientUnits="userSpaceOnUse" gradientTransform="matrix(-389.25,-2.98054e-13,2.98054e-13,-389.25,334.42,106.51)"><stop offset="0" style="stop-color:#2aedff;stop-opacity:0.9"/><stop offset="0.02" style="stop-color:#2ae9fe;stop-opacity:0.9"/><stop offset="0.28" style="stop-color:#23a6f1;stop-opacity:0.9"/><stop offset="0.52" style="stop-color:#1e72e6;stop-opacity:0.9"/><stop offset="0.73" style="stop-color:#1a4cde;stop-opacity:0.9"/><stop offset="0.9" style="stop-color:#1835da;stop-opacity:0.9"/><stop offset="1" style="stop-color:#172cd8;stop-opacity:0.9"/></radialGradient></defs></svg>