<?xml version="1.0" encoding="UTF-8" standalone="no"?><!DOCTYPE svg PUBLIC "-//W3C//DTD SVG 1.1//EN" "http://www.w3.org/Graphics/SVG/1.1/DTD/svg11.dtd"><svg width="100%" height="100%" viewBox="0 0 221 278" version="1.1" xmlns="http://www.w3.org/2000/svg" xmlns:xlink="http://www.w3.org/1999/xlink" xml:space="preserve" xmlns:serif="http://www.serif.com/" style="fill-rule:evenodd;clip-rule:evenodd;stroke-linejoin:round;stroke-miterlimit:2;"><path d="M220.18,201.532l-0,12.707l-110.09,63.56l-110.09,-63.56l0,-12.707l220.18,-0Z" style="fill:url(#_Linear1);fill-rule:nonzero;"/><path d="M110.089,265.067l-110.089,-63.536l110.089,-63.559l110.09,63.559l-110.09,63.536Z" style="fill:#97c9ff;fill-rule:nonzero;"/><path d="M110.09,263.603l-108.791,-62.828l-1.299,0.756l110.09,63.536l110.09,-63.536l-1.276,-0.756l-108.814,62.828Z" style="fill:#d2ffff;fill-rule:nonzero;"/><path d="M110.089,250.424l-84.651,-48.893l84.651,-48.891l84.675,48.891l-84.675,48.893Z" style="fill:#1621c9;fill-rule:nonzero;"/><path d="M110.09,250.424l-84.675,-48.893l84.675,-48.891l84.675,48.891l-84.675,48.893Z" style="fill:url(#_Linear2);fill-rule:nonzero;"/><path d="M110.09,140.334l84.675,48.868l0,12.33l-84.675,-48.892l-0,-12.306Z" style="fill:url(#_Linear3);fill-rule:nonzero;"/><path d="M110.09,152.64l-84.675,48.891l0,-12.329l84.675,-48.868l0,12.306Z" style="fill:url(#_Linear4);fill-rule:nonzero;"/><path d="M110.09,238.094l-84.675,-48.892l84.675,-48.868l84.676,48.868l-84.676,48.892Z" style="fill:url(#_Linear5);fill-rule:nonzero;"/><path d="M110.089,208.736l-33.823,-19.534l33.823,-19.533l33.846,19.533l-33.846,19.534Z" style="fill:#2aedff;fill-opacity:0.5;fill-rule:nonzero;"/><path d="M110.089,171.465l32.288,18.635l1.558,-0.898l-33.846,-19.533l-33.823,19.533l1.559,0.898l32.264,-18.635Z" style="fill:#2aedff;fill-opacity:0.5;fill-rule:nonzero;"/><path d="M110.09,238.094l-0,12.33l84.675,-48.892l0,-12.33l-84.675,48.892Z" style="fill:url(#_Linear6);fill-rule:nonzero;"/><path d="M25.415,189.202l-0,12.33l84.675,48.892l-0,-12.33l-84.675,-48.892Z" style="fill:url(#_Linear7);fill-rule:nonzero;"/><path d="M110.09,236.748l-83.494,-48.207l-1.181,0.661l84.675,48.892l84.675,-48.892l-1.157,-0.661l-83.518,48.207Z" style="fill:#2aedff;fill-opacity:0.8;fill-rule:nonzero;"/><path d="M112.263,135.68c3.613,0 6.542,-1.692 6.542,-3.779c0,-2.087 -2.929,-3.779 -6.542,-3.779c-3.614,0 -6.543,1.692 -6.543,3.779c-0,2.087 2.929,3.779 6.543,3.779Z" style="fill:url(#_Linear8);fill-rule:nonzero;"/><path d="M116.869,134.24c-2.551,1.464 -6.708,1.464 -9.259,-0c-1.205,-0.709 -1.842,-1.606 -1.913,-2.504c-0.071,1.016 0.543,2.055 1.913,2.834c2.551,1.465 6.708,1.465 9.259,0c1.346,-0.779 1.984,-1.818 1.913,-2.834c-0.071,0.921 -0.685,1.819 -1.913,2.504Z" style="fill:#d2ffff;fill-rule:nonzero;"/><path d="M116.869,147.278c2.551,-1.465 2.551,-3.874 -0,-5.338c-2.551,-1.465 -6.708,-1.465 -9.259,-0c-2.551,1.464 -2.551,3.873 0,5.338c2.575,1.464 6.708,1.464 9.259,-0Z" style="fill:url(#_Linear9);fill-rule:nonzero;"/><path d="M116.869,160.197c2.551,-1.464 2.551,-3.873 -0,-5.338c-2.551,-1.464 -6.708,-1.464 -9.259,0c-2.551,1.465 -2.551,3.874 0,5.338c2.575,1.488 6.708,1.488 9.259,0Z" style="fill:url(#_Linear10);fill-rule:nonzero;"/><path d="M105.726,131.901l-0,-6.613c-0,0.968 0.638,1.937 1.913,2.669c2.551,1.464 6.708,1.464 9.259,-0c1.228,-0.709 1.866,-1.653 1.913,-2.575l-0,-27.965l-13.085,0l-0,82.361c-0,3.613 2.928,6.542 6.542,6.542c3.614,0 6.543,-2.929 6.543,-6.542l-0,-22.321c0.047,0.993 -0.591,2.008 -1.913,2.764c-2.551,1.464 -6.708,1.464 -9.259,-0c-1.275,-0.732 -1.913,-1.701 -1.913,-2.669l-0,-6.614c-0,0.969 0.638,1.937 1.913,2.669c2.551,1.465 6.708,1.465 9.259,0c1.228,-0.708 1.866,-1.653 1.913,-2.574l-0,-6.495c0.047,0.992 -0.591,2.007 -1.913,2.763c-2.551,1.464 -6.708,1.464 -9.259,0c-1.275,-0.732 -1.913,-1.701 -1.913,-2.669l-0,-6.613c-0,0.968 0.638,1.936 1.913,2.669c2.551,1.464 6.708,1.464 9.259,-0c1.228,-0.709 1.866,-1.654 1.913,-2.575l-0,-6.283c0.047,0.992 -0.591,2.008 -1.913,2.764c-2.551,1.464 -6.708,1.464 -9.259,-0c-1.275,-0.756 -1.913,-1.724 -1.913,-2.693Z" style="fill:url(#_Linear11);fill-rule:nonzero;"/><path d="M116.869,146.947c-2.551,1.464 -6.708,1.464 -9.259,-0c-1.205,-0.709 -1.842,-1.606 -1.913,-2.504c-0.071,1.016 0.543,2.055 1.913,2.834c2.551,1.465 6.708,1.465 9.259,0c1.346,-0.779 1.984,-1.818 1.913,-2.834c-0.071,0.921 -0.685,1.819 -1.913,2.504Z" style="fill:#d2ffff;fill-rule:nonzero;"/><path d="M116.869,159.89c-2.551,1.465 -6.708,1.465 -9.259,0c-1.205,-0.708 -1.842,-1.606 -1.913,-2.504c-0.071,1.016 0.543,2.055 1.913,2.835c2.551,1.464 6.708,1.464 9.259,-0c1.346,-0.78 1.984,-1.819 1.913,-2.835c-0.071,0.898 -0.685,1.796 -1.913,2.504Z" style="fill:#d2ffff;fill-rule:nonzero;"/><path d="M116.892,127.957c-2.551,1.464 -6.708,1.464 -9.259,0c-1.275,-0.732 -1.913,-1.7 -1.913,-2.669l-0,6.614c-0,0.968 0.638,1.936 1.913,2.668c2.551,1.465 6.708,1.465 9.259,0c1.322,-0.755 1.96,-1.771 1.913,-2.763l0,-6.424c-0.047,0.921 -0.685,1.866 -1.913,2.574Z" style="fill:url(#_Linear12);fill-rule:nonzero;"/><path d="M116.892,140.664c-2.551,1.465 -6.708,1.465 -9.259,0c-1.275,-0.732 -1.913,-1.7 -1.913,-2.669l-0,6.614c-0,0.968 0.638,1.936 1.913,2.669c2.551,1.464 6.708,1.464 9.259,-0c1.322,-0.756 1.96,-1.772 1.913,-2.764l0,-6.424c-0.047,0.921 -0.685,1.866 -1.913,2.574Z" style="fill:url(#_Linear13);fill-rule:nonzero;"/><path d="M116.892,153.584c-2.551,1.464 -6.708,1.464 -9.259,-0c-1.275,-0.732 -1.913,-1.701 -1.913,-2.669l-0,6.613c-0,0.969 0.638,1.937 1.913,2.669c2.551,1.465 6.708,1.465 9.259,0c1.322,-0.756 1.96,-1.771 1.913,-2.763l0,-6.424c-0.047,0.944 -0.685,1.865 -1.913,2.574Z" style="fill:url(#_Linear14);fill-rule:nonzero;"/><path d="M88.618,87.237c-0.307,-0.165 -0.59,-0.331 -0.897,-0.52l-3.189,-18.116l4.016,-24.044l11.148,-12.14l11.479,-11.149l18.281,-7.581l0.473,-0.189c0.873,0.425 1.676,0.968 2.456,1.582c4.559,-0.567 9.141,-1.134 13.699,-1.724c-0.779,-1.89 -1.677,-3.614 -2.763,-5.102l2.196,-0.85l-8.196,-4.724c-0.094,-0.047 -0.189,-0.118 -0.283,-0.165l-0.307,-0.166l-0.024,0c-7.038,-3.802 -16.628,-3.117 -27.186,3c-21.611,12.471 -39.137,42.822 -39.137,67.764c0,12.376 4.323,21.092 11.29,25.225l0.048,0.024c0.07,0.047 0.165,0.094 0.236,0.142l8.691,4.983l-0.448,-2.527c1.086,0.095 2.196,0.095 3.354,0.024c-2.386,-4.252 -5.645,-8.976 -4.937,-13.747Z" style="fill:url(#_Linear15);fill-rule:nonzero;"/><path d="M148.634,28.921c0,-0.331 0.024,-0.685 0.024,-1.016c-0,-5.645 -0.921,-10.534 -2.575,-14.549c-4.558,0.567 -9.14,1.134 -13.699,1.724c4.393,3.472 7.062,9.684 7.062,18.163c0,19.061 -13.392,42.255 -29.902,51.797c-8.149,4.701 -15.518,5.197 -20.903,2.197c-0.685,4.771 2.551,9.471 4.984,13.723c3.637,-0.213 7.558,-1.228 11.668,-3.094l-1.299,1.464c-0,0 16.273,-5.645 16.604,-5.999c0.331,-0.355 19.273,-19.486 19.273,-19.486l12.377,-26.69l-3.614,-18.234Z" style="fill:url(#_Linear16);fill-rule:nonzero;"/><path d="M144.763,37.211c-0,-19.061 -13.392,-26.808 -29.902,-17.265c-16.51,9.542 -29.902,32.712 -29.902,51.797c-0,19.061 13.392,26.807 29.902,17.265c16.51,-9.542 29.902,-32.736 29.902,-51.797Z" style="fill:url(#_Linear17);fill-rule:nonzero;"/><path d="M142.164,35.794c-0,-19.061 -13.392,-26.808 -29.902,-17.265c-16.51,9.542 -29.902,32.712 -29.902,51.797c-0,19.06 13.392,26.808 29.902,17.265c16.51,-9.542 29.902,-32.712 29.902,-51.797Z" style="fill:url(#_Linear18);fill-rule:nonzero;"/><path d="M118.121,10.285c-21.612,12.471 -39.137,42.822 -39.137,67.764c-0,24.942 17.525,35.075 39.137,22.58c21.612,-12.471 39.137,-42.822 39.137,-67.764c0,-24.942 -17.525,-35.051 -39.137,-22.58Zm0,79.716c-16.51,9.542 -29.902,1.795 -29.902,-17.266c0,-19.061 13.392,-42.255 29.902,-51.797c16.51,-9.542 29.902,-1.795 29.902,17.266c0,19.06 -13.392,42.254 -29.902,51.797Z" style="fill:#97c9ff;fill-rule:nonzero;"/><path d="M118.121,10.285c-21.612,12.471 -39.137,42.822 -39.137,67.764c-0,24.942 17.525,35.075 39.137,22.58c21.612,-12.471 39.137,-42.822 39.137,-67.764c0,-24.942 -17.525,-35.051 -39.137,-22.58Zm0,79.716c-16.51,9.542 -29.902,1.795 -29.902,-17.266c0,-19.061 13.392,-42.255 29.902,-51.797c16.51,-9.542 29.902,-1.795 29.902,17.266c0,19.06 -13.392,42.254 -29.902,51.797Z" style="fill:#97c9ff;fill-rule:nonzero;"/><path d="M79.597,78.734c0,-24.942 17.526,-55.293 39.137,-67.764c13.298,-7.676 25.037,-6.778 32.123,0.851c-6.992,-8.243 -19.038,-9.401 -32.713,-1.512c-21.612,12.471 -39.137,42.822 -39.137,67.764c-0,9.589 2.598,16.982 7.015,21.753c-4.063,-4.794 -6.425,-11.951 -6.425,-21.092Z" style="fill:#d2ffff;fill-rule:nonzero;"/><path d="M118.709,90.662c16.51,-9.542 29.903,-32.713 29.903,-51.797c-0,-7.393 -2.008,-13.062 -5.433,-16.699c3.071,3.661 4.842,9.094 4.842,16.038c0,19.06 -13.392,42.255 -29.902,51.797c-10.109,5.834 -19.061,5.196 -24.47,-0.567c5.338,6.377 14.574,7.298 25.06,1.228Z" style="fill:#d2ffff;fill-rule:nonzero;"/><defs><linearGradient id="_Linear1" x1="0" y1="0" x2="1" y2="0" gradientUnits="userSpaceOnUse" gradientTransform="matrix(282.133,0,0,282.133,-54.4193,239.661)"><stop offset="0" style="stop-color:#3e77ff;stop-opacity:1"/><stop offset="0.18" style="stop-color:#457dff;stop-opacity:1"/><stop offset="0.44" style="stop-color:#5990ff;stop-opacity:1"/><stop offset="0.75" style="stop-color:#79adff;stop-opacity:1"/><stop offset="1" style="stop-color:#97c9ff;stop-opacity:1"/></linearGradient><linearGradient id="_Linear2" x1="0" y1="0" x2="1" y2="0" gradientUnits="userSpaceOnUse" gradientTransform="matrix(169.344,0,0,169.344,25.4251,201.536)"><stop offset="0" style="stop-color:#2aedff;stop-opacity:0.5"/><stop offset="0.16" style="stop-color:#2be8ff;stop-opacity:0.5"/><stop offset="0.35" style="stop-color:#2ddaff;stop-opacity:0.5"/><stop offset="0.56" style="stop-color:#31c2ff;stop-opacity:0.5"/><stop offset="0.78" style="stop-color:#37a1ff;stop-opacity:0.5"/><stop offset="1" style="stop-color:#3e77ff;stop-opacity:0.5"/></linearGradient><linearGradient id="_Linear3" x1="0" y1="0" x2="1" y2="0" gradientUnits="userSpaceOnUse" gradientTransform="matrix(84.6731,0,0,84.6731,110.095,170.93)"><stop offset="0" style="stop-color:#2aedff;stop-opacity:0.5"/><stop offset="0.16" style="stop-color:#2be8ff;stop-opacity:0.5"/><stop offset="0.35" style="stop-color:#2ddaff;stop-opacity:0.5"/><stop offset="0.56" style="stop-color:#31c2ff;stop-opacity:0.5"/><stop offset="0.78" style="stop-color:#37a1ff;stop-opacity:0.5"/><stop offset="1" style="stop-color:#3e77ff;stop-opacity:0.5"/></linearGradient><linearGradient id="_Linear4" x1="0" y1="0" x2="1" y2="0" gradientUnits="userSpaceOnUse" gradientTransform="matrix(84.6728,0,0,84.6728,25.4254,170.929)"><stop offset="0" style="stop-color:#2aedff;stop-opacity:0.5"/><stop offset="0.16" style="stop-color:#2be8ff;stop-opacity:0.5"/><stop offset="0.35" style="stop-color:#2ddaff;stop-opacity:0.5"/><stop offset="0.56" style="stop-color:#31c2ff;stop-opacity:0.5"/><stop offset="0.78" style="stop-color:#37a1ff;stop-opacity:0.5"/><stop offset="1" style="stop-color:#3e77ff;stop-opacity:0.5"/></linearGradient><linearGradient id="_Linear5" x1="0" y1="0" x2="1" y2="0" gradientUnits="userSpaceOnUse" gradientTransform="matrix(169.343,0,0,169.343,25.4254,189.209)"><stop offset="0" style="stop-color:#2aedff;stop-opacity:0.5"/><stop offset="0.16" style="stop-color:#2be8ff;stop-opacity:0.5"/><stop offset="0.35" style="stop-color:#2ddaff;stop-opacity:0.5"/><stop offset="0.56" style="stop-color:#31c2ff;stop-opacity:0.5"/><stop offset="0.78" style="stop-color:#37a1ff;stop-opacity:0.5"/><stop offset="1" style="stop-color:#3e77ff;stop-opacity:0.5"/></linearGradient><linearGradient id="_Linear6" x1="0" y1="0" x2="1" y2="0" gradientUnits="userSpaceOnUse" gradientTransform="matrix(84.6706,0,0,84.6706,110.098,219.815)"><stop offset="0" style="stop-color:#2aedff;stop-opacity:0.5"/><stop offset="0.16" style="stop-color:#2be8ff;stop-opacity:0.5"/><stop offset="0.35" style="stop-color:#2ddaff;stop-opacity:0.5"/><stop offset="0.56" style="stop-color:#31c2ff;stop-opacity:0.5"/><stop offset="0.78" style="stop-color:#37a1ff;stop-opacity:0.5"/><stop offset="1" style="stop-color:#3e77ff;stop-opacity:0.5"/></linearGradient><linearGradient id="_Linear7" x1="0" y1="0" x2="1" y2="0" gradientUnits="userSpaceOnUse" gradientTransform="matrix(84.6729,0,0,84.6729,25.4251,219.815)"><stop offset="0" style="stop-color:#2aedff;stop-opacity:0.5"/><stop offset="0.16" style="stop-color:#2be8ff;stop-opacity:0.5"/><stop offset="0.35" style="stop-color:#2ddaff;stop-opacity:0.5"/><stop offset="0.56" style="stop-color:#31c2ff;stop-opacity:0.5"/><stop offset="0.78" style="stop-color:#37a1ff;stop-opacity:0.5"/><stop offset="1" style="stop-color:#3e77ff;stop-opacity:0.5"/></linearGradient><linearGradient id="_Linear8" x1="0" y1="0" x2="1" y2="0" gradientUnits="userSpaceOnUse" gradientTransform="matrix(4.62688,8.01281,-8.01281,4.62688,107.626,129.228)"><stop offset="0" style="stop-color:#3e77ff;stop-opacity:1"/><stop offset="0.18" style="stop-color:#457dff;stop-opacity:1"/><stop offset="0.44" style="stop-color:#5990ff;stop-opacity:1"/><stop offset="0.75" style="stop-color:#79adff;stop-opacity:1"/><stop offset="1" style="stop-color:#97c9ff;stop-opacity:1"/></linearGradient><linearGradient id="_Linear9" x1="0" y1="0" x2="1" y2="0" gradientUnits="userSpaceOnUse" gradientTransform="matrix(4.62688,8.01344,-8.01344,4.62688,107.627,141.934)"><stop offset="0" style="stop-color:#3e77ff;stop-opacity:1"/><stop offset="0.18" style="stop-color:#457dff;stop-opacity:1"/><stop offset="0.44" style="stop-color:#5990ff;stop-opacity:1"/><stop offset="0.75" style="stop-color:#79adff;stop-opacity:1"/><stop offset="1" style="stop-color:#97c9ff;stop-opacity:1"/></linearGradient><linearGradient id="_Linear10" x1="0" y1="0" x2="1" y2="0" gradientUnits="userSpaceOnUse" gradientTransform="matrix(4.62688,8.01312,-8.01312,4.62688,107.627,154.864)"><stop offset="0" style="stop-color:#3e77ff;stop-opacity:1"/><stop offset="0.18" style="stop-color:#457dff;stop-opacity:1"/><stop offset="0.44" style="stop-color:#5990ff;stop-opacity:1"/><stop offset="0.75" style="stop-color:#79adff;stop-opacity:1"/><stop offset="1" style="stop-color:#97c9ff;stop-opacity:1"/></linearGradient><linearGradient id="_Linear11" x1="0" y1="0" x2="1" y2="0" gradientUnits="userSpaceOnUse" gradientTransform="matrix(35.7588,0,0,35.7588,88.1764,141.863)"><stop offset="0" style="stop-color:#3e77ff;stop-opacity:1"/><stop offset="0.18" style="stop-color:#457dff;stop-opacity:1"/><stop offset="0.44" style="stop-color:#5990ff;stop-opacity:1"/><stop offset="0.75" style="stop-color:#79adff;stop-opacity:1"/><stop offset="1" style="stop-color:#97c9ff;stop-opacity:1"/></linearGradient><linearGradient id="_Linear12" x1="0" y1="0" x2="1" y2="0" gradientUnits="userSpaceOnUse" gradientTransform="matrix(13.08,0,0,13.08,105.713,130.483)"><stop offset="0" style="stop-color:#2aedff;stop-opacity:0.48"/><stop offset="0.16" style="stop-color:#2be8ff;stop-opacity:0.48"/><stop offset="0.35" style="stop-color:#2ddaff;stop-opacity:0.48"/><stop offset="0.56" style="stop-color:#31c2ff;stop-opacity:0.48"/><stop offset="0.78" style="stop-color:#37a1ff;stop-opacity:0.48"/><stop offset="1" style="stop-color:#3e77ff;stop-opacity:0.48"/></linearGradient><linearGradient id="_Linear13" x1="0" y1="0" x2="1" y2="0" gradientUnits="userSpaceOnUse" gradientTransform="matrix(13.08,0,0,13.08,105.713,143.19)"><stop offset="0" style="stop-color:#2aedff;stop-opacity:0.48"/><stop offset="0.16" style="stop-color:#2be8ff;stop-opacity:0.48"/><stop offset="0.35" style="stop-color:#2ddaff;stop-opacity:0.48"/><stop offset="0.56" style="stop-color:#31c2ff;stop-opacity:0.48"/><stop offset="0.78" style="stop-color:#37a1ff;stop-opacity:0.48"/><stop offset="1" style="stop-color:#3e77ff;stop-opacity:0.48"/></linearGradient><linearGradient id="_Linear14" x1="0" y1="0" x2="1" y2="0" gradientUnits="userSpaceOnUse" gradientTransform="matrix(13.0797,0,0,13.0797,105.713,156.119)"><stop offset="0" style="stop-color:#2aedff;stop-opacity:0.48"/><stop offset="0.16" style="stop-color:#2be8ff;stop-opacity:0.48"/><stop offset="0.35" style="stop-color:#2ddaff;stop-opacity:0.48"/><stop offset="0.56" style="stop-color:#31c2ff;stop-opacity:0.48"/><stop offset="0.78" style="stop-color:#37a1ff;stop-opacity:0.48"/><stop offset="1" style="stop-color:#3e77ff;stop-opacity:0.48"/></linearGradient><linearGradient id="_Linear15" x1="0" y1="0" x2="1" y2="0" gradientUnits="userSpaceOnUse" gradientTransform="matrix(84.5306,-49.0041,49.0041,84.5306,65.2907,74.5817)"><stop offset="0" style="stop-color:#3e77ff;stop-opacity:1"/><stop offset="0.18" style="stop-color:#457dff;stop-opacity:1"/><stop offset="0.44" style="stop-color:#5990ff;stop-opacity:1"/><stop offset="0.75" style="stop-color:#79adff;stop-opacity:1"/><stop offset="1" style="stop-color:#97c9ff;stop-opacity:1"/></linearGradient><linearGradient id="_Linear16" x1="0" y1="0" x2="1" y2="0" gradientUnits="userSpaceOnUse" gradientTransform="matrix(-76.1047,55.7203,-55.7203,-76.1047,157.98,31.1264)"><stop offset="0" style="stop-color:#3e77ff;stop-opacity:1"/><stop offset="0.18" style="stop-color:#457dff;stop-opacity:1"/><stop offset="0.44" style="stop-color:#5990ff;stop-opacity:1"/><stop offset="0.75" style="stop-color:#79adff;stop-opacity:1"/><stop offset="1" style="stop-color:#97c9ff;stop-opacity:1"/></linearGradient><linearGradient id="_Linear17" x1="0" y1="0" x2="1" y2="0" gradientUnits="userSpaceOnUse" gradientTransform="matrix(59.8016,0,0,59.8016,84.9526,54.4739)"><stop offset="0" style="stop-color:#2aedff;stop-opacity:0.5"/><stop offset="0.16" style="stop-color:#2be8ff;stop-opacity:0.5"/><stop offset="0.35" style="stop-color:#2ddaff;stop-opacity:0.5"/><stop offset="0.56" style="stop-color:#31c2ff;stop-opacity:0.5"/><stop offset="0.78" style="stop-color:#37a1ff;stop-opacity:0.5"/><stop offset="1" style="stop-color:#3e77ff;stop-opacity:0.5"/></linearGradient><linearGradient id="_Linear18" x1="0" y1="0" x2="1" y2="0" gradientUnits="userSpaceOnUse" gradientTransform="matrix(59.8016,0,0,59.8016,82.3511,53.0624)"><stop offset="0" style="stop-color:#2aedff;stop-opacity:0.48"/><stop offset="0.16" style="stop-color:#2be8ff;stop-opacity:0.48"/><stop offset="0.35" style="stop-color:#2ddaff;stop-opacity:0.48"/><stop offset="0.56" style="stop-color:#31c2ff;stop-opacity:0.48"/><stop offset="0.78" style="stop-color:#37a1ff;stop-opacity:0.48"/><stop offset="1" style="stop-color:#3e77ff;stop-opacity:0.48"/></linearGradient></defs></svg>