<?xml version="1.0" encoding="UTF-8" standalone="no"?><!DOCTYPE svg PUBLIC "-//W3C//DTD SVG 1.1//EN" "http://www.w3.org/Graphics/SVG/1.1/DTD/svg11.dtd"><svg width="100%" height="100%" viewBox="0 0 16 16" version="1.1" xmlns="http://www.w3.org/2000/svg" xmlns:xlink="http://www.w3.org/1999/xlink" xml:space="preserve" xmlns:serif="http://www.serif.com/" style="fill-rule:evenodd;clip-rule:evenodd;stroke-linejoin:round;stroke-miterlimit:2;"><g id="Page-1"><g id="new_feature"><g id="New-feature"><path id="Rectangle-36" d="M15,3c0,-1.104 -0.896,-2 -2,-2l-10,0c-1.104,0 -2,0.896 -2,2l0,10c0,1.104 0.896,2 2,2l10,0c1.104,0 2,-0.896 2,-2l0,-10Z" style="fill:#00a3da;"/><path id="Rectangle-75" d="M11,9l-2,0l0,2c0,0.552 -0.448,1 -1,1c-0.552,0 -1,-0.448 -1,-1l0,-2l-2,0c-0.552,0 -1,-0.448 -1,-1c0,-0.552 0.448,-1 1,-1l2,0l0,-2c0,-0.552 0.448,-1 1,-1c0.552,0 1,0.448 1,1l0,2l2,0c0.552,0 1,0.448 1,1c0,0.552 -0.448,1 -1,1Z" style="fill:#00a3da;"/></g></g><text x="5.682px" y="12.28px" style="font-family:'Arial-Black', 'Arial Black', sans-serif;font-weight:900;font-size:12px;fill:#fff;">I</text></g></svg>